M48
; DRILL file {KiCad (6.0.10-0)} date Saturday, January 28, 2023 at 09:33:10 PM
; FORMAT={-:-/ absolute / metric / decimal}
; #@! TF.CreationDate,2023-01-28T21:33:10-05:00
; #@! TF.GenerationSoftware,Kicad,Pcbnew,(6.0.10-0)
; #@! TF.FileFunction,Plated,1,2,PTH
FMAT,2
METRIC
; #@! TA.AperFunction,Plated,PTH,ComponentDrill
T1C0.750
; #@! TA.AperFunction,Plated,PTH,ComponentDrill
T2C0.800
; #@! TA.AperFunction,Plated,PTH,ComponentDrill
T3C0.900
; #@! TA.AperFunction,Plated,PTH,ComponentDrill
T4C1.000
; #@! TA.AperFunction,Plated,PTH,ComponentDrill
T5C1.016
; #@! TA.AperFunction,Plated,PTH,ComponentDrill
T6C1.300
%
G90
G05
T1
X161.1Y-85.45
X161.1Y-87.45
T2
X102.0Y-94.0
X102.0Y-96.54
X103.57Y-54.83
X103.57Y-62.45
X107.57Y-54.83
X107.57Y-62.45
X109.62Y-94.0
X109.62Y-96.54
X111.19Y-54.83
X111.19Y-62.45
X118.5Y-94.92
X118.5Y-98.12
X121.0Y-94.92
X121.0Y-98.12
X123.5Y-94.92
X123.5Y-98.12
X158.59Y-68.3
X158.59Y-72.35
X158.59Y-76.4
X158.59Y-80.45
X166.21Y-68.3
X166.21Y-72.35
X166.21Y-76.4
X166.21Y-80.45
T3
X105.111Y-50.28
X106.381Y-50.28
X107.651Y-50.28
X108.921Y-50.28
T4
X118.796Y-49.2
X121.336Y-49.2
X123.876Y-49.2
X126.416Y-49.2
X127.94Y-97.46
X128.956Y-49.2
X130.48Y-97.46
X131.496Y-49.2
X133.02Y-97.46
X134.036Y-49.2
X135.56Y-97.46
X136.576Y-49.2
X138.1Y-97.46
X139.116Y-49.2
X140.64Y-97.46
X141.656Y-49.2
X143.18Y-97.46
X145.72Y-49.2
X145.72Y-97.46
X148.26Y-49.2
X150.8Y-49.2
X150.8Y-97.46
X153.34Y-49.2
X153.34Y-97.46
X155.88Y-49.2
X155.88Y-97.46
X158.42Y-49.2
X158.42Y-97.46
X160.96Y-49.2
X160.96Y-97.46
X163.5Y-49.2
X163.5Y-97.46
T5
X103.81Y-83.871
X103.81Y-86.411
X106.35Y-83.871
X106.35Y-86.411
X108.89Y-83.871
X108.89Y-86.411
X111.43Y-83.871
X111.43Y-86.411
T6
X119.16Y-62.42
X119.16Y-67.42
X119.16Y-79.72
X119.16Y-84.72
X131.66Y-62.42
X131.66Y-67.42
X131.66Y-79.72
X131.66Y-84.72
X141.42Y-62.42
X141.42Y-67.42
X141.42Y-79.72
X141.42Y-84.72
X153.92Y-62.42
X153.92Y-67.42
X153.92Y-79.72
X153.92Y-84.72
T0
M30
