%TF.GenerationSoftware,KiCad,Pcbnew,(6.0.10-0)*%
%TF.CreationDate,2023-01-28T21:33:07-05:00*%
%TF.ProjectId,AWB-0412_HeroShield,4157422d-3034-4313-925f-4865726f5368,rev?*%
%TF.SameCoordinates,Original*%
%TF.FileFunction,Legend,Top*%
%TF.FilePolarity,Positive*%
%FSLAX46Y46*%
G04 Gerber Fmt 4.6, Leading zero omitted, Abs format (unit mm)*
G04 Created by KiCad (PCBNEW (6.0.10-0)) date 2023-01-28 21:33:07*
%MOMM*%
%LPD*%
G01*
G04 APERTURE LIST*
G04 Aperture macros list*
%AMRoundRect*
0 Rectangle with rounded corners*
0 $1 Rounding radius*
0 $2 $3 $4 $5 $6 $7 $8 $9 X,Y pos of 4 corners*
0 Add a 4 corners polygon primitive as box body*
4,1,4,$2,$3,$4,$5,$6,$7,$8,$9,$2,$3,0*
0 Add four circle primitives for the rounded corners*
1,1,$1+$1,$2,$3*
1,1,$1+$1,$4,$5*
1,1,$1+$1,$6,$7*
1,1,$1+$1,$8,$9*
0 Add four rect primitives between the rounded corners*
20,1,$1+$1,$2,$3,$4,$5,0*
20,1,$1+$1,$4,$5,$6,$7,0*
20,1,$1+$1,$6,$7,$8,$9,0*
20,1,$1+$1,$8,$9,$2,$3,0*%
G04 Aperture macros list end*
%ADD10C,0.150000*%
%ADD11C,0.120000*%
%ADD12C,0.100000*%
%ADD13C,0.152400*%
%ADD14C,0.254000*%
%ADD15R,1.727200X1.727200*%
%ADD16O,1.727200X1.727200*%
%ADD17RoundRect,0.250000X0.625000X-0.350000X0.625000X0.350000X-0.625000X0.350000X-0.625000X-0.350000X0*%
%ADD18O,1.750000X1.200000*%
%ADD19O,3.048000X1.850000*%
%ADD20C,1.600000*%
%ADD21O,1.600000X1.600000*%
%ADD22C,3.200000*%
%ADD23R,1.600000X1.600000*%
%ADD24R,1.070000X1.800000*%
%ADD25O,1.070000X1.800000*%
%ADD26R,1.700000X1.700000*%
%ADD27O,1.700000X1.700000*%
G04 APERTURE END LIST*
D10*
%TO.C,PWR*%
X159002380Y-87783333D02*
X158002380Y-87783333D01*
X158002380Y-87402380D01*
X158050000Y-87307142D01*
X158097619Y-87259523D01*
X158192857Y-87211904D01*
X158335714Y-87211904D01*
X158430952Y-87259523D01*
X158478571Y-87307142D01*
X158526190Y-87402380D01*
X158526190Y-87783333D01*
X158002380Y-86878571D02*
X159002380Y-86640476D01*
X158288095Y-86450000D01*
X159002380Y-86259523D01*
X158002380Y-86021428D01*
X159002380Y-85069047D02*
X158526190Y-85402380D01*
X159002380Y-85640476D02*
X158002380Y-85640476D01*
X158002380Y-85259523D01*
X158050000Y-85164285D01*
X158097619Y-85116666D01*
X158192857Y-85069047D01*
X158335714Y-85069047D01*
X158430952Y-85116666D01*
X158478571Y-85164285D01*
X158526190Y-85259523D01*
X158526190Y-85640476D01*
%TO.C,Btn1*%
X124367142Y-64888571D02*
X124510000Y-64936190D01*
X124557619Y-64983809D01*
X124605238Y-65079047D01*
X124605238Y-65221904D01*
X124557619Y-65317142D01*
X124510000Y-65364761D01*
X124414761Y-65412380D01*
X124033809Y-65412380D01*
X124033809Y-64412380D01*
X124367142Y-64412380D01*
X124462380Y-64460000D01*
X124510000Y-64507619D01*
X124557619Y-64602857D01*
X124557619Y-64698095D01*
X124510000Y-64793333D01*
X124462380Y-64840952D01*
X124367142Y-64888571D01*
X124033809Y-64888571D01*
X124890952Y-64745714D02*
X125271904Y-64745714D01*
X125033809Y-64412380D02*
X125033809Y-65269523D01*
X125081428Y-65364761D01*
X125176666Y-65412380D01*
X125271904Y-65412380D01*
X125605238Y-64745714D02*
X125605238Y-65412380D01*
X125605238Y-64840952D02*
X125652857Y-64793333D01*
X125748095Y-64745714D01*
X125890952Y-64745714D01*
X125986190Y-64793333D01*
X126033809Y-64888571D01*
X126033809Y-65412380D01*
X127033809Y-65412380D02*
X126462380Y-65412380D01*
X126748095Y-65412380D02*
X126748095Y-64412380D01*
X126652857Y-64555238D01*
X126557619Y-64650476D01*
X126462380Y-64698095D01*
%TO.C,220ohm*%
X107117619Y-61449523D02*
X107070000Y-61401904D01*
X107022380Y-61306666D01*
X107022380Y-61068571D01*
X107070000Y-60973333D01*
X107117619Y-60925714D01*
X107212857Y-60878095D01*
X107308095Y-60878095D01*
X107450952Y-60925714D01*
X108022380Y-61497142D01*
X108022380Y-60878095D01*
X107117619Y-60497142D02*
X107070000Y-60449523D01*
X107022380Y-60354285D01*
X107022380Y-60116190D01*
X107070000Y-60020952D01*
X107117619Y-59973333D01*
X107212857Y-59925714D01*
X107308095Y-59925714D01*
X107450952Y-59973333D01*
X108022380Y-60544761D01*
X108022380Y-59925714D01*
X107022380Y-59306666D02*
X107022380Y-59211428D01*
X107070000Y-59116190D01*
X107117619Y-59068571D01*
X107212857Y-59020952D01*
X107403333Y-58973333D01*
X107641428Y-58973333D01*
X107831904Y-59020952D01*
X107927142Y-59068571D01*
X107974761Y-59116190D01*
X108022380Y-59211428D01*
X108022380Y-59306666D01*
X107974761Y-59401904D01*
X107927142Y-59449523D01*
X107831904Y-59497142D01*
X107641428Y-59544761D01*
X107403333Y-59544761D01*
X107212857Y-59497142D01*
X107117619Y-59449523D01*
X107070000Y-59401904D01*
X107022380Y-59306666D01*
X108022380Y-58401904D02*
X107974761Y-58497142D01*
X107927142Y-58544761D01*
X107831904Y-58592380D01*
X107546190Y-58592380D01*
X107450952Y-58544761D01*
X107403333Y-58497142D01*
X107355714Y-58401904D01*
X107355714Y-58259047D01*
X107403333Y-58163809D01*
X107450952Y-58116190D01*
X107546190Y-58068571D01*
X107831904Y-58068571D01*
X107927142Y-58116190D01*
X107974761Y-58163809D01*
X108022380Y-58259047D01*
X108022380Y-58401904D01*
X108022380Y-57640000D02*
X107022380Y-57640000D01*
X108022380Y-57211428D02*
X107498571Y-57211428D01*
X107403333Y-57259047D01*
X107355714Y-57354285D01*
X107355714Y-57497142D01*
X107403333Y-57592380D01*
X107450952Y-57640000D01*
X108022380Y-56735238D02*
X107355714Y-56735238D01*
X107450952Y-56735238D02*
X107403333Y-56687619D01*
X107355714Y-56592380D01*
X107355714Y-56449523D01*
X107403333Y-56354285D01*
X107498571Y-56306666D01*
X108022380Y-56306666D01*
X107498571Y-56306666D02*
X107403333Y-56259047D01*
X107355714Y-56163809D01*
X107355714Y-56020952D01*
X107403333Y-55925714D01*
X107498571Y-55878095D01*
X108022380Y-55878095D01*
X103117619Y-61449523D02*
X103070000Y-61401904D01*
X103022380Y-61306666D01*
X103022380Y-61068571D01*
X103070000Y-60973333D01*
X103117619Y-60925714D01*
X103212857Y-60878095D01*
X103308095Y-60878095D01*
X103450952Y-60925714D01*
X104022380Y-61497142D01*
X104022380Y-60878095D01*
X103117619Y-60497142D02*
X103070000Y-60449523D01*
X103022380Y-60354285D01*
X103022380Y-60116190D01*
X103070000Y-60020952D01*
X103117619Y-59973333D01*
X103212857Y-59925714D01*
X103308095Y-59925714D01*
X103450952Y-59973333D01*
X104022380Y-60544761D01*
X104022380Y-59925714D01*
X103022380Y-59306666D02*
X103022380Y-59211428D01*
X103070000Y-59116190D01*
X103117619Y-59068571D01*
X103212857Y-59020952D01*
X103403333Y-58973333D01*
X103641428Y-58973333D01*
X103831904Y-59020952D01*
X103927142Y-59068571D01*
X103974761Y-59116190D01*
X104022380Y-59211428D01*
X104022380Y-59306666D01*
X103974761Y-59401904D01*
X103927142Y-59449523D01*
X103831904Y-59497142D01*
X103641428Y-59544761D01*
X103403333Y-59544761D01*
X103212857Y-59497142D01*
X103117619Y-59449523D01*
X103070000Y-59401904D01*
X103022380Y-59306666D01*
X104022380Y-58401904D02*
X103974761Y-58497142D01*
X103927142Y-58544761D01*
X103831904Y-58592380D01*
X103546190Y-58592380D01*
X103450952Y-58544761D01*
X103403333Y-58497142D01*
X103355714Y-58401904D01*
X103355714Y-58259047D01*
X103403333Y-58163809D01*
X103450952Y-58116190D01*
X103546190Y-58068571D01*
X103831904Y-58068571D01*
X103927142Y-58116190D01*
X103974761Y-58163809D01*
X104022380Y-58259047D01*
X104022380Y-58401904D01*
X104022380Y-57640000D02*
X103022380Y-57640000D01*
X104022380Y-57211428D02*
X103498571Y-57211428D01*
X103403333Y-57259047D01*
X103355714Y-57354285D01*
X103355714Y-57497142D01*
X103403333Y-57592380D01*
X103450952Y-57640000D01*
X104022380Y-56735238D02*
X103355714Y-56735238D01*
X103450952Y-56735238D02*
X103403333Y-56687619D01*
X103355714Y-56592380D01*
X103355714Y-56449523D01*
X103403333Y-56354285D01*
X103498571Y-56306666D01*
X104022380Y-56306666D01*
X103498571Y-56306666D02*
X103403333Y-56259047D01*
X103355714Y-56163809D01*
X103355714Y-56020952D01*
X103403333Y-55925714D01*
X103498571Y-55878095D01*
X104022380Y-55878095D01*
%TO.C,Btn3*%
X124367142Y-82188571D02*
X124510000Y-82236190D01*
X124557619Y-82283809D01*
X124605238Y-82379047D01*
X124605238Y-82521904D01*
X124557619Y-82617142D01*
X124510000Y-82664761D01*
X124414761Y-82712380D01*
X124033809Y-82712380D01*
X124033809Y-81712380D01*
X124367142Y-81712380D01*
X124462380Y-81760000D01*
X124510000Y-81807619D01*
X124557619Y-81902857D01*
X124557619Y-81998095D01*
X124510000Y-82093333D01*
X124462380Y-82140952D01*
X124367142Y-82188571D01*
X124033809Y-82188571D01*
X124890952Y-82045714D02*
X125271904Y-82045714D01*
X125033809Y-81712380D02*
X125033809Y-82569523D01*
X125081428Y-82664761D01*
X125176666Y-82712380D01*
X125271904Y-82712380D01*
X125605238Y-82045714D02*
X125605238Y-82712380D01*
X125605238Y-82140952D02*
X125652857Y-82093333D01*
X125748095Y-82045714D01*
X125890952Y-82045714D01*
X125986190Y-82093333D01*
X126033809Y-82188571D01*
X126033809Y-82712380D01*
X126414761Y-81712380D02*
X127033809Y-81712380D01*
X126700476Y-82093333D01*
X126843333Y-82093333D01*
X126938571Y-82140952D01*
X126986190Y-82188571D01*
X127033809Y-82283809D01*
X127033809Y-82521904D01*
X126986190Y-82617142D01*
X126938571Y-82664761D01*
X126843333Y-82712380D01*
X126557619Y-82712380D01*
X126462380Y-82664761D01*
X126414761Y-82617142D01*
%TO.C,PrgmMode | RST*%
X101429523Y-91032380D02*
X101429523Y-90032380D01*
X101810476Y-90032380D01*
X101905714Y-90080000D01*
X101953333Y-90127619D01*
X102000952Y-90222857D01*
X102000952Y-90365714D01*
X101953333Y-90460952D01*
X101905714Y-90508571D01*
X101810476Y-90556190D01*
X101429523Y-90556190D01*
X102429523Y-91032380D02*
X102429523Y-90365714D01*
X102429523Y-90556190D02*
X102477142Y-90460952D01*
X102524761Y-90413333D01*
X102620000Y-90365714D01*
X102715238Y-90365714D01*
X103477142Y-90365714D02*
X103477142Y-91175238D01*
X103429523Y-91270476D01*
X103381904Y-91318095D01*
X103286666Y-91365714D01*
X103143809Y-91365714D01*
X103048571Y-91318095D01*
X103477142Y-90984761D02*
X103381904Y-91032380D01*
X103191428Y-91032380D01*
X103096190Y-90984761D01*
X103048571Y-90937142D01*
X103000952Y-90841904D01*
X103000952Y-90556190D01*
X103048571Y-90460952D01*
X103096190Y-90413333D01*
X103191428Y-90365714D01*
X103381904Y-90365714D01*
X103477142Y-90413333D01*
X103953333Y-91032380D02*
X103953333Y-90365714D01*
X103953333Y-90460952D02*
X104000952Y-90413333D01*
X104096190Y-90365714D01*
X104239047Y-90365714D01*
X104334285Y-90413333D01*
X104381904Y-90508571D01*
X104381904Y-91032380D01*
X104381904Y-90508571D02*
X104429523Y-90413333D01*
X104524761Y-90365714D01*
X104667619Y-90365714D01*
X104762857Y-90413333D01*
X104810476Y-90508571D01*
X104810476Y-91032380D01*
X105286666Y-91032380D02*
X105286666Y-90032380D01*
X105620000Y-90746666D01*
X105953333Y-90032380D01*
X105953333Y-91032380D01*
X106572380Y-91032380D02*
X106477142Y-90984761D01*
X106429523Y-90937142D01*
X106381904Y-90841904D01*
X106381904Y-90556190D01*
X106429523Y-90460952D01*
X106477142Y-90413333D01*
X106572380Y-90365714D01*
X106715238Y-90365714D01*
X106810476Y-90413333D01*
X106858095Y-90460952D01*
X106905714Y-90556190D01*
X106905714Y-90841904D01*
X106858095Y-90937142D01*
X106810476Y-90984761D01*
X106715238Y-91032380D01*
X106572380Y-91032380D01*
X107762857Y-91032380D02*
X107762857Y-90032380D01*
X107762857Y-90984761D02*
X107667619Y-91032380D01*
X107477142Y-91032380D01*
X107381904Y-90984761D01*
X107334285Y-90937142D01*
X107286666Y-90841904D01*
X107286666Y-90556190D01*
X107334285Y-90460952D01*
X107381904Y-90413333D01*
X107477142Y-90365714D01*
X107667619Y-90365714D01*
X107762857Y-90413333D01*
X108620000Y-90984761D02*
X108524761Y-91032380D01*
X108334285Y-91032380D01*
X108239047Y-90984761D01*
X108191428Y-90889523D01*
X108191428Y-90508571D01*
X108239047Y-90413333D01*
X108334285Y-90365714D01*
X108524761Y-90365714D01*
X108620000Y-90413333D01*
X108667619Y-90508571D01*
X108667619Y-90603809D01*
X108191428Y-90699047D01*
X110096190Y-91365714D02*
X110096190Y-89937142D01*
X112143809Y-91032380D02*
X111810476Y-90556190D01*
X111572380Y-91032380D02*
X111572380Y-90032380D01*
X111953333Y-90032380D01*
X112048571Y-90080000D01*
X112096190Y-90127619D01*
X112143809Y-90222857D01*
X112143809Y-90365714D01*
X112096190Y-90460952D01*
X112048571Y-90508571D01*
X111953333Y-90556190D01*
X111572380Y-90556190D01*
X112524761Y-90984761D02*
X112667619Y-91032380D01*
X112905714Y-91032380D01*
X113000952Y-90984761D01*
X113048571Y-90937142D01*
X113096190Y-90841904D01*
X113096190Y-90746666D01*
X113048571Y-90651428D01*
X113000952Y-90603809D01*
X112905714Y-90556190D01*
X112715238Y-90508571D01*
X112620000Y-90460952D01*
X112572380Y-90413333D01*
X112524761Y-90318095D01*
X112524761Y-90222857D01*
X112572380Y-90127619D01*
X112620000Y-90080000D01*
X112715238Y-90032380D01*
X112953333Y-90032380D01*
X113096190Y-90080000D01*
X113381904Y-90032380D02*
X113953333Y-90032380D01*
X113667619Y-91032380D02*
X113667619Y-90032380D01*
%TO.C,10ohm*%
X160638095Y-80902380D02*
X160066666Y-80902380D01*
X160352380Y-80902380D02*
X160352380Y-79902380D01*
X160257142Y-80045238D01*
X160161904Y-80140476D01*
X160066666Y-80188095D01*
X161257142Y-79902380D02*
X161352380Y-79902380D01*
X161447619Y-79950000D01*
X161495238Y-79997619D01*
X161542857Y-80092857D01*
X161590476Y-80283333D01*
X161590476Y-80521428D01*
X161542857Y-80711904D01*
X161495238Y-80807142D01*
X161447619Y-80854761D01*
X161352380Y-80902380D01*
X161257142Y-80902380D01*
X161161904Y-80854761D01*
X161114285Y-80807142D01*
X161066666Y-80711904D01*
X161019047Y-80521428D01*
X161019047Y-80283333D01*
X161066666Y-80092857D01*
X161114285Y-79997619D01*
X161161904Y-79950000D01*
X161257142Y-79902380D01*
X162161904Y-80902380D02*
X162066666Y-80854761D01*
X162019047Y-80807142D01*
X161971428Y-80711904D01*
X161971428Y-80426190D01*
X162019047Y-80330952D01*
X162066666Y-80283333D01*
X162161904Y-80235714D01*
X162304761Y-80235714D01*
X162400000Y-80283333D01*
X162447619Y-80330952D01*
X162495238Y-80426190D01*
X162495238Y-80711904D01*
X162447619Y-80807142D01*
X162400000Y-80854761D01*
X162304761Y-80902380D01*
X162161904Y-80902380D01*
X162923809Y-80902380D02*
X162923809Y-79902380D01*
X163352380Y-80902380D02*
X163352380Y-80378571D01*
X163304761Y-80283333D01*
X163209523Y-80235714D01*
X163066666Y-80235714D01*
X162971428Y-80283333D01*
X162923809Y-80330952D01*
X163828571Y-80902380D02*
X163828571Y-80235714D01*
X163828571Y-80330952D02*
X163876190Y-80283333D01*
X163971428Y-80235714D01*
X164114285Y-80235714D01*
X164209523Y-80283333D01*
X164257142Y-80378571D01*
X164257142Y-80902380D01*
X164257142Y-80378571D02*
X164304761Y-80283333D01*
X164400000Y-80235714D01*
X164542857Y-80235714D01*
X164638095Y-80283333D01*
X164685714Y-80378571D01*
X164685714Y-80902380D01*
%TO.C,Hero Passthrough*%
X114523809Y-93722380D02*
X114523809Y-92722380D01*
X114523809Y-93198571D02*
X115095238Y-93198571D01*
X115095238Y-93722380D02*
X115095238Y-92722380D01*
X115952380Y-93674761D02*
X115857142Y-93722380D01*
X115666666Y-93722380D01*
X115571428Y-93674761D01*
X115523809Y-93579523D01*
X115523809Y-93198571D01*
X115571428Y-93103333D01*
X115666666Y-93055714D01*
X115857142Y-93055714D01*
X115952380Y-93103333D01*
X116000000Y-93198571D01*
X116000000Y-93293809D01*
X115523809Y-93389047D01*
X116428571Y-93722380D02*
X116428571Y-93055714D01*
X116428571Y-93246190D02*
X116476190Y-93150952D01*
X116523809Y-93103333D01*
X116619047Y-93055714D01*
X116714285Y-93055714D01*
X117190476Y-93722380D02*
X117095238Y-93674761D01*
X117047619Y-93627142D01*
X117000000Y-93531904D01*
X117000000Y-93246190D01*
X117047619Y-93150952D01*
X117095238Y-93103333D01*
X117190476Y-93055714D01*
X117333333Y-93055714D01*
X117428571Y-93103333D01*
X117476190Y-93150952D01*
X117523809Y-93246190D01*
X117523809Y-93531904D01*
X117476190Y-93627142D01*
X117428571Y-93674761D01*
X117333333Y-93722380D01*
X117190476Y-93722380D01*
X118714285Y-93722380D02*
X118714285Y-92722380D01*
X119095238Y-92722380D01*
X119190476Y-92770000D01*
X119238095Y-92817619D01*
X119285714Y-92912857D01*
X119285714Y-93055714D01*
X119238095Y-93150952D01*
X119190476Y-93198571D01*
X119095238Y-93246190D01*
X118714285Y-93246190D01*
X120142857Y-93722380D02*
X120142857Y-93198571D01*
X120095238Y-93103333D01*
X120000000Y-93055714D01*
X119809523Y-93055714D01*
X119714285Y-93103333D01*
X120142857Y-93674761D02*
X120047619Y-93722380D01*
X119809523Y-93722380D01*
X119714285Y-93674761D01*
X119666666Y-93579523D01*
X119666666Y-93484285D01*
X119714285Y-93389047D01*
X119809523Y-93341428D01*
X120047619Y-93341428D01*
X120142857Y-93293809D01*
X120571428Y-93674761D02*
X120666666Y-93722380D01*
X120857142Y-93722380D01*
X120952380Y-93674761D01*
X121000000Y-93579523D01*
X121000000Y-93531904D01*
X120952380Y-93436666D01*
X120857142Y-93389047D01*
X120714285Y-93389047D01*
X120619047Y-93341428D01*
X120571428Y-93246190D01*
X120571428Y-93198571D01*
X120619047Y-93103333D01*
X120714285Y-93055714D01*
X120857142Y-93055714D01*
X120952380Y-93103333D01*
X121380952Y-93674761D02*
X121476190Y-93722380D01*
X121666666Y-93722380D01*
X121761904Y-93674761D01*
X121809523Y-93579523D01*
X121809523Y-93531904D01*
X121761904Y-93436666D01*
X121666666Y-93389047D01*
X121523809Y-93389047D01*
X121428571Y-93341428D01*
X121380952Y-93246190D01*
X121380952Y-93198571D01*
X121428571Y-93103333D01*
X121523809Y-93055714D01*
X121666666Y-93055714D01*
X121761904Y-93103333D01*
X122095238Y-93055714D02*
X122476190Y-93055714D01*
X122238095Y-92722380D02*
X122238095Y-93579523D01*
X122285714Y-93674761D01*
X122380952Y-93722380D01*
X122476190Y-93722380D01*
X122809523Y-93722380D02*
X122809523Y-92722380D01*
X123238095Y-93722380D02*
X123238095Y-93198571D01*
X123190476Y-93103333D01*
X123095238Y-93055714D01*
X122952380Y-93055714D01*
X122857142Y-93103333D01*
X122809523Y-93150952D01*
X123714285Y-93722380D02*
X123714285Y-93055714D01*
X123714285Y-93246190D02*
X123761904Y-93150952D01*
X123809523Y-93103333D01*
X123904761Y-93055714D01*
X124000000Y-93055714D01*
X124476190Y-93722380D02*
X124380952Y-93674761D01*
X124333333Y-93627142D01*
X124285714Y-93531904D01*
X124285714Y-93246190D01*
X124333333Y-93150952D01*
X124380952Y-93103333D01*
X124476190Y-93055714D01*
X124619047Y-93055714D01*
X124714285Y-93103333D01*
X124761904Y-93150952D01*
X124809523Y-93246190D01*
X124809523Y-93531904D01*
X124761904Y-93627142D01*
X124714285Y-93674761D01*
X124619047Y-93722380D01*
X124476190Y-93722380D01*
X125666666Y-93055714D02*
X125666666Y-93722380D01*
X125238095Y-93055714D02*
X125238095Y-93579523D01*
X125285714Y-93674761D01*
X125380952Y-93722380D01*
X125523809Y-93722380D01*
X125619047Y-93674761D01*
X125666666Y-93627142D01*
X126571428Y-93055714D02*
X126571428Y-93865238D01*
X126523809Y-93960476D01*
X126476190Y-94008095D01*
X126380952Y-94055714D01*
X126238095Y-94055714D01*
X126142857Y-94008095D01*
X126571428Y-93674761D02*
X126476190Y-93722380D01*
X126285714Y-93722380D01*
X126190476Y-93674761D01*
X126142857Y-93627142D01*
X126095238Y-93531904D01*
X126095238Y-93246190D01*
X126142857Y-93150952D01*
X126190476Y-93103333D01*
X126285714Y-93055714D01*
X126476190Y-93055714D01*
X126571428Y-93103333D01*
X127047619Y-93722380D02*
X127047619Y-92722380D01*
X127476190Y-93722380D02*
X127476190Y-93198571D01*
X127428571Y-93103333D01*
X127333333Y-93055714D01*
X127190476Y-93055714D01*
X127095238Y-93103333D01*
X127047619Y-93150952D01*
%TO.C,220ohm*%
X110737619Y-61449523D02*
X110690000Y-61401904D01*
X110642380Y-61306666D01*
X110642380Y-61068571D01*
X110690000Y-60973333D01*
X110737619Y-60925714D01*
X110832857Y-60878095D01*
X110928095Y-60878095D01*
X111070952Y-60925714D01*
X111642380Y-61497142D01*
X111642380Y-60878095D01*
X110737619Y-60497142D02*
X110690000Y-60449523D01*
X110642380Y-60354285D01*
X110642380Y-60116190D01*
X110690000Y-60020952D01*
X110737619Y-59973333D01*
X110832857Y-59925714D01*
X110928095Y-59925714D01*
X111070952Y-59973333D01*
X111642380Y-60544761D01*
X111642380Y-59925714D01*
X110642380Y-59306666D02*
X110642380Y-59211428D01*
X110690000Y-59116190D01*
X110737619Y-59068571D01*
X110832857Y-59020952D01*
X111023333Y-58973333D01*
X111261428Y-58973333D01*
X111451904Y-59020952D01*
X111547142Y-59068571D01*
X111594761Y-59116190D01*
X111642380Y-59211428D01*
X111642380Y-59306666D01*
X111594761Y-59401904D01*
X111547142Y-59449523D01*
X111451904Y-59497142D01*
X111261428Y-59544761D01*
X111023333Y-59544761D01*
X110832857Y-59497142D01*
X110737619Y-59449523D01*
X110690000Y-59401904D01*
X110642380Y-59306666D01*
X111642380Y-58401904D02*
X111594761Y-58497142D01*
X111547142Y-58544761D01*
X111451904Y-58592380D01*
X111166190Y-58592380D01*
X111070952Y-58544761D01*
X111023333Y-58497142D01*
X110975714Y-58401904D01*
X110975714Y-58259047D01*
X111023333Y-58163809D01*
X111070952Y-58116190D01*
X111166190Y-58068571D01*
X111451904Y-58068571D01*
X111547142Y-58116190D01*
X111594761Y-58163809D01*
X111642380Y-58259047D01*
X111642380Y-58401904D01*
X111642380Y-57640000D02*
X110642380Y-57640000D01*
X111642380Y-57211428D02*
X111118571Y-57211428D01*
X111023333Y-57259047D01*
X110975714Y-57354285D01*
X110975714Y-57497142D01*
X111023333Y-57592380D01*
X111070952Y-57640000D01*
X111642380Y-56735238D02*
X110975714Y-56735238D01*
X111070952Y-56735238D02*
X111023333Y-56687619D01*
X110975714Y-56592380D01*
X110975714Y-56449523D01*
X111023333Y-56354285D01*
X111118571Y-56306666D01*
X111642380Y-56306666D01*
X111118571Y-56306666D02*
X111023333Y-56259047D01*
X110975714Y-56163809D01*
X110975714Y-56020952D01*
X111023333Y-55925714D01*
X111118571Y-55878095D01*
X111642380Y-55878095D01*
%TO.C,Btn2*%
X146627142Y-64888571D02*
X146770000Y-64936190D01*
X146817619Y-64983809D01*
X146865238Y-65079047D01*
X146865238Y-65221904D01*
X146817619Y-65317142D01*
X146770000Y-65364761D01*
X146674761Y-65412380D01*
X146293809Y-65412380D01*
X146293809Y-64412380D01*
X146627142Y-64412380D01*
X146722380Y-64460000D01*
X146770000Y-64507619D01*
X146817619Y-64602857D01*
X146817619Y-64698095D01*
X146770000Y-64793333D01*
X146722380Y-64840952D01*
X146627142Y-64888571D01*
X146293809Y-64888571D01*
X147150952Y-64745714D02*
X147531904Y-64745714D01*
X147293809Y-64412380D02*
X147293809Y-65269523D01*
X147341428Y-65364761D01*
X147436666Y-65412380D01*
X147531904Y-65412380D01*
X147865238Y-64745714D02*
X147865238Y-65412380D01*
X147865238Y-64840952D02*
X147912857Y-64793333D01*
X148008095Y-64745714D01*
X148150952Y-64745714D01*
X148246190Y-64793333D01*
X148293809Y-64888571D01*
X148293809Y-65412380D01*
X148722380Y-64507619D02*
X148770000Y-64460000D01*
X148865238Y-64412380D01*
X149103333Y-64412380D01*
X149198571Y-64460000D01*
X149246190Y-64507619D01*
X149293809Y-64602857D01*
X149293809Y-64698095D01*
X149246190Y-64840952D01*
X148674761Y-65412380D01*
X149293809Y-65412380D01*
%TO.C,Btn4*%
X146627142Y-82188571D02*
X146770000Y-82236190D01*
X146817619Y-82283809D01*
X146865238Y-82379047D01*
X146865238Y-82521904D01*
X146817619Y-82617142D01*
X146770000Y-82664761D01*
X146674761Y-82712380D01*
X146293809Y-82712380D01*
X146293809Y-81712380D01*
X146627142Y-81712380D01*
X146722380Y-81760000D01*
X146770000Y-81807619D01*
X146817619Y-81902857D01*
X146817619Y-81998095D01*
X146770000Y-82093333D01*
X146722380Y-82140952D01*
X146627142Y-82188571D01*
X146293809Y-82188571D01*
X147150952Y-82045714D02*
X147531904Y-82045714D01*
X147293809Y-81712380D02*
X147293809Y-82569523D01*
X147341428Y-82664761D01*
X147436666Y-82712380D01*
X147531904Y-82712380D01*
X147865238Y-82045714D02*
X147865238Y-82712380D01*
X147865238Y-82140952D02*
X147912857Y-82093333D01*
X148008095Y-82045714D01*
X148150952Y-82045714D01*
X148246190Y-82093333D01*
X148293809Y-82188571D01*
X148293809Y-82712380D01*
X149198571Y-82045714D02*
X149198571Y-82712380D01*
X148960476Y-81664761D02*
X148722380Y-82379047D01*
X149341428Y-82379047D01*
%TO.C,10ohm*%
X160638095Y-68752380D02*
X160066666Y-68752380D01*
X160352380Y-68752380D02*
X160352380Y-67752380D01*
X160257142Y-67895238D01*
X160161904Y-67990476D01*
X160066666Y-68038095D01*
X161257142Y-67752380D02*
X161352380Y-67752380D01*
X161447619Y-67800000D01*
X161495238Y-67847619D01*
X161542857Y-67942857D01*
X161590476Y-68133333D01*
X161590476Y-68371428D01*
X161542857Y-68561904D01*
X161495238Y-68657142D01*
X161447619Y-68704761D01*
X161352380Y-68752380D01*
X161257142Y-68752380D01*
X161161904Y-68704761D01*
X161114285Y-68657142D01*
X161066666Y-68561904D01*
X161019047Y-68371428D01*
X161019047Y-68133333D01*
X161066666Y-67942857D01*
X161114285Y-67847619D01*
X161161904Y-67800000D01*
X161257142Y-67752380D01*
X162161904Y-68752380D02*
X162066666Y-68704761D01*
X162019047Y-68657142D01*
X161971428Y-68561904D01*
X161971428Y-68276190D01*
X162019047Y-68180952D01*
X162066666Y-68133333D01*
X162161904Y-68085714D01*
X162304761Y-68085714D01*
X162400000Y-68133333D01*
X162447619Y-68180952D01*
X162495238Y-68276190D01*
X162495238Y-68561904D01*
X162447619Y-68657142D01*
X162400000Y-68704761D01*
X162304761Y-68752380D01*
X162161904Y-68752380D01*
X162923809Y-68752380D02*
X162923809Y-67752380D01*
X163352380Y-68752380D02*
X163352380Y-68228571D01*
X163304761Y-68133333D01*
X163209523Y-68085714D01*
X163066666Y-68085714D01*
X162971428Y-68133333D01*
X162923809Y-68180952D01*
X163828571Y-68752380D02*
X163828571Y-68085714D01*
X163828571Y-68180952D02*
X163876190Y-68133333D01*
X163971428Y-68085714D01*
X164114285Y-68085714D01*
X164209523Y-68133333D01*
X164257142Y-68228571D01*
X164257142Y-68752380D01*
X164257142Y-68228571D02*
X164304761Y-68133333D01*
X164400000Y-68085714D01*
X164542857Y-68085714D01*
X164638095Y-68133333D01*
X164685714Y-68228571D01*
X164685714Y-68752380D01*
%TO.C,LED*%
X110357142Y-50452380D02*
X109880952Y-50452380D01*
X109880952Y-49452380D01*
X110690476Y-49928571D02*
X111023809Y-49928571D01*
X111166666Y-50452380D02*
X110690476Y-50452380D01*
X110690476Y-49452380D01*
X111166666Y-49452380D01*
X111595238Y-50452380D02*
X111595238Y-49452380D01*
X111833333Y-49452380D01*
X111976190Y-49500000D01*
X112071428Y-49595238D01*
X112119047Y-49690476D01*
X112166666Y-49880952D01*
X112166666Y-50023809D01*
X112119047Y-50214285D01*
X112071428Y-50309523D01*
X111976190Y-50404761D01*
X111833333Y-50452380D01*
X111595238Y-50452380D01*
%TO.C,10ohm*%
X160638095Y-72802380D02*
X160066666Y-72802380D01*
X160352380Y-72802380D02*
X160352380Y-71802380D01*
X160257142Y-71945238D01*
X160161904Y-72040476D01*
X160066666Y-72088095D01*
X161257142Y-71802380D02*
X161352380Y-71802380D01*
X161447619Y-71850000D01*
X161495238Y-71897619D01*
X161542857Y-71992857D01*
X161590476Y-72183333D01*
X161590476Y-72421428D01*
X161542857Y-72611904D01*
X161495238Y-72707142D01*
X161447619Y-72754761D01*
X161352380Y-72802380D01*
X161257142Y-72802380D01*
X161161904Y-72754761D01*
X161114285Y-72707142D01*
X161066666Y-72611904D01*
X161019047Y-72421428D01*
X161019047Y-72183333D01*
X161066666Y-71992857D01*
X161114285Y-71897619D01*
X161161904Y-71850000D01*
X161257142Y-71802380D01*
X162161904Y-72802380D02*
X162066666Y-72754761D01*
X162019047Y-72707142D01*
X161971428Y-72611904D01*
X161971428Y-72326190D01*
X162019047Y-72230952D01*
X162066666Y-72183333D01*
X162161904Y-72135714D01*
X162304761Y-72135714D01*
X162400000Y-72183333D01*
X162447619Y-72230952D01*
X162495238Y-72326190D01*
X162495238Y-72611904D01*
X162447619Y-72707142D01*
X162400000Y-72754761D01*
X162304761Y-72802380D01*
X162161904Y-72802380D01*
X162923809Y-72802380D02*
X162923809Y-71802380D01*
X163352380Y-72802380D02*
X163352380Y-72278571D01*
X163304761Y-72183333D01*
X163209523Y-72135714D01*
X163066666Y-72135714D01*
X162971428Y-72183333D01*
X162923809Y-72230952D01*
X163828571Y-72802380D02*
X163828571Y-72135714D01*
X163828571Y-72230952D02*
X163876190Y-72183333D01*
X163971428Y-72135714D01*
X164114285Y-72135714D01*
X164209523Y-72183333D01*
X164257142Y-72278571D01*
X164257142Y-72802380D01*
X164257142Y-72278571D02*
X164304761Y-72183333D01*
X164400000Y-72135714D01*
X164542857Y-72135714D01*
X164638095Y-72183333D01*
X164685714Y-72278571D01*
X164685714Y-72802380D01*
%TO.C,ESP8266 ESP-01*%
X107428571Y-80476190D02*
X107428571Y-80142857D01*
X107952380Y-80000000D02*
X107952380Y-80476190D01*
X106952380Y-80476190D01*
X106952380Y-80000000D01*
X107904761Y-79619047D02*
X107952380Y-79476190D01*
X107952380Y-79238095D01*
X107904761Y-79142857D01*
X107857142Y-79095238D01*
X107761904Y-79047619D01*
X107666666Y-79047619D01*
X107571428Y-79095238D01*
X107523809Y-79142857D01*
X107476190Y-79238095D01*
X107428571Y-79428571D01*
X107380952Y-79523809D01*
X107333333Y-79571428D01*
X107238095Y-79619047D01*
X107142857Y-79619047D01*
X107047619Y-79571428D01*
X107000000Y-79523809D01*
X106952380Y-79428571D01*
X106952380Y-79190476D01*
X107000000Y-79047619D01*
X107952380Y-78619047D02*
X106952380Y-78619047D01*
X106952380Y-78238095D01*
X107000000Y-78142857D01*
X107047619Y-78095238D01*
X107142857Y-78047619D01*
X107285714Y-78047619D01*
X107380952Y-78095238D01*
X107428571Y-78142857D01*
X107476190Y-78238095D01*
X107476190Y-78619047D01*
X107380952Y-77476190D02*
X107333333Y-77571428D01*
X107285714Y-77619047D01*
X107190476Y-77666666D01*
X107142857Y-77666666D01*
X107047619Y-77619047D01*
X107000000Y-77571428D01*
X106952380Y-77476190D01*
X106952380Y-77285714D01*
X107000000Y-77190476D01*
X107047619Y-77142857D01*
X107142857Y-77095238D01*
X107190476Y-77095238D01*
X107285714Y-77142857D01*
X107333333Y-77190476D01*
X107380952Y-77285714D01*
X107380952Y-77476190D01*
X107428571Y-77571428D01*
X107476190Y-77619047D01*
X107571428Y-77666666D01*
X107761904Y-77666666D01*
X107857142Y-77619047D01*
X107904761Y-77571428D01*
X107952380Y-77476190D01*
X107952380Y-77285714D01*
X107904761Y-77190476D01*
X107857142Y-77142857D01*
X107761904Y-77095238D01*
X107571428Y-77095238D01*
X107476190Y-77142857D01*
X107428571Y-77190476D01*
X107380952Y-77285714D01*
X107047619Y-76714285D02*
X107000000Y-76666666D01*
X106952380Y-76571428D01*
X106952380Y-76333333D01*
X107000000Y-76238095D01*
X107047619Y-76190476D01*
X107142857Y-76142857D01*
X107238095Y-76142857D01*
X107380952Y-76190476D01*
X107952380Y-76761904D01*
X107952380Y-76142857D01*
X106952380Y-75285714D02*
X106952380Y-75476190D01*
X107000000Y-75571428D01*
X107047619Y-75619047D01*
X107190476Y-75714285D01*
X107380952Y-75761904D01*
X107761904Y-75761904D01*
X107857142Y-75714285D01*
X107904761Y-75666666D01*
X107952380Y-75571428D01*
X107952380Y-75380952D01*
X107904761Y-75285714D01*
X107857142Y-75238095D01*
X107761904Y-75190476D01*
X107523809Y-75190476D01*
X107428571Y-75238095D01*
X107380952Y-75285714D01*
X107333333Y-75380952D01*
X107333333Y-75571428D01*
X107380952Y-75666666D01*
X107428571Y-75714285D01*
X107523809Y-75761904D01*
X106952380Y-74333333D02*
X106952380Y-74523809D01*
X107000000Y-74619047D01*
X107047619Y-74666666D01*
X107190476Y-74761904D01*
X107380952Y-74809523D01*
X107761904Y-74809523D01*
X107857142Y-74761904D01*
X107904761Y-74714285D01*
X107952380Y-74619047D01*
X107952380Y-74428571D01*
X107904761Y-74333333D01*
X107857142Y-74285714D01*
X107761904Y-74238095D01*
X107523809Y-74238095D01*
X107428571Y-74285714D01*
X107380952Y-74333333D01*
X107333333Y-74428571D01*
X107333333Y-74619047D01*
X107380952Y-74714285D01*
X107428571Y-74761904D01*
X107523809Y-74809523D01*
X107428571Y-73047619D02*
X107428571Y-72714285D01*
X107952380Y-72571428D02*
X107952380Y-73047619D01*
X106952380Y-73047619D01*
X106952380Y-72571428D01*
X107904761Y-72190476D02*
X107952380Y-72047619D01*
X107952380Y-71809523D01*
X107904761Y-71714285D01*
X107857142Y-71666666D01*
X107761904Y-71619047D01*
X107666666Y-71619047D01*
X107571428Y-71666666D01*
X107523809Y-71714285D01*
X107476190Y-71809523D01*
X107428571Y-72000000D01*
X107380952Y-72095238D01*
X107333333Y-72142857D01*
X107238095Y-72190476D01*
X107142857Y-72190476D01*
X107047619Y-72142857D01*
X107000000Y-72095238D01*
X106952380Y-72000000D01*
X106952380Y-71761904D01*
X107000000Y-71619047D01*
X107952380Y-71190476D02*
X106952380Y-71190476D01*
X106952380Y-70809523D01*
X107000000Y-70714285D01*
X107047619Y-70666666D01*
X107142857Y-70619047D01*
X107285714Y-70619047D01*
X107380952Y-70666666D01*
X107428571Y-70714285D01*
X107476190Y-70809523D01*
X107476190Y-71190476D01*
X107571428Y-70190476D02*
X107571428Y-69428571D01*
X106952380Y-68761904D02*
X106952380Y-68666666D01*
X107000000Y-68571428D01*
X107047619Y-68523809D01*
X107142857Y-68476190D01*
X107333333Y-68428571D01*
X107571428Y-68428571D01*
X107761904Y-68476190D01*
X107857142Y-68523809D01*
X107904761Y-68571428D01*
X107952380Y-68666666D01*
X107952380Y-68761904D01*
X107904761Y-68857142D01*
X107857142Y-68904761D01*
X107761904Y-68952380D01*
X107571428Y-69000000D01*
X107333333Y-69000000D01*
X107142857Y-68952380D01*
X107047619Y-68904761D01*
X107000000Y-68857142D01*
X106952380Y-68761904D01*
X107952380Y-67476190D02*
X107952380Y-68047619D01*
X107952380Y-67761904D02*
X106952380Y-67761904D01*
X107095238Y-67857142D01*
X107190476Y-67952380D01*
X107238095Y-68047619D01*
%TO.C,10ohm*%
X160638095Y-76852380D02*
X160066666Y-76852380D01*
X160352380Y-76852380D02*
X160352380Y-75852380D01*
X160257142Y-75995238D01*
X160161904Y-76090476D01*
X160066666Y-76138095D01*
X161257142Y-75852380D02*
X161352380Y-75852380D01*
X161447619Y-75900000D01*
X161495238Y-75947619D01*
X161542857Y-76042857D01*
X161590476Y-76233333D01*
X161590476Y-76471428D01*
X161542857Y-76661904D01*
X161495238Y-76757142D01*
X161447619Y-76804761D01*
X161352380Y-76852380D01*
X161257142Y-76852380D01*
X161161904Y-76804761D01*
X161114285Y-76757142D01*
X161066666Y-76661904D01*
X161019047Y-76471428D01*
X161019047Y-76233333D01*
X161066666Y-76042857D01*
X161114285Y-75947619D01*
X161161904Y-75900000D01*
X161257142Y-75852380D01*
X162161904Y-76852380D02*
X162066666Y-76804761D01*
X162019047Y-76757142D01*
X161971428Y-76661904D01*
X161971428Y-76376190D01*
X162019047Y-76280952D01*
X162066666Y-76233333D01*
X162161904Y-76185714D01*
X162304761Y-76185714D01*
X162400000Y-76233333D01*
X162447619Y-76280952D01*
X162495238Y-76376190D01*
X162495238Y-76661904D01*
X162447619Y-76757142D01*
X162400000Y-76804761D01*
X162304761Y-76852380D01*
X162161904Y-76852380D01*
X162923809Y-76852380D02*
X162923809Y-75852380D01*
X163352380Y-76852380D02*
X163352380Y-76328571D01*
X163304761Y-76233333D01*
X163209523Y-76185714D01*
X163066666Y-76185714D01*
X162971428Y-76233333D01*
X162923809Y-76280952D01*
X163828571Y-76852380D02*
X163828571Y-76185714D01*
X163828571Y-76280952D02*
X163876190Y-76233333D01*
X163971428Y-76185714D01*
X164114285Y-76185714D01*
X164209523Y-76233333D01*
X164257142Y-76328571D01*
X164257142Y-76852380D01*
X164257142Y-76328571D02*
X164304761Y-76233333D01*
X164400000Y-76185714D01*
X164542857Y-76185714D01*
X164638095Y-76233333D01*
X164685714Y-76328571D01*
X164685714Y-76852380D01*
D11*
%TO.C,PWR*%
X167460000Y-86950000D02*
X163100000Y-86950000D01*
X165200000Y-87750000D02*
X167460000Y-87750000D01*
X165200000Y-87750000D02*
X163600000Y-87750000D01*
X161240000Y-88310000D02*
X160025000Y-88310000D01*
X167460000Y-83390000D02*
X159640000Y-83390000D01*
X159640000Y-89510000D02*
X167460000Y-89510000D01*
X165200000Y-85150000D02*
X163600000Y-85150000D01*
X161240000Y-83390000D02*
X161240000Y-84310000D01*
X163100000Y-85950000D02*
X167460000Y-85950000D01*
X161240000Y-84310000D02*
X161240000Y-84590000D01*
X167460000Y-89510000D02*
X167460000Y-83390000D01*
X165200000Y-88750000D02*
X165200000Y-87750000D01*
X165200000Y-88250000D02*
X167460000Y-88250000D01*
X159640000Y-88590000D02*
X159640000Y-89510000D01*
X163600000Y-87750000D02*
X163600000Y-88750000D01*
X161240000Y-88590000D02*
X159640000Y-88590000D01*
X161240000Y-88310000D02*
X161240000Y-88590000D01*
X165200000Y-84150000D02*
X165200000Y-85150000D01*
X163600000Y-88750000D02*
X165200000Y-88750000D01*
X163100000Y-86950000D02*
X163100000Y-85950000D01*
X161240000Y-89510000D02*
X161240000Y-88590000D01*
X163600000Y-84150000D02*
X165200000Y-84150000D01*
X163600000Y-85150000D02*
X163600000Y-84150000D01*
X159640000Y-83390000D02*
X159640000Y-84310000D01*
X159640000Y-84310000D02*
X161240000Y-84310000D01*
%TO.C,Btn1*%
X131560000Y-63350000D02*
X131560000Y-66490000D01*
X131560000Y-71070000D02*
X119260000Y-71070000D01*
X131560000Y-58770000D02*
X131560000Y-61490000D01*
X131560000Y-68350000D02*
X131560000Y-71070000D01*
X119260000Y-66490000D02*
X119260000Y-63350000D01*
X119260000Y-61490000D02*
X119260000Y-58770000D01*
X119260000Y-58770000D02*
X131560000Y-58770000D01*
X119260000Y-71070000D02*
X119260000Y-68350000D01*
X130089050Y-64960000D02*
G75*
G03*
X130089050Y-64960000I-4579050J0D01*
G01*
%TO.C,220ohm*%
X106200000Y-61910000D02*
X106200000Y-55370000D01*
X108940000Y-55370000D02*
X108610000Y-55370000D01*
X106530000Y-61910000D02*
X106200000Y-61910000D01*
X108940000Y-61910000D02*
X108940000Y-55370000D01*
X106200000Y-55370000D02*
X106530000Y-55370000D01*
X108610000Y-61910000D02*
X108940000Y-61910000D01*
%TO.C,G\u002A\u002A\u002A*%
G36*
X133316815Y-90703283D02*
G01*
X133326452Y-90738060D01*
X133319274Y-90789047D01*
X133311776Y-90833302D01*
X133296038Y-90929441D01*
X133272871Y-91072403D01*
X133243089Y-91257126D01*
X133207505Y-91478548D01*
X133166933Y-91731607D01*
X133122185Y-92011242D01*
X133074074Y-92312390D01*
X133023414Y-92629990D01*
X133007866Y-92727561D01*
X132948039Y-93102097D01*
X132896279Y-93423568D01*
X132851859Y-93695893D01*
X132814052Y-93922994D01*
X132782129Y-94108792D01*
X132755363Y-94257207D01*
X132733026Y-94372161D01*
X132714390Y-94457575D01*
X132698728Y-94517369D01*
X132685313Y-94555464D01*
X132673415Y-94575781D01*
X132663678Y-94582059D01*
X132621331Y-94582905D01*
X132613393Y-94575936D01*
X132617816Y-94545501D01*
X132630588Y-94462846D01*
X132650961Y-94332689D01*
X132678191Y-94159749D01*
X132711531Y-93948746D01*
X132750234Y-93704398D01*
X132793555Y-93431425D01*
X132840748Y-93134546D01*
X132891066Y-92818480D01*
X132916118Y-92661292D01*
X132967722Y-92337110D01*
X133016554Y-92029397D01*
X133061863Y-91742932D01*
X133102902Y-91482492D01*
X133138922Y-91252854D01*
X133169175Y-91058795D01*
X133192912Y-90905094D01*
X133209385Y-90796526D01*
X133217846Y-90737871D01*
X133218842Y-90728900D01*
X133243000Y-90701860D01*
X133277810Y-90695346D01*
X133316815Y-90703283D01*
G37*
G36*
X138540503Y-91156878D02*
G01*
X138694176Y-91158013D01*
X138804492Y-91160683D01*
X138878603Y-91165522D01*
X138923663Y-91173168D01*
X138946824Y-91184256D01*
X138955237Y-91199422D01*
X138956186Y-91211754D01*
X138951806Y-91249487D01*
X138939453Y-91336616D01*
X138920308Y-91465611D01*
X138895554Y-91628937D01*
X138866372Y-91819061D01*
X138833943Y-92028452D01*
X138799448Y-92249575D01*
X138764070Y-92474897D01*
X138728989Y-92696887D01*
X138695388Y-92908010D01*
X138664447Y-93100735D01*
X138637348Y-93267527D01*
X138615272Y-93400854D01*
X138599402Y-93493183D01*
X138592905Y-93527980D01*
X138586223Y-93573058D01*
X138598235Y-93596670D01*
X138641616Y-93605758D01*
X138729040Y-93607264D01*
X138737663Y-93607265D01*
X138825643Y-93606092D01*
X138884853Y-93603064D01*
X138900392Y-93600057D01*
X138905208Y-93571002D01*
X138918209Y-93490902D01*
X138938448Y-93365650D01*
X138964973Y-93201133D01*
X138996836Y-93003243D01*
X139033088Y-92777869D01*
X139072780Y-92530901D01*
X139096703Y-92381953D01*
X139291147Y-91171056D01*
X139916516Y-91163286D01*
X140121669Y-91160961D01*
X140276292Y-91160128D01*
X140387507Y-91161324D01*
X140462439Y-91165086D01*
X140508211Y-91171950D01*
X140531946Y-91182455D01*
X140540767Y-91197135D01*
X140541884Y-91210417D01*
X140537508Y-91247079D01*
X140525159Y-91333245D01*
X140505999Y-91461485D01*
X140481195Y-91624369D01*
X140451912Y-91814467D01*
X140419313Y-92024350D01*
X140384563Y-92246589D01*
X140348829Y-92473753D01*
X140313273Y-92698414D01*
X140279061Y-92913141D01*
X140247359Y-93110505D01*
X140219330Y-93283077D01*
X140196139Y-93423427D01*
X140180801Y-93513564D01*
X140164470Y-93607265D01*
X140323039Y-93607265D01*
X140414072Y-93605587D01*
X140463246Y-93594950D01*
X140486361Y-93566946D01*
X140499143Y-93513564D01*
X140507493Y-93464845D01*
X140523814Y-93365940D01*
X140547014Y-93223606D01*
X140575997Y-93044602D01*
X140609672Y-92835686D01*
X140646943Y-92603616D01*
X140686718Y-92355151D01*
X140696255Y-92295460D01*
X140875832Y-91171056D01*
X141501707Y-91163286D01*
X141708081Y-91161079D01*
X141863801Y-91160563D01*
X141975860Y-91162181D01*
X142051253Y-91166374D01*
X142096974Y-91173586D01*
X142120016Y-91184259D01*
X142127373Y-91198834D01*
X142127582Y-91202866D01*
X142123213Y-91238802D01*
X142110810Y-91324947D01*
X142091429Y-91454572D01*
X142066124Y-91620945D01*
X142035952Y-91817335D01*
X142001967Y-92037013D01*
X141965224Y-92273247D01*
X141926780Y-92519306D01*
X141887689Y-92768459D01*
X141849007Y-93013976D01*
X141811790Y-93249125D01*
X141777091Y-93467177D01*
X141745968Y-93661400D01*
X141719474Y-93825063D01*
X141698666Y-93951436D01*
X141684599Y-94033788D01*
X141679391Y-94061351D01*
X141665189Y-94126221D01*
X137237907Y-94126221D01*
X137475167Y-92648638D01*
X137520838Y-92364314D01*
X137563694Y-92097702D01*
X137602879Y-91854126D01*
X137637534Y-91638911D01*
X137666800Y-91457381D01*
X137689821Y-91314861D01*
X137705737Y-91216674D01*
X137713691Y-91168147D01*
X137714442Y-91163848D01*
X137742497Y-91161731D01*
X137819853Y-91159859D01*
X137938150Y-91158330D01*
X138089026Y-91157242D01*
X138264121Y-91156689D01*
X138336322Y-91156640D01*
X138540503Y-91156878D01*
G37*
G36*
X133941358Y-91854126D02*
G01*
X133976013Y-91638911D01*
X134005279Y-91457381D01*
X134028300Y-91314861D01*
X134044216Y-91216674D01*
X134052170Y-91168147D01*
X134052921Y-91163848D01*
X134081351Y-91161726D01*
X134161298Y-91159964D01*
X134286686Y-91158550D01*
X134451438Y-91157469D01*
X134649479Y-91156708D01*
X134874732Y-91156253D01*
X135121121Y-91156089D01*
X135382569Y-91156204D01*
X135653001Y-91156582D01*
X135926340Y-91157211D01*
X136196509Y-91158076D01*
X136457433Y-91159163D01*
X136703034Y-91160459D01*
X136927238Y-91161949D01*
X137123967Y-91163620D01*
X137287145Y-91165458D01*
X137410697Y-91167449D01*
X137488544Y-91169579D01*
X137514642Y-91171760D01*
X137510237Y-91202341D01*
X137497591Y-91284442D01*
X137477561Y-91412641D01*
X137450999Y-91581519D01*
X137418762Y-91785654D01*
X137381705Y-92019626D01*
X137340681Y-92278015D01*
X137296547Y-92555400D01*
X137283995Y-92634186D01*
X137239132Y-92916126D01*
X137197149Y-93180796D01*
X137158902Y-93422740D01*
X137125248Y-93636501D01*
X137097041Y-93816623D01*
X137075140Y-93957650D01*
X137060400Y-94054125D01*
X137053677Y-94100592D01*
X137053348Y-94103857D01*
X137025888Y-94110347D01*
X136948989Y-94116097D01*
X136830870Y-94120818D01*
X136679754Y-94124220D01*
X136503859Y-94126015D01*
X136417762Y-94126221D01*
X135782177Y-94126221D01*
X135798341Y-94032520D01*
X135815250Y-93931659D01*
X135836351Y-93801571D01*
X135859931Y-93653320D01*
X135884278Y-93497970D01*
X135907679Y-93346583D01*
X135928421Y-93210224D01*
X135944791Y-93099956D01*
X135955077Y-93026841D01*
X135957775Y-93002646D01*
X135932865Y-92989920D01*
X135856825Y-92981745D01*
X135727691Y-92978026D01*
X135543499Y-92978665D01*
X135489493Y-92979479D01*
X135021212Y-92987401D01*
X134929292Y-93549603D01*
X134901058Y-93722045D01*
X134876132Y-93873818D01*
X134855953Y-93996205D01*
X134841958Y-94080489D01*
X134835585Y-94117952D01*
X134835371Y-94119013D01*
X134807315Y-94121116D01*
X134729900Y-94122978D01*
X134611428Y-94124503D01*
X134460201Y-94125596D01*
X134284521Y-94126163D01*
X134204878Y-94126221D01*
X133576386Y-94126221D01*
X133813646Y-92648638D01*
X133859317Y-92364314D01*
X133873178Y-92278084D01*
X135130701Y-92278084D01*
X135144152Y-92291497D01*
X135180193Y-92300517D01*
X135246657Y-92306002D01*
X135351373Y-92308810D01*
X135502174Y-92309797D01*
X135592841Y-92309875D01*
X136067889Y-92309875D01*
X136101466Y-92100852D01*
X136119954Y-91990778D01*
X136136890Y-91898545D01*
X136148774Y-91843146D01*
X136149260Y-91841374D01*
X136150569Y-91822711D01*
X136137119Y-91809298D01*
X136101077Y-91800278D01*
X136034614Y-91794793D01*
X135929897Y-91791985D01*
X135779097Y-91790999D01*
X135688429Y-91790920D01*
X135213382Y-91790920D01*
X135179804Y-91999944D01*
X135161316Y-92110017D01*
X135144381Y-92202250D01*
X135132496Y-92257649D01*
X135132010Y-92259421D01*
X135130701Y-92278084D01*
X133873178Y-92278084D01*
X133902173Y-92097702D01*
X133941358Y-91854126D01*
G37*
G36*
X133149128Y-90738593D02*
G01*
X133142627Y-90776390D01*
X133127981Y-90866259D01*
X133105968Y-91003303D01*
X133077365Y-91182626D01*
X133042950Y-91399332D01*
X133003498Y-91648523D01*
X132959788Y-91925306D01*
X132912595Y-92224782D01*
X132862698Y-92542056D01*
X132842563Y-92670261D01*
X132791679Y-92992262D01*
X132742781Y-93297635D01*
X132696679Y-93581578D01*
X132654182Y-93839292D01*
X132616102Y-94065975D01*
X132583247Y-94256827D01*
X132556428Y-94407046D01*
X132536454Y-94511832D01*
X132524137Y-94566384D01*
X132521504Y-94573099D01*
X132504563Y-94581119D01*
X132509217Y-94558684D01*
X132516088Y-94523386D01*
X132531050Y-94435982D01*
X132553318Y-94301339D01*
X132582111Y-94124324D01*
X132616646Y-93909807D01*
X132656140Y-93662654D01*
X132699811Y-93387735D01*
X132746876Y-93089916D01*
X132796554Y-92774067D01*
X132815089Y-92655846D01*
X132865764Y-92334134D01*
X132914473Y-92028314D01*
X132960398Y-91743303D01*
X133002721Y-91484023D01*
X133040624Y-91255391D01*
X133073289Y-91062327D01*
X133099898Y-90909750D01*
X133119633Y-90802578D01*
X133131675Y-90745732D01*
X133133941Y-90738593D01*
X133161484Y-90680931D01*
X133149128Y-90738593D01*
G37*
G36*
X148461757Y-91855077D02*
G01*
X148453382Y-91900116D01*
X148437447Y-91994037D01*
X148415273Y-92128746D01*
X148388179Y-92296152D01*
X148357483Y-92488160D01*
X148324505Y-92696679D01*
X148322992Y-92706300D01*
X148199452Y-93491941D01*
X147240469Y-93491941D01*
X147337676Y-92879285D01*
X147369158Y-92680703D01*
X147400070Y-92485431D01*
X147428374Y-92306365D01*
X147452031Y-92156402D01*
X147469003Y-92048437D01*
X147470952Y-92035982D01*
X147507023Y-91805335D01*
X147992003Y-91797415D01*
X148476983Y-91789496D01*
X148461757Y-91855077D01*
G37*
G36*
X160144904Y-90699250D02*
G01*
X160166803Y-90700750D01*
X160279222Y-90709762D01*
X159969509Y-92641430D01*
X159917211Y-92967579D01*
X159867644Y-93276628D01*
X159821556Y-93563927D01*
X159779693Y-93824826D01*
X159742800Y-94054677D01*
X159711625Y-94248828D01*
X159686914Y-94402630D01*
X159669413Y-94511434D01*
X159659868Y-94570589D01*
X159658275Y-94580307D01*
X159631638Y-94584828D01*
X159566982Y-94587336D01*
X159541430Y-94587514D01*
X159461573Y-94580515D01*
X159428432Y-94557113D01*
X159426106Y-94543773D01*
X159430538Y-94505834D01*
X159443223Y-94417514D01*
X159463250Y-94284506D01*
X159489705Y-94112507D01*
X159521674Y-93907210D01*
X159558244Y-93674311D01*
X159598502Y-93419504D01*
X159641536Y-93148486D01*
X159686431Y-92866951D01*
X159732275Y-92580593D01*
X159778154Y-92295108D01*
X159823155Y-92016191D01*
X159866365Y-91749537D01*
X159906871Y-91500840D01*
X159943759Y-91275797D01*
X159976117Y-91080101D01*
X160003030Y-90919449D01*
X160023587Y-90799534D01*
X160036873Y-90726052D01*
X160041765Y-90704356D01*
X160075863Y-90698390D01*
X160144904Y-90699250D01*
G37*
G36*
X160687235Y-90705196D02*
G01*
X160694665Y-90718001D01*
X160690230Y-90750361D01*
X160677424Y-90834898D01*
X160656996Y-90966853D01*
X160629697Y-91141466D01*
X160596274Y-91353980D01*
X160557478Y-91599634D01*
X160514058Y-91873669D01*
X160466762Y-92171327D01*
X160416341Y-92487849D01*
X160391941Y-92640746D01*
X160340321Y-92964398D01*
X160291476Y-93271373D01*
X160246156Y-93556915D01*
X160205110Y-93816270D01*
X160169086Y-94044684D01*
X160138834Y-94237403D01*
X160115103Y-94389672D01*
X160098642Y-94496736D01*
X160090201Y-94553843D01*
X160089216Y-94562062D01*
X160065071Y-94582838D01*
X160032275Y-94587514D01*
X159992755Y-94577146D01*
X159986170Y-94535310D01*
X159990458Y-94508230D01*
X159997517Y-94466588D01*
X160012821Y-94372988D01*
X160035568Y-94232418D01*
X160064959Y-94049867D01*
X160100194Y-93830325D01*
X160140471Y-93578780D01*
X160184991Y-93300222D01*
X160232954Y-92999640D01*
X160283558Y-92682022D01*
X160301484Y-92569399D01*
X160361749Y-92191764D01*
X160413970Y-91867280D01*
X160458853Y-91592105D01*
X160497109Y-91362397D01*
X160529444Y-91174313D01*
X160556567Y-91024011D01*
X160579187Y-90907649D01*
X160598011Y-90821384D01*
X160613749Y-90761375D01*
X160627109Y-90723778D01*
X160638799Y-90704752D01*
X160646025Y-90700486D01*
X160687235Y-90705196D01*
G37*
G36*
X160495956Y-90700444D02*
G01*
X160521674Y-90712724D01*
X160521679Y-90712918D01*
X160517250Y-90743660D01*
X160504462Y-90826612D01*
X160484062Y-90957046D01*
X160456797Y-91130236D01*
X160423416Y-91341453D01*
X160384667Y-91585970D01*
X160341296Y-91859058D01*
X160294052Y-92155992D01*
X160243683Y-92472042D01*
X160218955Y-92627015D01*
X160167325Y-92950940D01*
X160118471Y-93258355D01*
X160073144Y-93544483D01*
X160032093Y-93804549D01*
X159996067Y-94033780D01*
X159965816Y-94227399D01*
X159942089Y-94380631D01*
X159925637Y-94488702D01*
X159917208Y-94546836D01*
X159916231Y-94555527D01*
X159891193Y-94577981D01*
X159830859Y-94587512D01*
X159829739Y-94587514D01*
X159763158Y-94575546D01*
X159743246Y-94547647D01*
X159747688Y-94513026D01*
X159760512Y-94426274D01*
X159780968Y-94292192D01*
X159808305Y-94115582D01*
X159841771Y-93901246D01*
X159880617Y-93653985D01*
X159924090Y-93378602D01*
X159971441Y-93079899D01*
X160021917Y-92762677D01*
X160045970Y-92611915D01*
X160097547Y-92288757D01*
X160146353Y-91982661D01*
X160191642Y-91698331D01*
X160232667Y-91440473D01*
X160268681Y-91213790D01*
X160298936Y-91022989D01*
X160322685Y-90872774D01*
X160339181Y-90767849D01*
X160347677Y-90712919D01*
X160348694Y-90705699D01*
X160373803Y-90698424D01*
X160434279Y-90695347D01*
X160435187Y-90695346D01*
X160495956Y-90700444D01*
G37*
G36*
X142133777Y-92364314D02*
G01*
X142147638Y-92278084D01*
X143405162Y-92278084D01*
X143418613Y-92291497D01*
X143454654Y-92300517D01*
X143521118Y-92306002D01*
X143625834Y-92308810D01*
X143776634Y-92309797D01*
X143867302Y-92309875D01*
X144342349Y-92309875D01*
X144375927Y-92100852D01*
X144394415Y-91990778D01*
X144411350Y-91898545D01*
X144423235Y-91843146D01*
X144423721Y-91841374D01*
X144425030Y-91822711D01*
X144411580Y-91809298D01*
X144375538Y-91800278D01*
X144309075Y-91794793D01*
X144204358Y-91791985D01*
X144053558Y-91790999D01*
X143962890Y-91790920D01*
X143487843Y-91790920D01*
X143454265Y-91999944D01*
X143435777Y-92110017D01*
X143418842Y-92202250D01*
X143406957Y-92257649D01*
X143406471Y-92259421D01*
X143405162Y-92278084D01*
X142147638Y-92278084D01*
X142176634Y-92097702D01*
X142215819Y-91854126D01*
X142250474Y-91638911D01*
X142279740Y-91457381D01*
X142302761Y-91314861D01*
X142318677Y-91216674D01*
X142326631Y-91168147D01*
X142327382Y-91163848D01*
X142355751Y-91162558D01*
X142436796Y-91161342D01*
X142565530Y-91160220D01*
X142736967Y-91159214D01*
X142946121Y-91158344D01*
X143188005Y-91157631D01*
X143457634Y-91157096D01*
X143750021Y-91156759D01*
X144060180Y-91156640D01*
X145795520Y-91156640D01*
X145778949Y-91250341D01*
X145769026Y-91309664D01*
X145752098Y-91414272D01*
X145730036Y-91552476D01*
X145704707Y-91712585D01*
X145685607Y-91834166D01*
X145608836Y-92324291D01*
X145481693Y-92488964D01*
X145354549Y-92653637D01*
X145507455Y-92955381D01*
X145320751Y-94126221D01*
X141850847Y-94126221D01*
X141970207Y-93382883D01*
X143228560Y-93382883D01*
X143231909Y-93437255D01*
X143258178Y-93469994D01*
X143314625Y-93486107D01*
X143408506Y-93490599D01*
X143547078Y-93488477D01*
X143691029Y-93485448D01*
X144158904Y-93477526D01*
X144193798Y-93275710D01*
X144214517Y-93163054D01*
X144226830Y-93082043D01*
X144223481Y-93027672D01*
X144197212Y-92994933D01*
X144140766Y-92978820D01*
X144046885Y-92974328D01*
X143908313Y-92976450D01*
X143764361Y-92979479D01*
X143296487Y-92987401D01*
X143261593Y-93189217D01*
X143240874Y-93301873D01*
X143228560Y-93382883D01*
X141970207Y-93382883D01*
X142088107Y-92648638D01*
X142133777Y-92364314D01*
G37*
G36*
X133140594Y-93907011D02*
G01*
X133176754Y-93674572D01*
X133216502Y-93420204D01*
X133258918Y-93149740D01*
X133303082Y-92869016D01*
X133348072Y-92583866D01*
X133392967Y-92300125D01*
X133436847Y-92023627D01*
X133478791Y-91760206D01*
X133517877Y-91515698D01*
X133553186Y-91295936D01*
X133583797Y-91106755D01*
X133608787Y-90953991D01*
X133627238Y-90843477D01*
X133638227Y-90781048D01*
X133639493Y-90774631D01*
X133655886Y-90695346D01*
X159941437Y-90695346D01*
X159923808Y-90803462D01*
X159916268Y-90850352D01*
X159900479Y-90949052D01*
X159877260Y-91094425D01*
X159847430Y-91281336D01*
X159811808Y-91504651D01*
X159771213Y-91759235D01*
X159726465Y-92039951D01*
X159678383Y-92341666D01*
X159627785Y-92659243D01*
X159614547Y-92742339D01*
X159322915Y-94573099D01*
X146184386Y-94580338D01*
X145145971Y-94580904D01*
X144163663Y-94581423D01*
X143235906Y-94581890D01*
X142361147Y-94582299D01*
X141537829Y-94582645D01*
X140764399Y-94582923D01*
X140039300Y-94583128D01*
X139360978Y-94583255D01*
X138727878Y-94583297D01*
X138138445Y-94583251D01*
X137591124Y-94583110D01*
X137084360Y-94582870D01*
X136616599Y-94582525D01*
X136186284Y-94582070D01*
X135791862Y-94581499D01*
X135431776Y-94580809D01*
X135104473Y-94579992D01*
X134808398Y-94579045D01*
X134541994Y-94577961D01*
X134303708Y-94576736D01*
X134091984Y-94575364D01*
X133905268Y-94573841D01*
X133742004Y-94572160D01*
X133600637Y-94570317D01*
X133479613Y-94568306D01*
X133377376Y-94566122D01*
X133292372Y-94563760D01*
X133223045Y-94561215D01*
X133167841Y-94558481D01*
X133125205Y-94555553D01*
X133093581Y-94552426D01*
X133071415Y-94549095D01*
X133057152Y-94545554D01*
X133049236Y-94541798D01*
X133046113Y-94537823D01*
X133045857Y-94536050D01*
X133050260Y-94500778D01*
X133062856Y-94414403D01*
X133082725Y-94282761D01*
X133085077Y-94267414D01*
X133334165Y-94267414D01*
X133351921Y-94271355D01*
X133406077Y-94275002D01*
X133497970Y-94278363D01*
X133628935Y-94281444D01*
X133800308Y-94284252D01*
X134013424Y-94286794D01*
X134269618Y-94289078D01*
X134570226Y-94291109D01*
X134916584Y-94292896D01*
X135310027Y-94294444D01*
X135751890Y-94295762D01*
X136243509Y-94296855D01*
X136786220Y-94297731D01*
X137381358Y-94298398D01*
X138030259Y-94298861D01*
X138734257Y-94299128D01*
X139431346Y-94299206D01*
X145528526Y-94299206D01*
X145542724Y-94234336D01*
X145550973Y-94188860D01*
X145566868Y-94094047D01*
X145568049Y-94086826D01*
X145904426Y-94086826D01*
X145912239Y-94095210D01*
X145938325Y-94102360D01*
X145986657Y-94108366D01*
X146061207Y-94113320D01*
X146165947Y-94117314D01*
X146304849Y-94120438D01*
X146481885Y-94122785D01*
X146701027Y-94124445D01*
X146966248Y-94125510D01*
X147281519Y-94126071D01*
X147617573Y-94126221D01*
X149330719Y-94126221D01*
X149347275Y-94046936D01*
X149356678Y-93995113D01*
X149373521Y-93895176D01*
X149396739Y-93753859D01*
X149425269Y-93577898D01*
X149458049Y-93374028D01*
X149494015Y-93148983D01*
X149527373Y-92939244D01*
X149875737Y-92939244D01*
X149877887Y-92958175D01*
X149909093Y-92961519D01*
X149991526Y-92964600D01*
X150118755Y-92967329D01*
X150284343Y-92969619D01*
X150481859Y-92971383D01*
X150704868Y-92972533D01*
X150946937Y-92972982D01*
X150969050Y-92972986D01*
X151248754Y-92973199D01*
X151476085Y-92973985D01*
X151656328Y-92975564D01*
X151794769Y-92978155D01*
X151896696Y-92981980D01*
X151967395Y-92987257D01*
X152012153Y-92994208D01*
X152036255Y-93003051D01*
X152044989Y-93014007D01*
X152045403Y-93017776D01*
X152041111Y-93057688D01*
X152029394Y-93143156D01*
X152011989Y-93262808D01*
X151990635Y-93405272D01*
X151967070Y-93559174D01*
X151943030Y-93713143D01*
X151920253Y-93855806D01*
X151900478Y-93975790D01*
X151888144Y-94046936D01*
X151873859Y-94126221D01*
X153107563Y-94126221D01*
X153124120Y-94046936D01*
X153133563Y-93994917D01*
X153150439Y-93894801D01*
X153173686Y-93753323D01*
X153202240Y-93577220D01*
X153235038Y-93373225D01*
X153271017Y-93148076D01*
X153309113Y-92908508D01*
X153348265Y-92661257D01*
X153387408Y-92413057D01*
X153425479Y-92170645D01*
X153461416Y-91940757D01*
X153484990Y-91789089D01*
X153832917Y-91789089D01*
X153860781Y-91805003D01*
X153940928Y-91815403D01*
X154068185Y-91819676D01*
X154090693Y-91819751D01*
X154206417Y-91822012D01*
X154298265Y-91828061D01*
X154352482Y-91836798D01*
X154360974Y-91841374D01*
X154358743Y-91872290D01*
X154348540Y-91952653D01*
X154331515Y-92074976D01*
X154308815Y-92231769D01*
X154281590Y-92415545D01*
X154250987Y-92618815D01*
X154218157Y-92834090D01*
X154184246Y-93053882D01*
X154150405Y-93270703D01*
X154117781Y-93477064D01*
X154087524Y-93665477D01*
X154060781Y-93828453D01*
X154038701Y-93958505D01*
X154022668Y-94046936D01*
X154007344Y-94126221D01*
X155261846Y-94126221D01*
X155267518Y-94090409D01*
X155620301Y-94090409D01*
X155631002Y-94098183D01*
X155665482Y-94104717D01*
X155727395Y-94110072D01*
X155820395Y-94114309D01*
X155948136Y-94117489D01*
X156114272Y-94119674D01*
X156322457Y-94120925D01*
X156576345Y-94121302D01*
X156879591Y-94120868D01*
X157235849Y-94119683D01*
X157342196Y-94119240D01*
X159063962Y-94111805D01*
X159096843Y-93909989D01*
X159116308Y-93789645D01*
X159134516Y-93675614D01*
X159146364Y-93600057D01*
X159163003Y-93491941D01*
X156956854Y-93491941D01*
X156993471Y-93268502D01*
X157011081Y-93157805D01*
X157024498Y-93067355D01*
X157031275Y-93013809D01*
X157031616Y-93009024D01*
X157043906Y-92999459D01*
X157082814Y-92991624D01*
X157152732Y-92985378D01*
X157258051Y-92980578D01*
X157403162Y-92977081D01*
X157592456Y-92974745D01*
X157830324Y-92973428D01*
X158121157Y-92972987D01*
X158143132Y-92972986D01*
X158389729Y-92972390D01*
X158617292Y-92970691D01*
X158819599Y-92968023D01*
X158990431Y-92964519D01*
X159123567Y-92960313D01*
X159212785Y-92955537D01*
X159251866Y-92950325D01*
X159253121Y-92949191D01*
X159257511Y-92914170D01*
X159269758Y-92830930D01*
X159288483Y-92708168D01*
X159312301Y-92554580D01*
X159339833Y-92378864D01*
X159369696Y-92189716D01*
X159400508Y-91995834D01*
X159430887Y-91805915D01*
X159459453Y-91628656D01*
X159484822Y-91472753D01*
X159505614Y-91346905D01*
X159520446Y-91259807D01*
X159527610Y-91221510D01*
X159542528Y-91156640D01*
X156086306Y-91156640D01*
X156069873Y-91235925D01*
X156060088Y-91289411D01*
X156044357Y-91382194D01*
X156024711Y-91501540D01*
X156003186Y-91634717D01*
X155981815Y-91768993D01*
X155962631Y-91891634D01*
X155947667Y-91989908D01*
X155938958Y-92051081D01*
X155937571Y-92064336D01*
X155965013Y-92068712D01*
X156041788Y-92072579D01*
X156159569Y-92075737D01*
X156310026Y-92077987D01*
X156484832Y-92079128D01*
X156556885Y-92079228D01*
X156763736Y-92079571D01*
X156920196Y-92079109D01*
X157033520Y-92075610D01*
X157110963Y-92066841D01*
X157159777Y-92050568D01*
X157187217Y-92024559D01*
X157200537Y-91986581D01*
X157206990Y-91934400D01*
X157212473Y-91877412D01*
X157220544Y-91805335D01*
X157705908Y-91797419D01*
X158191271Y-91789503D01*
X158175117Y-91869496D01*
X158161965Y-91939562D01*
X158143713Y-92042805D01*
X158126465Y-92144098D01*
X158093967Y-92338706D01*
X155891302Y-92338706D01*
X155755737Y-93196425D01*
X155721695Y-93412995D01*
X155690794Y-93611881D01*
X155664144Y-93785741D01*
X155642859Y-93927233D01*
X155628050Y-94029017D01*
X155620830Y-94083751D01*
X155620301Y-94090409D01*
X155267518Y-94090409D01*
X155489023Y-92691885D01*
X155533762Y-92410046D01*
X155576095Y-92144572D01*
X155615112Y-91901091D01*
X155649902Y-91685231D01*
X155679554Y-91502619D01*
X155703157Y-91358882D01*
X155719800Y-91259648D01*
X155728573Y-91210545D01*
X155729340Y-91207095D01*
X155729934Y-91193040D01*
X155719728Y-91181861D01*
X155692929Y-91173229D01*
X155643743Y-91166817D01*
X155566377Y-91162300D01*
X155455037Y-91159351D01*
X155303931Y-91157642D01*
X155107264Y-91156848D01*
X154859243Y-91156641D01*
X154834562Y-91156640D01*
X153926644Y-91156640D01*
X153879780Y-91457534D01*
X153860396Y-91584755D01*
X153844919Y-91691594D01*
X153835238Y-91764679D01*
X153832917Y-91789089D01*
X153484990Y-91789089D01*
X153494154Y-91730128D01*
X153522632Y-91545493D01*
X153545785Y-91393589D01*
X153562552Y-91281151D01*
X153571868Y-91214915D01*
X153573439Y-91200208D01*
X153567606Y-91185337D01*
X153545466Y-91174372D01*
X153500059Y-91166894D01*
X153424425Y-91162483D01*
X153311605Y-91160719D01*
X153154638Y-91161184D01*
X152960783Y-91163275D01*
X152348127Y-91171056D01*
X152284589Y-91560273D01*
X152257684Y-91724613D01*
X152230753Y-91888300D01*
X152206838Y-92032895D01*
X152188980Y-92139960D01*
X152188283Y-92144098D01*
X152155516Y-92338706D01*
X151682412Y-92338706D01*
X151482691Y-92337024D01*
X151338728Y-92331898D01*
X151248714Y-92323208D01*
X151210841Y-92310832D01*
X151209307Y-92307185D01*
X151213745Y-92269908D01*
X151226087Y-92185244D01*
X151244874Y-92062703D01*
X151268649Y-91911794D01*
X151295800Y-91742983D01*
X151323065Y-91573688D01*
X151346801Y-91423686D01*
X151365553Y-91302379D01*
X151377868Y-91219171D01*
X151382292Y-91183471D01*
X151354559Y-91174887D01*
X151275732Y-91167629D01*
X151152368Y-91161983D01*
X150991027Y-91158235D01*
X150798266Y-91156669D01*
X150766654Y-91156640D01*
X150151015Y-91156640D01*
X150056469Y-91754881D01*
X150024300Y-91957541D01*
X149991475Y-92162756D01*
X149960378Y-92355737D01*
X149933393Y-92521695D01*
X149912902Y-92645841D01*
X149912500Y-92648243D01*
X149893357Y-92771887D01*
X149880635Y-92873080D01*
X149875737Y-92939244D01*
X149527373Y-92939244D01*
X149532104Y-92909498D01*
X149571253Y-92662308D01*
X149610398Y-92414149D01*
X149648476Y-92171755D01*
X149684425Y-91941861D01*
X149717179Y-91731202D01*
X149745678Y-91546513D01*
X149768856Y-91394528D01*
X149785652Y-91281984D01*
X149795001Y-91215614D01*
X149796594Y-91200781D01*
X149791671Y-91191506D01*
X149774106Y-91183608D01*
X149739709Y-91176980D01*
X149684288Y-91171514D01*
X149603652Y-91167102D01*
X149493610Y-91163635D01*
X149349970Y-91161006D01*
X149168541Y-91159107D01*
X148945131Y-91157829D01*
X148675550Y-91157066D01*
X148355606Y-91156708D01*
X148083448Y-91156640D01*
X146370302Y-91156640D01*
X146353823Y-91235925D01*
X146344775Y-91286172D01*
X146328264Y-91384684D01*
X146305347Y-91524743D01*
X146277083Y-91699632D01*
X146244533Y-91902632D01*
X146208753Y-92127027D01*
X146170804Y-92366098D01*
X146131745Y-92613127D01*
X146092634Y-92861396D01*
X146054530Y-93104189D01*
X146018493Y-93334786D01*
X145985580Y-93546471D01*
X145956852Y-93732525D01*
X145933367Y-93886230D01*
X145916184Y-94000869D01*
X145906362Y-94069725D01*
X145904426Y-94086826D01*
X145568049Y-94086826D01*
X145589414Y-93956218D01*
X145617614Y-93781692D01*
X145650473Y-93576789D01*
X145686995Y-93347828D01*
X145726184Y-93101129D01*
X145767043Y-92843012D01*
X145808578Y-92579796D01*
X145849791Y-92317801D01*
X145889688Y-92063347D01*
X145927271Y-91822753D01*
X145961546Y-91602338D01*
X145991515Y-91408423D01*
X146016184Y-91247327D01*
X146034556Y-91125369D01*
X146045636Y-91048870D01*
X146048581Y-91024518D01*
X146042602Y-91019775D01*
X146023217Y-91015404D01*
X145988251Y-91011391D01*
X145935534Y-91007720D01*
X145862890Y-91004378D01*
X145768146Y-91001350D01*
X145649131Y-90998620D01*
X145503669Y-90996176D01*
X145329589Y-90994001D01*
X145124717Y-90992081D01*
X144886879Y-90990403D01*
X144613903Y-90988951D01*
X144303615Y-90987710D01*
X143953843Y-90986667D01*
X143562412Y-90985806D01*
X143127151Y-90985113D01*
X142645885Y-90984574D01*
X142116441Y-90984174D01*
X141536646Y-90983898D01*
X140904328Y-90983731D01*
X140217312Y-90983660D01*
X139953142Y-90983655D01*
X133857703Y-90983655D01*
X133841534Y-91062940D01*
X133833122Y-91110396D01*
X133817064Y-91206818D01*
X133794358Y-91345905D01*
X133766001Y-91521356D01*
X133732991Y-91726870D01*
X133696325Y-91956148D01*
X133657002Y-92202887D01*
X133616018Y-92460788D01*
X133574371Y-92723550D01*
X133533059Y-92984871D01*
X133493080Y-93238452D01*
X133455431Y-93477991D01*
X133421110Y-93697188D01*
X133391114Y-93889741D01*
X133366441Y-94049351D01*
X133348088Y-94169716D01*
X133337054Y-94244536D01*
X133334165Y-94267414D01*
X133085077Y-94267414D01*
X133108944Y-94111685D01*
X133140594Y-93907011D01*
G37*
G36*
X133547621Y-90708181D02*
G01*
X133564812Y-90743367D01*
X133560415Y-90778154D01*
X133547836Y-90864057D01*
X133527995Y-90995248D01*
X133501809Y-91165905D01*
X133470198Y-91370202D01*
X133434079Y-91602314D01*
X133394373Y-91856416D01*
X133351998Y-92126684D01*
X133307872Y-92407294D01*
X133262914Y-92692419D01*
X133218043Y-92976237D01*
X133174177Y-93252921D01*
X133132236Y-93516647D01*
X133093138Y-93761590D01*
X133057802Y-93981926D01*
X133027146Y-94171829D01*
X133002090Y-94325476D01*
X132983551Y-94437040D01*
X132972449Y-94500699D01*
X132970988Y-94508230D01*
X132948457Y-94565689D01*
X132900011Y-94586098D01*
X132867220Y-94587514D01*
X132806965Y-94582068D01*
X132789072Y-94554865D01*
X132794678Y-94508936D01*
X132801712Y-94467447D01*
X132816990Y-94373985D01*
X132839714Y-94233524D01*
X132869086Y-94051039D01*
X132904309Y-93831506D01*
X132944584Y-93579898D01*
X132989114Y-93301192D01*
X133037101Y-93000361D01*
X133087747Y-92682381D01*
X133106765Y-92562852D01*
X133403832Y-90695346D01*
X133484322Y-90695346D01*
X133547621Y-90708181D01*
G37*
G36*
X160797653Y-90738593D02*
G01*
X160791088Y-90776388D01*
X160776355Y-90866251D01*
X160754234Y-91003285D01*
X160725506Y-91182596D01*
X160690949Y-91399288D01*
X160651345Y-91648464D01*
X160607474Y-91925230D01*
X160560115Y-92224689D01*
X160510049Y-92541946D01*
X160489829Y-92670261D01*
X160438859Y-92992136D01*
X160390011Y-93297306D01*
X160344084Y-93580984D01*
X160301880Y-93838378D01*
X160264198Y-94064701D01*
X160231840Y-94255162D01*
X160205604Y-94404972D01*
X160186292Y-94509342D01*
X160174704Y-94563482D01*
X160172375Y-94570044D01*
X160159477Y-94569128D01*
X160162207Y-94541214D01*
X160168687Y-94503885D01*
X160183317Y-94414519D01*
X160205315Y-94278039D01*
X160233896Y-94099374D01*
X160268277Y-93883450D01*
X160307673Y-93635192D01*
X160351300Y-93359528D01*
X160398375Y-93061384D01*
X160448114Y-92745686D01*
X160464517Y-92641430D01*
X160515198Y-92320994D01*
X160563911Y-92016455D01*
X160609833Y-91732752D01*
X160652137Y-91474825D01*
X160689997Y-91247613D01*
X160722590Y-91056054D01*
X160749088Y-90905089D01*
X160768667Y-90799655D01*
X160780501Y-90744694D01*
X160782508Y-90738593D01*
X160810292Y-90680931D01*
X160797653Y-90738593D01*
G37*
%TO.C,220ohm*%
X102200000Y-61910000D02*
X102200000Y-55370000D01*
X104610000Y-61910000D02*
X104940000Y-61910000D01*
X102530000Y-61910000D02*
X102200000Y-61910000D01*
X104940000Y-55370000D02*
X104610000Y-55370000D01*
X102200000Y-55370000D02*
X102530000Y-55370000D01*
X104940000Y-61910000D02*
X104940000Y-55370000D01*
%TO.C,Btn3*%
X119260000Y-78790000D02*
X119260000Y-76070000D01*
X131560000Y-76070000D02*
X131560000Y-78790000D01*
X131560000Y-85650000D02*
X131560000Y-88370000D01*
X119260000Y-88370000D02*
X119260000Y-85650000D01*
X119260000Y-83790000D02*
X119260000Y-80650000D01*
X131560000Y-80650000D02*
X131560000Y-83790000D01*
X131560000Y-88370000D02*
X119260000Y-88370000D01*
X119260000Y-76070000D02*
X131560000Y-76070000D01*
X130089050Y-82260000D02*
G75*
G03*
X130089050Y-82260000I-4579050J0D01*
G01*
%TO.C,G\u002A\u002A\u002A*%
G36*
X144398580Y-54388633D02*
G01*
X144397590Y-54563705D01*
X144392659Y-54682352D01*
X144380845Y-54760302D01*
X144359207Y-54813282D01*
X144324803Y-54857019D01*
X144307684Y-54874573D01*
X144163214Y-54980403D01*
X143951784Y-55077669D01*
X143692770Y-55160224D01*
X143552129Y-55186932D01*
X143358718Y-55208486D01*
X143131789Y-55224196D01*
X142890593Y-55233374D01*
X142654381Y-55235330D01*
X142442405Y-55229374D01*
X142273916Y-55214817D01*
X142253136Y-55211779D01*
X142023468Y-55164389D01*
X141805150Y-55098723D01*
X141611906Y-55020655D01*
X141457460Y-54936059D01*
X141355538Y-54850811D01*
X141332482Y-54817717D01*
X141317092Y-54754018D01*
X141304871Y-54636938D01*
X141297364Y-54485237D01*
X141295739Y-54371325D01*
X141295739Y-53993588D01*
X141494491Y-54101236D01*
X141733299Y-54200930D01*
X142024297Y-54275118D01*
X142352176Y-54323802D01*
X142701625Y-54346982D01*
X143057333Y-54344656D01*
X143403990Y-54316826D01*
X143726285Y-54263491D01*
X144008908Y-54184652D01*
X144199828Y-54101236D01*
X144398580Y-53993588D01*
X144398580Y-54388633D01*
G37*
G36*
X124254709Y-53258463D02*
G01*
X124361387Y-53338268D01*
X124478152Y-53455416D01*
X124592722Y-53596927D01*
X124692820Y-53749825D01*
X124731287Y-53821754D01*
X124851256Y-54140882D01*
X124904823Y-54470283D01*
X124890054Y-54797435D01*
X124886035Y-54822129D01*
X124793684Y-55160673D01*
X124642468Y-55463516D01*
X124438778Y-55724960D01*
X124189002Y-55939307D01*
X123899530Y-56100858D01*
X123576752Y-56203915D01*
X123295559Y-56240584D01*
X123149230Y-56245246D01*
X123020612Y-56244510D01*
X122935711Y-56238571D01*
X122931250Y-56237816D01*
X122786456Y-56200128D01*
X122611238Y-56139166D01*
X122436624Y-56066991D01*
X122293645Y-55995665D01*
X122266600Y-55979455D01*
X122078483Y-55833100D01*
X121895789Y-55642581D01*
X121741371Y-55433758D01*
X121667638Y-55301816D01*
X121548501Y-54971982D01*
X121499406Y-54633641D01*
X121520317Y-54294436D01*
X121611198Y-53962008D01*
X121674583Y-53817332D01*
X121765736Y-53659675D01*
X121876335Y-53509599D01*
X121994209Y-53379950D01*
X122107185Y-53283573D01*
X122203094Y-53233313D01*
X122232069Y-53228977D01*
X122365883Y-53251041D01*
X122443339Y-53312962D01*
X122463456Y-53408332D01*
X122425251Y-53530742D01*
X122327742Y-53673784D01*
X122304341Y-53700646D01*
X122155306Y-53883804D01*
X122057289Y-54054201D01*
X122001188Y-54235748D01*
X121977899Y-54452358D01*
X121975702Y-54563920D01*
X121988966Y-54815617D01*
X122035112Y-55020277D01*
X122122290Y-55198649D01*
X122258647Y-55371485D01*
X122316355Y-55431372D01*
X122485369Y-55581313D01*
X122651962Y-55682430D01*
X122836279Y-55742487D01*
X123058468Y-55769247D01*
X123201847Y-55772585D01*
X123453115Y-55760606D01*
X123655545Y-55719508D01*
X123829219Y-55641550D01*
X123994220Y-55518990D01*
X124086948Y-55431372D01*
X124241179Y-55255635D01*
X124343681Y-55081087D01*
X124402598Y-54886979D01*
X124426074Y-54652564D01*
X124427432Y-54563920D01*
X124416014Y-54324808D01*
X124375700Y-54131164D01*
X124297400Y-53959068D01*
X124172024Y-53784602D01*
X124099353Y-53700646D01*
X123991431Y-53554774D01*
X123942831Y-53428257D01*
X123952578Y-53327578D01*
X124019693Y-53259223D01*
X124143202Y-53229675D01*
X124170397Y-53228977D01*
X124254709Y-53258463D01*
G37*
G36*
X144398580Y-55412632D02*
G01*
X144394129Y-55563889D01*
X144382315Y-55695896D01*
X144365444Y-55785254D01*
X144360518Y-55798608D01*
X144272649Y-55910889D01*
X144122797Y-56010509D01*
X143920330Y-56095560D01*
X143674618Y-56164133D01*
X143395031Y-56214321D01*
X143090938Y-56244215D01*
X142771709Y-56251906D01*
X142446713Y-56235488D01*
X142295976Y-56219072D01*
X142039930Y-56172920D01*
X141805526Y-56105559D01*
X141604546Y-56022138D01*
X141448771Y-55927804D01*
X141349984Y-55827707D01*
X141333801Y-55798608D01*
X141315995Y-55724161D01*
X141302645Y-55600985D01*
X141296059Y-55452480D01*
X141295739Y-55412632D01*
X141295739Y-55110193D01*
X141449077Y-55195671D01*
X141559761Y-55247577D01*
X141710267Y-55305624D01*
X141870449Y-55358308D01*
X141891051Y-55364348D01*
X142004036Y-55394719D01*
X142110270Y-55416757D01*
X142224630Y-55431758D01*
X142361991Y-55441014D01*
X142537229Y-55445820D01*
X142765217Y-55447472D01*
X142847159Y-55447546D01*
X143094113Y-55446596D01*
X143283797Y-55442885D01*
X143431088Y-55435116D01*
X143550861Y-55421998D01*
X143657990Y-55402233D01*
X143767352Y-55374530D01*
X143803267Y-55364348D01*
X143962453Y-55313259D01*
X144116009Y-55255263D01*
X144233790Y-55201865D01*
X144245242Y-55195671D01*
X144398580Y-55110193D01*
X144398580Y-55412632D01*
G37*
G36*
X147468670Y-55033957D02*
G01*
X147467949Y-54959534D01*
X147466163Y-54775144D01*
X147465643Y-54527841D01*
X147898296Y-54527841D01*
X148367330Y-54527841D01*
X148800284Y-54527841D01*
X150604262Y-54527841D01*
X150604262Y-54094886D01*
X148800284Y-54094886D01*
X148800284Y-54527841D01*
X148367330Y-54527841D01*
X148367330Y-54094886D01*
X147898296Y-54094886D01*
X147898296Y-54527841D01*
X147465643Y-54527841D01*
X147465489Y-54454783D01*
X147465476Y-54304135D01*
X147465732Y-53976296D01*
X147466702Y-53712677D01*
X147467205Y-53663192D01*
X148800284Y-53663192D01*
X150586222Y-53643892D01*
X150586222Y-53210937D01*
X148800284Y-53191637D01*
X148800284Y-53663192D01*
X147467205Y-53663192D01*
X147468589Y-53527140D01*
X147900468Y-53527140D01*
X147916691Y-53609811D01*
X147966102Y-53648687D01*
X148060973Y-53657691D01*
X148141396Y-53654725D01*
X148349290Y-53643892D01*
X148360077Y-53416627D01*
X148370757Y-53191637D01*
X148370865Y-53189362D01*
X148143600Y-53200150D01*
X147916335Y-53210937D01*
X147905158Y-53386751D01*
X147900468Y-53527140D01*
X147468589Y-53527140D01*
X147468811Y-53505340D01*
X147472484Y-53346348D01*
X147478148Y-53227762D01*
X147486226Y-53141644D01*
X147497146Y-53080057D01*
X147511331Y-53035062D01*
X147529207Y-52998721D01*
X147536040Y-52987192D01*
X147570211Y-52932811D01*
X147604839Y-52887881D01*
X147646759Y-52851501D01*
X147702810Y-52822770D01*
X147779827Y-52800785D01*
X147884648Y-52784645D01*
X148024111Y-52773450D01*
X148205051Y-52766296D01*
X148434307Y-52762284D01*
X148718715Y-52760511D01*
X149065111Y-52760076D01*
X149258507Y-52760078D01*
X149619401Y-52760270D01*
X149915285Y-52760989D01*
X150153311Y-52762561D01*
X150340629Y-52765309D01*
X150484387Y-52769561D01*
X150591736Y-52775640D01*
X150669827Y-52783872D01*
X150725808Y-52794582D01*
X150766831Y-52808096D01*
X150800044Y-52824738D01*
X150809967Y-52830641D01*
X150868643Y-52868193D01*
X150916238Y-52907104D01*
X150953911Y-52954926D01*
X150982822Y-53019212D01*
X151004130Y-53107515D01*
X151018994Y-53227388D01*
X151028573Y-53386384D01*
X151034026Y-53592055D01*
X151036512Y-53851954D01*
X151037191Y-54173635D01*
X151037216Y-54311363D01*
X151036916Y-54658092D01*
X151035241Y-54940215D01*
X151031033Y-55165285D01*
X151023133Y-55340854D01*
X151010382Y-55474476D01*
X150991620Y-55573703D01*
X150965689Y-55646088D01*
X150931428Y-55699184D01*
X150887680Y-55740544D01*
X150833284Y-55777720D01*
X150809967Y-55792085D01*
X150777813Y-55809732D01*
X150740107Y-55824163D01*
X150689720Y-55835701D01*
X150619524Y-55844667D01*
X150522388Y-55851383D01*
X150391183Y-55856172D01*
X150218781Y-55859357D01*
X149998051Y-55861258D01*
X149721865Y-55862198D01*
X149383093Y-55862500D01*
X149251279Y-55862514D01*
X148889412Y-55862357D01*
X148592575Y-55861672D01*
X148353638Y-55860137D01*
X148165473Y-55857429D01*
X148020949Y-55853226D01*
X147912937Y-55847206D01*
X147834309Y-55839048D01*
X147777935Y-55828428D01*
X147736685Y-55815025D01*
X147703431Y-55798517D01*
X147692590Y-55792085D01*
X147634055Y-55754647D01*
X147586545Y-55715887D01*
X147548912Y-55668274D01*
X147520005Y-55604283D01*
X147498677Y-55516383D01*
X147488028Y-55431090D01*
X148800284Y-55431090D01*
X149693253Y-55421440D01*
X150586222Y-55411789D01*
X150586222Y-54978835D01*
X149693253Y-54969185D01*
X148800284Y-54959534D01*
X148800284Y-55431090D01*
X147488028Y-55431090D01*
X147483778Y-55397048D01*
X147477488Y-55293528D01*
X147900590Y-55293528D01*
X147917659Y-55375599D01*
X147969674Y-55415732D01*
X148069941Y-55428796D01*
X148151442Y-55429829D01*
X148370773Y-55429829D01*
X148360032Y-55204332D01*
X148349290Y-54978835D01*
X147916335Y-54978835D01*
X147905158Y-55154648D01*
X147900590Y-55293528D01*
X147477488Y-55293528D01*
X147474159Y-55238748D01*
X147468670Y-55033957D01*
G37*
G36*
X130303623Y-53908857D02*
G01*
X130557876Y-53950246D01*
X130787554Y-54026859D01*
X131014611Y-54144940D01*
X131125463Y-54215733D01*
X131281077Y-54332954D01*
X131371875Y-54435820D01*
X131401848Y-54531711D01*
X131374988Y-54628010D01*
X131360974Y-54651323D01*
X131274378Y-54726603D01*
X131162307Y-54741433D01*
X131039149Y-54695515D01*
X130988777Y-54659049D01*
X130725990Y-54484438D01*
X130435820Y-54371497D01*
X130128418Y-54320264D01*
X129813933Y-54330781D01*
X129502515Y-54403088D01*
X129204316Y-54537225D01*
X129030704Y-54651322D01*
X128892542Y-54727369D01*
X128771320Y-54739530D01*
X128674013Y-54687805D01*
X128644708Y-54651323D01*
X128605164Y-54553867D01*
X128621523Y-54458541D01*
X128697775Y-54357963D01*
X128837912Y-54244750D01*
X128880219Y-54215733D01*
X129113537Y-54076238D01*
X129339265Y-53981116D01*
X129579358Y-53924122D01*
X129855770Y-53899012D01*
X130002841Y-53896448D01*
X130303623Y-53908857D01*
G37*
G36*
X156609577Y-53888981D02*
G01*
X156667746Y-53927206D01*
X156705831Y-54002847D01*
X156727582Y-54125668D01*
X156736748Y-54305432D01*
X156737784Y-54425871D01*
X156736300Y-54610192D01*
X156730562Y-54736278D01*
X156718642Y-54818013D01*
X156698612Y-54869282D01*
X156671804Y-54901084D01*
X156569101Y-54952946D01*
X156456275Y-54950036D01*
X156364541Y-54894815D01*
X156337559Y-54851316D01*
X156319804Y-54782902D01*
X156309606Y-54676118D01*
X156305297Y-54517511D01*
X156304830Y-54413333D01*
X156308696Y-54203685D01*
X156323104Y-54055799D01*
X156352268Y-53959557D01*
X156400400Y-53904840D01*
X156471715Y-53881529D01*
X156527576Y-53878409D01*
X156609577Y-53888981D01*
G37*
G36*
X143205838Y-52712070D02*
G01*
X143240190Y-52715491D01*
X143555335Y-52760979D01*
X143829909Y-52825947D01*
X144056729Y-52907618D01*
X144228612Y-53003213D01*
X144338376Y-53109953D01*
X144360518Y-53148835D01*
X144388478Y-53256576D01*
X144398452Y-53397623D01*
X144391339Y-53543991D01*
X144368038Y-53667696D01*
X144341949Y-53726728D01*
X144230965Y-53830972D01*
X144059669Y-53922247D01*
X143839011Y-53998929D01*
X143579941Y-54059394D01*
X143293408Y-54102018D01*
X142990363Y-54125177D01*
X142681755Y-54127246D01*
X142378534Y-54106602D01*
X142091650Y-54061619D01*
X142088539Y-54060965D01*
X141857089Y-54000564D01*
X141651397Y-53924759D01*
X141485468Y-53839909D01*
X141373307Y-53752372D01*
X141352370Y-53726728D01*
X141318045Y-53636388D01*
X141299265Y-53503376D01*
X141296929Y-53355674D01*
X141311936Y-53221265D01*
X141333801Y-53148835D01*
X141420283Y-53038919D01*
X141568536Y-52940349D01*
X141768748Y-52855355D01*
X142011110Y-52786167D01*
X142285811Y-52735014D01*
X142583039Y-52704127D01*
X142892985Y-52695735D01*
X143205838Y-52712070D01*
G37*
G36*
X123287047Y-52788890D02*
G01*
X123361586Y-52855007D01*
X123385419Y-52888909D01*
X123403577Y-52928576D01*
X123416828Y-52983647D01*
X123425939Y-53063759D01*
X123431680Y-53178551D01*
X123434818Y-53337661D01*
X123436123Y-53550728D01*
X123436364Y-53793075D01*
X123436041Y-54062018D01*
X123434578Y-54268181D01*
X123431236Y-54420942D01*
X123425276Y-54529678D01*
X123415958Y-54603768D01*
X123402543Y-54652589D01*
X123384291Y-54685519D01*
X123364205Y-54708238D01*
X123278252Y-54762824D01*
X123201847Y-54780397D01*
X123108521Y-54755304D01*
X123039489Y-54708238D01*
X123016496Y-54681468D01*
X122998974Y-54646857D01*
X122986184Y-54595027D01*
X122977387Y-54516601D01*
X122971842Y-54402199D01*
X122968812Y-54242445D01*
X122967555Y-54027961D01*
X122967330Y-53793075D01*
X122967649Y-53523985D01*
X122969120Y-53317415D01*
X122972511Y-53163726D01*
X122978590Y-53053281D01*
X122988125Y-52976440D01*
X123001885Y-52923565D01*
X123020638Y-52885019D01*
X123042108Y-52855007D01*
X123122926Y-52785153D01*
X123201847Y-52759943D01*
X123287047Y-52788890D01*
G37*
G36*
X130086278Y-54994328D02*
G01*
X130225636Y-55044584D01*
X130339850Y-55137111D01*
X130414414Y-55267128D01*
X130435796Y-55399971D01*
X130405237Y-55576209D01*
X130318795Y-55718701D01*
X130197411Y-55808081D01*
X130038538Y-55857031D01*
X129887864Y-55841471D01*
X129802551Y-55806808D01*
X129676413Y-55708006D01*
X129597193Y-55570848D01*
X129569003Y-55414741D01*
X129595951Y-55259090D01*
X129662404Y-55145017D01*
X129790155Y-55039762D01*
X129936282Y-54991127D01*
X130086278Y-54994328D01*
G37*
G36*
X134713376Y-55429135D02*
G01*
X134763880Y-55296282D01*
X134824235Y-55212024D01*
X134895001Y-55151114D01*
X134988401Y-55109956D01*
X135116658Y-55084954D01*
X135291995Y-55072513D01*
X135526636Y-55069037D01*
X135536393Y-55069034D01*
X136022392Y-55069034D01*
X136045833Y-55175760D01*
X136087595Y-55265925D01*
X136163920Y-55363117D01*
X136194273Y-55392237D01*
X136346660Y-55484423D01*
X136507608Y-55506982D01*
X136666728Y-55459915D01*
X136763966Y-55392237D01*
X136846695Y-55300852D01*
X136903256Y-55204249D01*
X136912406Y-55175760D01*
X136935847Y-55069034D01*
X137429074Y-55069169D01*
X137670884Y-55073089D01*
X137852483Y-55087183D01*
X137985532Y-55115171D01*
X138081689Y-55160776D01*
X138152616Y-55227720D01*
X138209186Y-55318203D01*
X138251117Y-55455945D01*
X138263031Y-55627129D01*
X138245308Y-55799753D01*
X138201862Y-55934943D01*
X138170283Y-55995164D01*
X138136743Y-56044956D01*
X138094477Y-56085311D01*
X138036719Y-56117219D01*
X137956703Y-56141673D01*
X137847663Y-56159664D01*
X137702834Y-56172183D01*
X137515450Y-56180221D01*
X137278745Y-56184771D01*
X136985954Y-56186823D01*
X136630310Y-56187369D01*
X136479120Y-56187387D01*
X136119143Y-56187135D01*
X135824090Y-56186180D01*
X135586725Y-56184225D01*
X135399814Y-56180971D01*
X135256122Y-56176122D01*
X135148414Y-56169379D01*
X135069454Y-56160445D01*
X135012010Y-56149023D01*
X134968845Y-56134814D01*
X134945739Y-56124304D01*
X134834973Y-56040637D01*
X134756377Y-55934943D01*
X134707762Y-55780787D01*
X134695619Y-55628267D01*
X137543466Y-55628267D01*
X137573749Y-55728569D01*
X137655273Y-55784025D01*
X137705824Y-55790625D01*
X137788620Y-55771086D01*
X137824887Y-55747329D01*
X137869162Y-55661101D01*
X137857656Y-55569482D01*
X137800506Y-55496435D01*
X137707850Y-55465921D01*
X137705824Y-55465909D01*
X137605522Y-55496191D01*
X137550066Y-55577716D01*
X137543466Y-55628267D01*
X134695619Y-55628267D01*
X134693545Y-55602218D01*
X134713376Y-55429135D01*
G37*
G36*
X136532213Y-52641631D02*
G01*
X136628202Y-52716886D01*
X136763283Y-52837240D01*
X136932732Y-52998546D01*
X137065879Y-53130210D01*
X137257938Y-53325046D01*
X137401365Y-53478006D01*
X137500409Y-53596309D01*
X137559317Y-53687173D01*
X137582340Y-53757820D01*
X137573727Y-53815467D01*
X137537727Y-53867335D01*
X137513566Y-53890857D01*
X137443269Y-53938189D01*
X137369534Y-53947135D01*
X137282249Y-53913454D01*
X137171302Y-53832905D01*
X137026579Y-53701249D01*
X136999951Y-53675487D01*
X136717279Y-53400406D01*
X136706438Y-54291798D01*
X136702746Y-54569213D01*
X136698755Y-54783320D01*
X136693705Y-54942968D01*
X136686836Y-55057005D01*
X136677390Y-55134281D01*
X136664607Y-55183646D01*
X136647728Y-55213947D01*
X136625993Y-55234035D01*
X136625562Y-55234351D01*
X136537384Y-55275707D01*
X136479120Y-55285511D01*
X136388423Y-55264377D01*
X136332677Y-55234351D01*
X136310850Y-55214363D01*
X136293892Y-55184318D01*
X136281043Y-55135366D01*
X136271545Y-55058658D01*
X136264637Y-54945345D01*
X136259562Y-54786577D01*
X136255558Y-54573505D01*
X136251868Y-54297281D01*
X136251801Y-54291798D01*
X136240960Y-53400406D01*
X135958288Y-53675487D01*
X135803192Y-53818583D01*
X135683377Y-53908269D01*
X135589893Y-53948142D01*
X135513790Y-53941805D01*
X135446115Y-53892856D01*
X135438405Y-53884588D01*
X135396892Y-53829855D01*
X135378598Y-53774689D01*
X135388060Y-53711553D01*
X135429818Y-53632911D01*
X135508410Y-53531227D01*
X135628374Y-53398965D01*
X135794249Y-53228589D01*
X135893278Y-53129291D01*
X136083242Y-52943303D01*
X136242379Y-52794966D01*
X136365857Y-52688509D01*
X136448841Y-52628165D01*
X136480038Y-52615625D01*
X136532213Y-52641631D01*
G37*
G36*
X155251396Y-54105645D02*
G01*
X155343130Y-54160866D01*
X155378876Y-54238762D01*
X155400568Y-54363102D01*
X155408393Y-54511856D01*
X155402538Y-54662998D01*
X155383188Y-54794500D01*
X155350531Y-54884333D01*
X155336861Y-54901084D01*
X155234157Y-54952946D01*
X155121332Y-54950036D01*
X155029598Y-54894815D01*
X154993852Y-54816919D01*
X154972160Y-54692579D01*
X154964334Y-54543825D01*
X154970190Y-54392683D01*
X154989540Y-54261181D01*
X155022197Y-54171348D01*
X155035867Y-54154597D01*
X155138570Y-54102735D01*
X155251396Y-54105645D01*
G37*
G36*
X155970137Y-53470327D02*
G01*
X156032187Y-53525641D01*
X156054166Y-53593886D01*
X156071197Y-53718461D01*
X156083166Y-53883702D01*
X156089958Y-54073942D01*
X156091458Y-54273516D01*
X156087552Y-54466758D01*
X156078126Y-54638002D01*
X156063064Y-54771581D01*
X156042252Y-54851831D01*
X156041892Y-54852556D01*
X155972196Y-54922735D01*
X155870055Y-54956632D01*
X155764630Y-54950080D01*
X155688389Y-54903073D01*
X155664933Y-54838619D01*
X155646200Y-54717336D01*
X155632374Y-54554409D01*
X155623638Y-54365025D01*
X155620175Y-54164368D01*
X155622168Y-53967626D01*
X155629801Y-53789984D01*
X155643257Y-53646629D01*
X155662719Y-53552746D01*
X155671861Y-53532996D01*
X155755383Y-53463089D01*
X155864070Y-53442010D01*
X155970137Y-53470327D01*
G37*
G36*
X130424822Y-52801144D02*
G01*
X130702289Y-52844635D01*
X130778551Y-52863250D01*
X131162514Y-52992997D01*
X131525972Y-53165420D01*
X131851451Y-53371127D01*
X132086435Y-53566315D01*
X132186154Y-53672219D01*
X132230940Y-53754802D01*
X132225666Y-53831118D01*
X132183608Y-53906460D01*
X132106550Y-53974632D01*
X132007306Y-53985183D01*
X131880735Y-53937046D01*
X131721696Y-53829150D01*
X131689742Y-53803719D01*
X131441119Y-53629683D01*
X131152781Y-53472201D01*
X130854560Y-53346101D01*
X130634233Y-53279057D01*
X130395860Y-53239164D01*
X130117299Y-53220334D01*
X129827381Y-53222568D01*
X129554935Y-53245865D01*
X129371449Y-53279057D01*
X129086234Y-53370376D01*
X128787627Y-53504647D01*
X128505461Y-53667040D01*
X128315941Y-53803719D01*
X128150613Y-53922315D01*
X128018664Y-53980963D01*
X127914953Y-53980732D01*
X127834338Y-53922692D01*
X127822074Y-53906460D01*
X127776858Y-53821583D01*
X127777424Y-53745415D01*
X127828643Y-53660903D01*
X127919247Y-53566315D01*
X128198396Y-53339600D01*
X128530464Y-53138137D01*
X128897978Y-52971318D01*
X129227131Y-52863250D01*
X129488413Y-52812312D01*
X129792227Y-52784982D01*
X130112916Y-52781259D01*
X130424822Y-52801144D01*
G37*
G36*
X154346246Y-52775537D02*
G01*
X154420665Y-52816108D01*
X154442241Y-52832416D01*
X154459551Y-52852902D01*
X154473065Y-52885054D01*
X154483254Y-52936358D01*
X154490587Y-53014302D01*
X154495534Y-53126374D01*
X154498564Y-53280060D01*
X154500148Y-53482848D01*
X154500754Y-53742226D01*
X154500852Y-54065681D01*
X154500853Y-54094355D01*
X154501203Y-54428842D01*
X154502471Y-54698436D01*
X154504978Y-54910404D01*
X154509045Y-55072008D01*
X154514995Y-55190514D01*
X154523151Y-55273186D01*
X154533833Y-55327289D01*
X154547365Y-55360088D01*
X154557549Y-55373133D01*
X154578885Y-55387423D01*
X154615986Y-55399135D01*
X154675474Y-55408516D01*
X154763973Y-55415815D01*
X154888108Y-55421280D01*
X155054502Y-55425159D01*
X155269778Y-55427700D01*
X155540562Y-55429152D01*
X155873476Y-55429762D01*
X156070844Y-55429829D01*
X157527443Y-55429829D01*
X157583608Y-55510016D01*
X157634829Y-55624701D01*
X157616004Y-55727848D01*
X157567614Y-55790625D01*
X157547524Y-55808409D01*
X157521689Y-55822995D01*
X157483302Y-55834692D01*
X157425558Y-55843808D01*
X157341649Y-55850651D01*
X157224769Y-55855531D01*
X157068113Y-55858756D01*
X156864873Y-55860634D01*
X156608242Y-55861474D01*
X156291416Y-55861584D01*
X156007174Y-55861371D01*
X155617611Y-55860498D01*
X155294322Y-55858564D01*
X155031427Y-55855385D01*
X154823044Y-55850779D01*
X154663293Y-55844565D01*
X154546295Y-55836560D01*
X154466169Y-55826580D01*
X154417035Y-55814445D01*
X154410654Y-55811852D01*
X154255670Y-55707331D01*
X154137940Y-55558067D01*
X154106381Y-55490620D01*
X154094874Y-55422303D01*
X154085276Y-55285205D01*
X154077684Y-55082677D01*
X154072195Y-54818074D01*
X154068903Y-54494749D01*
X154067898Y-54146657D01*
X154068055Y-53814029D01*
X154068801Y-53546039D01*
X154070549Y-53335169D01*
X154073712Y-53173898D01*
X154078702Y-53054705D01*
X154085932Y-52970071D01*
X154095816Y-52912476D01*
X154108765Y-52874399D01*
X154125194Y-52848321D01*
X154140057Y-52832102D01*
X154239735Y-52768662D01*
X154346246Y-52775537D01*
G37*
G36*
X157236582Y-52990566D02*
G01*
X157327514Y-53057842D01*
X157334737Y-53064979D01*
X157423296Y-53153538D01*
X157423296Y-53976979D01*
X157422454Y-54269093D01*
X157418681Y-54496988D01*
X157410105Y-54668595D01*
X157394854Y-54791849D01*
X157371057Y-54874681D01*
X157336841Y-54925023D01*
X157290335Y-54950808D01*
X157229668Y-54959968D01*
X157191151Y-54960795D01*
X157090347Y-54943094D01*
X157021819Y-54901130D01*
X157005416Y-54866312D01*
X156992840Y-54801105D01*
X156983670Y-54697675D01*
X156977485Y-54548184D01*
X156973865Y-54344795D01*
X156972389Y-54079672D01*
X156972301Y-53977914D01*
X156972301Y-53114363D01*
X157057477Y-53045391D01*
X157153676Y-52986918D01*
X157236582Y-52990566D01*
G37*
%TO.C,PrgmMode | RST*%
X103780000Y-96145000D02*
X105133333Y-96145000D01*
X103780000Y-96625000D02*
X105133333Y-96625000D01*
X103780000Y-93845000D02*
X105133333Y-93845000D01*
X107840000Y-94635000D02*
X107840000Y-93365000D01*
X103780000Y-96505000D02*
X105133333Y-96505000D01*
X103780000Y-97105000D02*
X105133333Y-97105000D01*
X107840000Y-97175000D02*
X107840000Y-95905000D01*
X103780000Y-94085000D02*
X105133333Y-94085000D01*
X100860000Y-98960000D02*
X110760000Y-98960000D01*
X103780000Y-93365000D02*
X103780000Y-94635000D01*
X103780000Y-94445000D02*
X105133333Y-94445000D01*
X100620000Y-91340000D02*
X100620000Y-92723000D01*
X103780000Y-93965000D02*
X105133333Y-93965000D01*
X103780000Y-97175000D02*
X107840000Y-97175000D01*
X103780000Y-93485000D02*
X105133333Y-93485000D01*
X103780000Y-96385000D02*
X105133333Y-96385000D01*
X110760000Y-91580000D02*
X110760000Y-98960000D01*
X103780000Y-96745000D02*
X105133333Y-96745000D01*
X103780000Y-96025000D02*
X105133333Y-96025000D01*
X100620000Y-91340000D02*
X102004000Y-91340000D01*
X103780000Y-94565000D02*
X105133333Y-94565000D01*
X103780000Y-94205000D02*
X105133333Y-94205000D01*
X105133333Y-93365000D02*
X105133333Y-94635000D01*
X105133333Y-95905000D02*
X105133333Y-97175000D01*
X103780000Y-96865000D02*
X105133333Y-96865000D01*
X107840000Y-93365000D02*
X103780000Y-93365000D01*
X100860000Y-91580000D02*
X110760000Y-91580000D01*
X103780000Y-96985000D02*
X105133333Y-96985000D01*
X103780000Y-94325000D02*
X105133333Y-94325000D01*
X103780000Y-96265000D02*
X105133333Y-96265000D01*
X100860000Y-91580000D02*
X100860000Y-98960000D01*
X103780000Y-95905000D02*
X103780000Y-97175000D01*
X107840000Y-95905000D02*
X103780000Y-95905000D01*
X103780000Y-94635000D02*
X107840000Y-94635000D01*
X103780000Y-93725000D02*
X105133333Y-93725000D01*
X103780000Y-93605000D02*
X105133333Y-93605000D01*
%TO.C,10ohm*%
X159130000Y-81820000D02*
X165670000Y-81820000D01*
X165670000Y-81820000D02*
X165670000Y-81490000D01*
X159130000Y-81490000D02*
X159130000Y-81820000D01*
X159130000Y-79080000D02*
X165670000Y-79080000D01*
X165670000Y-79080000D02*
X165670000Y-79410000D01*
X159130000Y-79410000D02*
X159130000Y-79080000D01*
D12*
%TO.C,Hero Passthrough*%
X120650000Y-95520000D02*
X120650000Y-97520000D01*
D11*
X122520000Y-98370000D02*
X121970000Y-98370000D01*
D12*
X123100000Y-97520000D02*
X118900000Y-97520000D01*
X121000000Y-95520000D02*
X121000000Y-97520000D01*
X118900000Y-95520000D02*
X123100000Y-95520000D01*
D11*
X121970000Y-94670000D02*
X122530000Y-94670000D01*
D12*
X123100000Y-95520000D02*
X123100000Y-97520000D01*
D11*
X116350000Y-95370000D02*
X116350000Y-94370000D01*
D12*
X118900000Y-95520000D02*
X118900000Y-97520000D01*
D11*
X116650000Y-94670000D02*
X117500000Y-94670000D01*
X116650000Y-98370000D02*
X116650000Y-94670000D01*
X125350000Y-98370000D02*
X124480000Y-98370000D01*
X124470000Y-94670000D02*
X125350000Y-94670000D01*
X119500000Y-94670000D02*
X120030000Y-94670000D01*
X117530000Y-98370000D02*
X116650000Y-98370000D01*
X125350000Y-94670000D02*
X125350000Y-98370000D01*
X120030000Y-98370000D02*
X119470000Y-98370000D01*
D12*
X120300000Y-95520000D02*
X120300000Y-97520000D01*
X119600000Y-95520000D02*
X119600000Y-97520000D01*
X119250000Y-95520000D02*
X119250000Y-97520000D01*
D11*
X116350000Y-94370000D02*
X117350000Y-94370000D01*
D12*
X119950000Y-95520000D02*
X119950000Y-97520000D01*
D11*
%TO.C,220ohm*%
X109820000Y-55370000D02*
X110150000Y-55370000D01*
X112560000Y-61910000D02*
X112560000Y-55370000D01*
X110150000Y-61910000D02*
X109820000Y-61910000D01*
X112230000Y-61910000D02*
X112560000Y-61910000D01*
X109820000Y-61910000D02*
X109820000Y-55370000D01*
X112560000Y-55370000D02*
X112230000Y-55370000D01*
%TO.C,Btn2*%
X153820000Y-71070000D02*
X141520000Y-71070000D01*
X153820000Y-68350000D02*
X153820000Y-71070000D01*
X141520000Y-71070000D02*
X141520000Y-68350000D01*
X153820000Y-58770000D02*
X153820000Y-61490000D01*
X141520000Y-61490000D02*
X141520000Y-58770000D01*
X153820000Y-63350000D02*
X153820000Y-66490000D01*
X141520000Y-66490000D02*
X141520000Y-63350000D01*
X141520000Y-58770000D02*
X153820000Y-58770000D01*
X152349050Y-64960000D02*
G75*
G03*
X152349050Y-64960000I-4579050J0D01*
G01*
%TO.C,Btn4*%
X141520000Y-88370000D02*
X141520000Y-85650000D01*
X153820000Y-88370000D02*
X141520000Y-88370000D01*
X141520000Y-78790000D02*
X141520000Y-76070000D01*
X141520000Y-83790000D02*
X141520000Y-80650000D01*
X153820000Y-85650000D02*
X153820000Y-88370000D01*
X141520000Y-76070000D02*
X153820000Y-76070000D01*
X153820000Y-76070000D02*
X153820000Y-78790000D01*
X153820000Y-80650000D02*
X153820000Y-83790000D01*
X152349050Y-82260000D02*
G75*
G03*
X152349050Y-82260000I-4579050J0D01*
G01*
%TO.C,10ohm*%
X159130000Y-69670000D02*
X165670000Y-69670000D01*
X165670000Y-66930000D02*
X165670000Y-67260000D01*
X159130000Y-69340000D02*
X159130000Y-69670000D01*
X159130000Y-67260000D02*
X159130000Y-66930000D01*
X159130000Y-66930000D02*
X165670000Y-66930000D01*
X165670000Y-69670000D02*
X165670000Y-69340000D01*
%TO.C,LED*%
X104455900Y-48735000D02*
X104455900Y-49200000D01*
X104455900Y-51360000D02*
X104455900Y-51825000D01*
X104761216Y-51360000D02*
G75*
G03*
X109270379Y-51360429I2254684J1080000D01*
G01*
X104455900Y-51824830D02*
G75*
G03*
X109803715Y-51360827I2560000J1544830D01*
G01*
X109270379Y-49199571D02*
G75*
G03*
X104761216Y-49200000I-2254479J-1080429D01*
G01*
X109803715Y-49199173D02*
G75*
G03*
X104455900Y-48735170I-2787815J-1080827D01*
G01*
%TO.C,10ohm*%
X165670000Y-73720000D02*
X165670000Y-73390000D01*
X159130000Y-73720000D02*
X165670000Y-73720000D01*
X159130000Y-70980000D02*
X165670000Y-70980000D01*
X159130000Y-73390000D02*
X159130000Y-73720000D01*
X159130000Y-71310000D02*
X159130000Y-70980000D01*
X165670000Y-70980000D02*
X165670000Y-71310000D01*
D13*
%TO.C,ESP8266 ESP-01*%
X112700000Y-87681000D02*
X112700000Y-82601000D01*
X102540000Y-87681000D02*
X105080000Y-87681000D01*
X112700000Y-82601000D02*
X102540000Y-82601000D01*
X105080000Y-87681000D02*
X112700000Y-87681000D01*
D14*
X114732000Y-63551000D02*
X114732000Y-88189000D01*
X100508000Y-63551000D02*
X114732000Y-63551000D01*
X100508000Y-88189000D02*
X100508000Y-63551000D01*
D13*
X102540000Y-82601000D02*
X102540000Y-85141000D01*
X102540000Y-85141000D02*
X102540000Y-87681000D01*
D14*
X114732000Y-88189000D02*
X100508000Y-88189000D01*
D11*
%TO.C,10ohm*%
X159130000Y-77770000D02*
X165670000Y-77770000D01*
X165670000Y-75030000D02*
X165670000Y-75360000D01*
X159130000Y-77440000D02*
X159130000Y-77770000D01*
X165670000Y-77770000D02*
X165670000Y-77440000D01*
X159130000Y-75030000D02*
X165670000Y-75030000D01*
X159130000Y-75360000D02*
X159130000Y-75030000D01*
%TD*%
D15*
%TO.C,ESP8266 ESP-01*%
X103810000Y-86411000D03*
D16*
X103810000Y-83871000D03*
X106350000Y-86411000D03*
X106350000Y-83871000D03*
X108890000Y-86411000D03*
X108890000Y-83871000D03*
X111430000Y-86411000D03*
X111430000Y-83871000D03*
%TD*%
%LPC*%
D17*
%TO.C,PWR*%
X161100000Y-87450000D03*
D18*
X161100000Y-85450000D03*
%TD*%
D19*
%TO.C,Btn1*%
X119160000Y-62420000D03*
X131660000Y-62420000D03*
X119160000Y-67420000D03*
X131660000Y-67420000D03*
%TD*%
D20*
%TO.C,220ohm*%
X107570000Y-62450000D03*
D21*
X107570000Y-54830000D03*
%TD*%
D20*
%TO.C,220ohm*%
X103570000Y-62450000D03*
D21*
X103570000Y-54830000D03*
%TD*%
D19*
%TO.C,Btn3*%
X131660000Y-79720000D03*
X119160000Y-79720000D03*
X119160000Y-84720000D03*
X131660000Y-84720000D03*
%TD*%
D22*
%TO.C,MH1*%
X115240000Y-49200000D03*
%TD*%
D23*
%TO.C,PrgmMode | RST*%
X102000000Y-94000000D03*
D21*
X102000000Y-96540000D03*
X109620000Y-96540000D03*
X109620000Y-94000000D03*
%TD*%
D20*
%TO.C,10ohm*%
X158590000Y-80450000D03*
D21*
X166210000Y-80450000D03*
%TD*%
D20*
%TO.C,Hero Passthrough*%
X123500000Y-98120000D03*
X121000000Y-98120000D03*
X118500000Y-98120000D03*
X123500000Y-94920000D03*
X121000000Y-94920000D03*
D23*
X118500000Y-94920000D03*
%TD*%
D20*
%TO.C,220ohm*%
X111190000Y-62450000D03*
D21*
X111190000Y-54830000D03*
%TD*%
D19*
%TO.C,Btn2*%
X141420000Y-62420000D03*
X153920000Y-62420000D03*
X153920000Y-67420000D03*
X141420000Y-67420000D03*
%TD*%
%TO.C,Btn4*%
X153920000Y-79720000D03*
X141420000Y-79720000D03*
X153920000Y-84720000D03*
X141420000Y-84720000D03*
%TD*%
D22*
%TO.C,MH2*%
X113970000Y-97460000D03*
%TD*%
D20*
%TO.C,10ohm*%
X158590000Y-68300000D03*
D21*
X166210000Y-68300000D03*
%TD*%
D24*
%TO.C,LED*%
X105110900Y-50280000D03*
D25*
X106380900Y-50280000D03*
X107650900Y-50280000D03*
X108920900Y-50280000D03*
%TD*%
D22*
%TO.C,MH3*%
X166040000Y-64440000D03*
%TD*%
%TO.C,MH4*%
X166040000Y-92380000D03*
%TD*%
D20*
%TO.C,10ohm*%
X158590000Y-72350000D03*
D21*
X166210000Y-72350000D03*
%TD*%
D15*
%TO.C,ESP8266 ESP-01*%
X103810000Y-86411000D03*
D16*
X103810000Y-83871000D03*
X106350000Y-86411000D03*
X106350000Y-83871000D03*
X108890000Y-86411000D03*
X108890000Y-83871000D03*
X111430000Y-86411000D03*
X111430000Y-83871000D03*
%TD*%
D20*
%TO.C,10ohm*%
X158590000Y-76400000D03*
D21*
X166210000Y-76400000D03*
%TD*%
D26*
%TO.C,J1*%
X127940000Y-97460000D03*
D27*
X130480000Y-97460000D03*
X133020000Y-97460000D03*
X135560000Y-97460000D03*
X138100000Y-97460000D03*
X140640000Y-97460000D03*
X143180000Y-97460000D03*
X145720000Y-97460000D03*
%TD*%
D26*
%TO.C,J3*%
X150800000Y-97460000D03*
D27*
X153340000Y-97460000D03*
X155880000Y-97460000D03*
X158420000Y-97460000D03*
X160960000Y-97460000D03*
X163500000Y-97460000D03*
%TD*%
D26*
%TO.C,J2*%
X118796000Y-49200000D03*
D27*
X121336000Y-49200000D03*
X123876000Y-49200000D03*
X126416000Y-49200000D03*
X128956000Y-49200000D03*
X131496000Y-49200000D03*
X134036000Y-49200000D03*
X136576000Y-49200000D03*
X139116000Y-49200000D03*
X141656000Y-49200000D03*
%TD*%
D26*
%TO.C,J4*%
X145720000Y-49200000D03*
D27*
X148260000Y-49200000D03*
X150800000Y-49200000D03*
X153340000Y-49200000D03*
X155880000Y-49200000D03*
X158420000Y-49200000D03*
X160960000Y-49200000D03*
X163500000Y-49200000D03*
%TD*%
M02*
