%TF.GenerationSoftware,KiCad,Pcbnew,(6.0.10-0)*%
%TF.CreationDate,2023-01-25T21:57:08-05:00*%
%TF.ProjectId,AWB-0412_HeroShield,4157422d-3034-4313-925f-4865726f5368,rev?*%
%TF.SameCoordinates,Original*%
%TF.FileFunction,Copper,L2,Bot*%
%TF.FilePolarity,Positive*%
%FSLAX46Y46*%
G04 Gerber Fmt 4.6, Leading zero omitted, Abs format (unit mm)*
G04 Created by KiCad (PCBNEW (6.0.10-0)) date 2023-01-25 21:57:08*
%MOMM*%
%LPD*%
G01*
G04 APERTURE LIST*
%TA.AperFunction,ComponentPad*%
%ADD10O,3.048000X1.850000*%
%TD*%
%TA.AperFunction,ComponentPad*%
%ADD11C,1.600000*%
%TD*%
%TA.AperFunction,ComponentPad*%
%ADD12O,1.600000X1.600000*%
%TD*%
%TA.AperFunction,ComponentPad*%
%ADD13R,1.600000X1.600000*%
%TD*%
%TA.AperFunction,ComponentPad*%
%ADD14R,1.070000X1.800000*%
%TD*%
%TA.AperFunction,ComponentPad*%
%ADD15O,1.070000X1.800000*%
%TD*%
%TA.AperFunction,ComponentPad*%
%ADD16R,1.727200X1.727200*%
%TD*%
%TA.AperFunction,ComponentPad*%
%ADD17O,1.727200X1.727200*%
%TD*%
%TA.AperFunction,ComponentPad*%
%ADD18R,1.700000X1.700000*%
%TD*%
%TA.AperFunction,ComponentPad*%
%ADD19O,1.700000X1.700000*%
%TD*%
%TA.AperFunction,Conductor*%
%ADD20C,0.200000*%
%TD*%
G04 APERTURE END LIST*
D10*
%TO.P,Btn1,1,1*%
%TO.N,/2*%
X119160000Y-62420000D03*
X131660000Y-62420000D03*
%TO.P,Btn1,2,2*%
%TO.N,GND*%
X119160000Y-67420000D03*
X131660000Y-67420000D03*
%TD*%
D11*
%TO.P,220ohm,1*%
%TO.N,/12*%
X107570000Y-62450000D03*
D12*
%TO.P,220ohm,2*%
%TO.N,Net-(220ohm2-Pad2)*%
X107570000Y-54830000D03*
%TD*%
D11*
%TO.P,220ohm,1*%
%TO.N,/13*%
X103570000Y-62450000D03*
D12*
%TO.P,220ohm,2*%
%TO.N,Net-(D1-Pad1)*%
X103570000Y-54830000D03*
%TD*%
D10*
%TO.P,Btn3,1,1*%
%TO.N,/4*%
X131660000Y-79720000D03*
X119160000Y-79720000D03*
%TO.P,Btn3,2,2*%
%TO.N,GND*%
X119160000Y-84720000D03*
X131660000Y-84720000D03*
%TD*%
D13*
%TO.P,PrgmMode | RST,1*%
%TO.N,Net-(SW6-Pad1)*%
X102000000Y-94000000D03*
D12*
%TO.P,PrgmMode | RST,2*%
%TO.N,Net-(SW6-Pad2)*%
X102000000Y-96540000D03*
%TO.P,PrgmMode | RST,3*%
%TO.N,GND*%
X109620000Y-96540000D03*
%TO.P,PrgmMode | RST,4*%
X109620000Y-94000000D03*
%TD*%
D11*
%TO.P,10ohm,1*%
%TO.N,/4*%
X158547000Y-83970000D03*
D12*
%TO.P,10ohm,2*%
%TO.N,+5V*%
X166167000Y-83970000D03*
%TD*%
D13*
%TO.P,Hero Passthrough,1,A*%
%TO.N,/TX{slash}1*%
X118500000Y-94920000D03*
D11*
%TO.P,Hero Passthrough,2,B*%
%TO.N,Net-(SW5-Pad2)*%
X121000000Y-94920000D03*
%TO.P,Hero Passthrough,3,C*%
%TO.N,/RX{slash}0*%
X123500000Y-94920000D03*
%TO.P,Hero Passthrough,4,A*%
X118500000Y-98120000D03*
%TO.P,Hero Passthrough,5,B*%
%TO.N,Net-(SW5-Pad5)*%
X121000000Y-98120000D03*
%TO.P,Hero Passthrough,6,C*%
%TO.N,/TX{slash}1*%
X123500000Y-98120000D03*
%TD*%
%TO.P,220ohm,1*%
%TO.N,/\u002A11*%
X111190000Y-62450000D03*
D12*
%TO.P,220ohm,2*%
%TO.N,Net-(220ohm3-Pad2)*%
X111190000Y-54830000D03*
%TD*%
D10*
%TO.P,Btn2,1,1*%
%TO.N,/\u002A3*%
X141420000Y-62420000D03*
X153920000Y-62420000D03*
%TO.P,Btn2,2,2*%
%TO.N,GND*%
X153920000Y-67420000D03*
X141420000Y-67420000D03*
%TD*%
%TO.P,Btn4,1,1*%
%TO.N,/\u002A5*%
X153920000Y-79720000D03*
X141420000Y-79720000D03*
%TO.P,Btn4,2,2*%
%TO.N,GND*%
X153920000Y-84720000D03*
X141420000Y-84720000D03*
%TD*%
D11*
%TO.P,10ohm,1*%
%TO.N,/\u002A3*%
X158547000Y-71820000D03*
D12*
%TO.P,10ohm,2*%
%TO.N,+5V*%
X166167000Y-71820000D03*
%TD*%
D14*
%TO.P,LED,1,DO*%
%TO.N,Net-(D1-Pad1)*%
X105110900Y-50280000D03*
D15*
%TO.P,LED,2,GND*%
%TO.N,GND*%
X106380900Y-50280000D03*
%TO.P,LED,3,VDD*%
%TO.N,Net-(220ohm2-Pad2)*%
X107650900Y-50280000D03*
%TO.P,LED,4,DI*%
%TO.N,Net-(220ohm3-Pad2)*%
X108920900Y-50280000D03*
%TD*%
D11*
%TO.P,10ohm,1*%
%TO.N,/2*%
X158547000Y-75870000D03*
D12*
%TO.P,10ohm,2*%
%TO.N,+5V*%
X166167000Y-75870000D03*
%TD*%
D16*
%TO.P,ESP8266 ESP-01,1,UTXD*%
%TO.N,Net-(SW5-Pad5)*%
X103810000Y-86411000D03*
D17*
%TO.P,ESP8266 ESP-01,2,GND*%
%TO.N,GND*%
X103810000Y-83871000D03*
%TO.P,ESP8266 ESP-01,3,CH_PD*%
%TO.N,+3V3*%
X106350000Y-86411000D03*
%TO.P,ESP8266 ESP-01,4,GPIO2*%
%TO.N,unconnected-(U1-Pad4)*%
X106350000Y-83871000D03*
%TO.P,ESP8266 ESP-01,5,RST*%
%TO.N,Net-(SW6-Pad2)*%
X108890000Y-86411000D03*
%TO.P,ESP8266 ESP-01,6,GPIO0*%
%TO.N,Net-(SW6-Pad1)*%
X108890000Y-83871000D03*
%TO.P,ESP8266 ESP-01,7,VCC*%
%TO.N,+3V3*%
X111430000Y-86411000D03*
%TO.P,ESP8266 ESP-01,8,URXD*%
%TO.N,Net-(SW5-Pad2)*%
X111430000Y-83871000D03*
%TD*%
D11*
%TO.P,10ohm,1*%
%TO.N,/\u002A5*%
X158547000Y-79920000D03*
D12*
%TO.P,10ohm,2*%
%TO.N,+5V*%
X166167000Y-79920000D03*
%TD*%
D18*
%TO.P,J1,1,Pin_1*%
%TO.N,unconnected-(J1-Pad1)*%
X127940000Y-97460000D03*
D19*
%TO.P,J1,2,Pin_2*%
%TO.N,/IOREF*%
X130480000Y-97460000D03*
%TO.P,J1,3,Pin_3*%
%TO.N,/~{RESET}*%
X133020000Y-97460000D03*
%TO.P,J1,4,Pin_4*%
%TO.N,+3V3*%
X135560000Y-97460000D03*
%TO.P,J1,5,Pin_5*%
%TO.N,+5V*%
X138100000Y-97460000D03*
%TO.P,J1,6,Pin_6*%
%TO.N,GND*%
X140640000Y-97460000D03*
%TO.P,J1,7,Pin_7*%
X143180000Y-97460000D03*
%TO.P,J1,8,Pin_8*%
%TO.N,VCC*%
X145720000Y-97460000D03*
%TD*%
D18*
%TO.P,J3,1,Pin_1*%
%TO.N,/A0*%
X150800000Y-97460000D03*
D19*
%TO.P,J3,2,Pin_2*%
%TO.N,/A1*%
X153340000Y-97460000D03*
%TO.P,J3,3,Pin_3*%
%TO.N,/A2*%
X155880000Y-97460000D03*
%TO.P,J3,4,Pin_4*%
%TO.N,/A3*%
X158420000Y-97460000D03*
%TO.P,J3,5,Pin_5*%
%TO.N,/SDA{slash}A4*%
X160960000Y-97460000D03*
%TO.P,J3,6,Pin_6*%
%TO.N,/SCL{slash}A5*%
X163500000Y-97460000D03*
%TD*%
D18*
%TO.P,J2,1,Pin_1*%
%TO.N,/SCL{slash}A5*%
X118796000Y-49200000D03*
D19*
%TO.P,J2,2,Pin_2*%
%TO.N,/SDA{slash}A4*%
X121336000Y-49200000D03*
%TO.P,J2,3,Pin_3*%
%TO.N,/AREF*%
X123876000Y-49200000D03*
%TO.P,J2,4,Pin_4*%
%TO.N,GND*%
X126416000Y-49200000D03*
%TO.P,J2,5,Pin_5*%
%TO.N,/13*%
X128956000Y-49200000D03*
%TO.P,J2,6,Pin_6*%
%TO.N,/12*%
X131496000Y-49200000D03*
%TO.P,J2,7,Pin_7*%
%TO.N,/\u002A11*%
X134036000Y-49200000D03*
%TO.P,J2,8,Pin_8*%
%TO.N,/\u002A10*%
X136576000Y-49200000D03*
%TO.P,J2,9,Pin_9*%
%TO.N,/\u002A9*%
X139116000Y-49200000D03*
%TO.P,J2,10,Pin_10*%
%TO.N,/8*%
X141656000Y-49200000D03*
%TD*%
D18*
%TO.P,J4,1,Pin_1*%
%TO.N,/7*%
X145720000Y-49200000D03*
D19*
%TO.P,J4,2,Pin_2*%
%TO.N,/\u002A6*%
X148260000Y-49200000D03*
%TO.P,J4,3,Pin_3*%
%TO.N,/\u002A5*%
X150800000Y-49200000D03*
%TO.P,J4,4,Pin_4*%
%TO.N,/4*%
X153340000Y-49200000D03*
%TO.P,J4,5,Pin_5*%
%TO.N,/\u002A3*%
X155880000Y-49200000D03*
%TO.P,J4,6,Pin_6*%
%TO.N,/2*%
X158420000Y-49200000D03*
%TO.P,J4,7,Pin_7*%
%TO.N,/TX{slash}1*%
X160960000Y-49200000D03*
%TO.P,J4,8,Pin_8*%
%TO.N,/RX{slash}0*%
X163500000Y-49200000D03*
%TD*%
D20*
%TO.N,/4*%
X158547000Y-83970000D02*
X161000000Y-81517000D01*
X156000000Y-78500000D02*
X155880000Y-78380000D01*
X161000000Y-81517000D02*
X161000000Y-78500000D01*
X155880000Y-78380000D02*
X155880000Y-51740000D01*
X155880000Y-51740000D02*
X153340000Y-49200000D01*
X161000000Y-78500000D02*
X156000000Y-78500000D01*
%TO.N,/2*%
X158547000Y-75870000D02*
X160960000Y-73457000D01*
X160960000Y-73457000D02*
X160960000Y-51740000D01*
X160960000Y-51740000D02*
X158420000Y-49200000D01*
%TO.N,/\u002A5*%
X150800000Y-49200000D02*
X150800000Y-82220000D01*
X156247000Y-82220000D02*
X158547000Y-79920000D01*
X158547000Y-79920000D02*
X158547000Y-79807000D01*
X150800000Y-82220000D02*
X156247000Y-82220000D01*
%TO.N,/\u002A3*%
X158547000Y-71820000D02*
X158547000Y-51867000D01*
X158547000Y-51867000D02*
X155880000Y-49200000D01*
%TO.N,/RX{slash}0*%
X118500000Y-98120000D02*
X119600000Y-97020000D01*
X119600000Y-97020000D02*
X121400000Y-97020000D01*
X121400000Y-97020000D02*
X123500000Y-94920000D01*
%TO.N,+3V3*%
X122400000Y-94464365D02*
X123044365Y-93820000D01*
X123955635Y-93820000D02*
X126790000Y-96654365D01*
X111430000Y-90050000D02*
X117400000Y-96020000D01*
X123044365Y-93820000D02*
X123955635Y-93820000D01*
X111430000Y-86411000D02*
X111430000Y-90050000D01*
X122400000Y-95454315D02*
X122400000Y-94464365D01*
X117400000Y-96020000D02*
X121834315Y-96020000D01*
X126790000Y-96654365D02*
X126790000Y-98610000D01*
X121834315Y-96020000D02*
X122400000Y-95454315D01*
X126790000Y-98610000D02*
X134410000Y-98610000D01*
X134410000Y-98610000D02*
X135560000Y-97460000D01*
%TO.N,Net-(SW6-Pad2)*%
X102000000Y-96540000D02*
X103460000Y-96540000D01*
X103460000Y-96540000D02*
X108890000Y-91110000D01*
X108890000Y-91110000D02*
X108890000Y-86411000D01*
%TD*%
%TA.AperFunction,Conductor*%
%TO.N,GND*%
G36*
X110249032Y-87117816D02*
G01*
X110269125Y-87142799D01*
X110316275Y-87219743D01*
X110316283Y-87219753D01*
X110318975Y-87224147D01*
X110466702Y-87394687D01*
X110640299Y-87538810D01*
X110644751Y-87541412D01*
X110644756Y-87541415D01*
X110759071Y-87608215D01*
X110807794Y-87659854D01*
X110821500Y-87717003D01*
X110821500Y-90001864D01*
X110820422Y-90018307D01*
X110816250Y-90050000D01*
X110821500Y-90089880D01*
X110821500Y-90089885D01*
X110834609Y-90189457D01*
X110837162Y-90208851D01*
X110898476Y-90356876D01*
X110903503Y-90363427D01*
X110903504Y-90363429D01*
X110971520Y-90452069D01*
X110971526Y-90452075D01*
X110996013Y-90483987D01*
X111002568Y-90489017D01*
X111021379Y-90503452D01*
X111033770Y-90514319D01*
X116935681Y-96416229D01*
X116946548Y-96428620D01*
X116960984Y-96447434D01*
X116960987Y-96447437D01*
X116966013Y-96453987D01*
X116972563Y-96459013D01*
X116972567Y-96459017D01*
X116997927Y-96478476D01*
X116997929Y-96478477D01*
X117093124Y-96551524D01*
X117100750Y-96554683D01*
X117100752Y-96554684D01*
X117126341Y-96565283D01*
X117241149Y-96612838D01*
X117249334Y-96613916D01*
X117249336Y-96613916D01*
X117253622Y-96614480D01*
X117360112Y-96628500D01*
X117360124Y-96628501D01*
X117391810Y-96632672D01*
X117391811Y-96632672D01*
X117400000Y-96633750D01*
X117431693Y-96629578D01*
X117448136Y-96628500D01*
X118053634Y-96628500D01*
X118121755Y-96648502D01*
X118168248Y-96702158D01*
X118178352Y-96772432D01*
X118148858Y-96837012D01*
X118086245Y-96876207D01*
X118056067Y-96884293D01*
X118056065Y-96884294D01*
X118050757Y-96885716D01*
X118045776Y-96888039D01*
X118045775Y-96888039D01*
X117848238Y-96980151D01*
X117848233Y-96980154D01*
X117843251Y-96982477D01*
X117782749Y-97024841D01*
X117660211Y-97110643D01*
X117660208Y-97110645D01*
X117655700Y-97113802D01*
X117493802Y-97275700D01*
X117490645Y-97280208D01*
X117490643Y-97280211D01*
X117460648Y-97323049D01*
X117362477Y-97463251D01*
X117360154Y-97468233D01*
X117360151Y-97468238D01*
X117291816Y-97614784D01*
X117265716Y-97670757D01*
X117264294Y-97676065D01*
X117264293Y-97676067D01*
X117225325Y-97821498D01*
X117206457Y-97891913D01*
X117186502Y-98120000D01*
X117206457Y-98348087D01*
X117207881Y-98353400D01*
X117207881Y-98353402D01*
X117247477Y-98501173D01*
X117265716Y-98569243D01*
X117268039Y-98574224D01*
X117268039Y-98574225D01*
X117360151Y-98771762D01*
X117360154Y-98771767D01*
X117362477Y-98776749D01*
X117435902Y-98881611D01*
X117460595Y-98916875D01*
X117493802Y-98964300D01*
X117655700Y-99126198D01*
X117660208Y-99129355D01*
X117660211Y-99129357D01*
X117837757Y-99253676D01*
X117843251Y-99257523D01*
X117843379Y-99257583D01*
X117891226Y-99307766D01*
X117904660Y-99377480D01*
X117878272Y-99443391D01*
X117820439Y-99484571D01*
X117779231Y-99491500D01*
X115144857Y-99491500D01*
X115076736Y-99471498D01*
X115030243Y-99417842D01*
X115020139Y-99347568D01*
X115049633Y-99282988D01*
X115072406Y-99262413D01*
X115244413Y-99141524D01*
X115300023Y-99102441D01*
X115453535Y-98959789D01*
X115507479Y-98909661D01*
X115507481Y-98909658D01*
X115510622Y-98906740D01*
X115692713Y-98684268D01*
X115842927Y-98439142D01*
X115846927Y-98430031D01*
X115956757Y-98179830D01*
X115958483Y-98175898D01*
X115963742Y-98157438D01*
X116036068Y-97903534D01*
X116037244Y-97899406D01*
X116077751Y-97614784D01*
X116077845Y-97596951D01*
X116079235Y-97331583D01*
X116079235Y-97331576D01*
X116079257Y-97327297D01*
X116072376Y-97275026D01*
X116042292Y-97046522D01*
X116041732Y-97042266D01*
X116028543Y-96994053D01*
X115998905Y-96885716D01*
X115965871Y-96764964D01*
X115939082Y-96702158D01*
X115854763Y-96504476D01*
X115854761Y-96504472D01*
X115853077Y-96500524D01*
X115749704Y-96327800D01*
X115707643Y-96257521D01*
X115707640Y-96257517D01*
X115705439Y-96253839D01*
X115525687Y-96029472D01*
X115317149Y-95831577D01*
X115083683Y-95663814D01*
X115061843Y-95652250D01*
X115038654Y-95639972D01*
X114829608Y-95529288D01*
X114559627Y-95430489D01*
X114278736Y-95369245D01*
X114247685Y-95366801D01*
X114055718Y-95351693D01*
X114055709Y-95351693D01*
X114053261Y-95351500D01*
X113897729Y-95351500D01*
X113895593Y-95351646D01*
X113895582Y-95351646D01*
X113687452Y-95365835D01*
X113687446Y-95365836D01*
X113683175Y-95366127D01*
X113678980Y-95366996D01*
X113678978Y-95366996D01*
X113595927Y-95384195D01*
X113401658Y-95424426D01*
X113130657Y-95520393D01*
X112875188Y-95652250D01*
X112871687Y-95654711D01*
X112871683Y-95654713D01*
X112813365Y-95695700D01*
X112639977Y-95817559D01*
X112577266Y-95875834D01*
X112465846Y-95979372D01*
X112429378Y-96013260D01*
X112247287Y-96235732D01*
X112097073Y-96480858D01*
X112095347Y-96484791D01*
X112095346Y-96484792D01*
X112030455Y-96632617D01*
X111981517Y-96744102D01*
X111980342Y-96748229D01*
X111980341Y-96748230D01*
X111957652Y-96827881D01*
X111902756Y-97020594D01*
X111862249Y-97305216D01*
X111862227Y-97309505D01*
X111862226Y-97309512D01*
X111860972Y-97548972D01*
X111860743Y-97592703D01*
X111898268Y-97877734D01*
X111974129Y-98155036D01*
X111975813Y-98158984D01*
X112080591Y-98404630D01*
X112086923Y-98419476D01*
X112133637Y-98497529D01*
X112212105Y-98628639D01*
X112234561Y-98666161D01*
X112414313Y-98890528D01*
X112487299Y-98959789D01*
X112581324Y-99049015D01*
X112622851Y-99088423D01*
X112856317Y-99256186D01*
X112860119Y-99258199D01*
X112860464Y-99258413D01*
X112907819Y-99311309D01*
X112919059Y-99381411D01*
X112890615Y-99446460D01*
X112831518Y-99485806D01*
X112794068Y-99491500D01*
X100811367Y-99491500D01*
X100791982Y-99490000D01*
X100777149Y-99487690D01*
X100777145Y-99487690D01*
X100768276Y-99486309D01*
X100759371Y-99487473D01*
X100750402Y-99487364D01*
X100750412Y-99486550D01*
X100728902Y-99486257D01*
X100703378Y-99482215D01*
X100665884Y-99470033D01*
X100630776Y-99452145D01*
X100598883Y-99428973D01*
X100571027Y-99401117D01*
X100547855Y-99369225D01*
X100529966Y-99334116D01*
X100517785Y-99296622D01*
X100514661Y-99276894D01*
X100513769Y-99250554D01*
X100513576Y-99250552D01*
X100513627Y-99246357D01*
X100513729Y-99238000D01*
X100509773Y-99210376D01*
X100508500Y-99192514D01*
X100508500Y-96986366D01*
X100528502Y-96918245D01*
X100582158Y-96871752D01*
X100652432Y-96861648D01*
X100717012Y-96891142D01*
X100756207Y-96953755D01*
X100760937Y-96971406D01*
X100765716Y-96989243D01*
X100768039Y-96994224D01*
X100768039Y-96994225D01*
X100860151Y-97191762D01*
X100860154Y-97191767D01*
X100862477Y-97196749D01*
X100993802Y-97384300D01*
X101155700Y-97546198D01*
X101160208Y-97549355D01*
X101160211Y-97549357D01*
X101215995Y-97588417D01*
X101343251Y-97677523D01*
X101348233Y-97679846D01*
X101348238Y-97679849D01*
X101494538Y-97748069D01*
X101550757Y-97774284D01*
X101556065Y-97775706D01*
X101556067Y-97775707D01*
X101766598Y-97832119D01*
X101766600Y-97832119D01*
X101771913Y-97833543D01*
X102000000Y-97853498D01*
X102228087Y-97833543D01*
X102233400Y-97832119D01*
X102233402Y-97832119D01*
X102443933Y-97775707D01*
X102443935Y-97775706D01*
X102449243Y-97774284D01*
X102505462Y-97748069D01*
X102651762Y-97679849D01*
X102651767Y-97679846D01*
X102656749Y-97677523D01*
X102784005Y-97588417D01*
X102839789Y-97549357D01*
X102839792Y-97549355D01*
X102844300Y-97546198D01*
X103006198Y-97384300D01*
X103058566Y-97309512D01*
X103133686Y-97202229D01*
X103189143Y-97157901D01*
X103236899Y-97148500D01*
X103411864Y-97148500D01*
X103428307Y-97149578D01*
X103460000Y-97153750D01*
X103468189Y-97152672D01*
X103499874Y-97148501D01*
X103499884Y-97148500D01*
X103499885Y-97148500D01*
X103599457Y-97135391D01*
X103610664Y-97133916D01*
X103610666Y-97133915D01*
X103618851Y-97132838D01*
X103766876Y-97071524D01*
X103805006Y-97042266D01*
X103862072Y-96998477D01*
X103862075Y-96998474D01*
X103867612Y-96994225D01*
X103893987Y-96973987D01*
X103909512Y-96953755D01*
X103913452Y-96948621D01*
X103924319Y-96936230D01*
X104054027Y-96806522D01*
X108337273Y-96806522D01*
X108384764Y-96983761D01*
X108388510Y-96994053D01*
X108480586Y-97191511D01*
X108486069Y-97201007D01*
X108611028Y-97379467D01*
X108618084Y-97387875D01*
X108772125Y-97541916D01*
X108780533Y-97548972D01*
X108958993Y-97673931D01*
X108968489Y-97679414D01*
X109165947Y-97771490D01*
X109176239Y-97775236D01*
X109348503Y-97821394D01*
X109362599Y-97821058D01*
X109366000Y-97813116D01*
X109366000Y-97807967D01*
X109874000Y-97807967D01*
X109877973Y-97821498D01*
X109886522Y-97822727D01*
X110063761Y-97775236D01*
X110074053Y-97771490D01*
X110271511Y-97679414D01*
X110281007Y-97673931D01*
X110459467Y-97548972D01*
X110467875Y-97541916D01*
X110621916Y-97387875D01*
X110628972Y-97379467D01*
X110753931Y-97201007D01*
X110759414Y-97191511D01*
X110851490Y-96994053D01*
X110855236Y-96983761D01*
X110901394Y-96811497D01*
X110901058Y-96797401D01*
X110893116Y-96794000D01*
X109892115Y-96794000D01*
X109876876Y-96798475D01*
X109875671Y-96799865D01*
X109874000Y-96807548D01*
X109874000Y-97807967D01*
X109366000Y-97807967D01*
X109366000Y-96812115D01*
X109361525Y-96796876D01*
X109360135Y-96795671D01*
X109352452Y-96794000D01*
X108352033Y-96794000D01*
X108338502Y-96797973D01*
X108337273Y-96806522D01*
X104054027Y-96806522D01*
X106594027Y-94266522D01*
X108337273Y-94266522D01*
X108384764Y-94443761D01*
X108388510Y-94454053D01*
X108480586Y-94651511D01*
X108486069Y-94661007D01*
X108611028Y-94839467D01*
X108618084Y-94847875D01*
X108772125Y-95001916D01*
X108780533Y-95008972D01*
X108958993Y-95133931D01*
X108968489Y-95139414D01*
X109003641Y-95155805D01*
X109056926Y-95202722D01*
X109076387Y-95270999D01*
X109055845Y-95338959D01*
X109003641Y-95384195D01*
X108968489Y-95400586D01*
X108958993Y-95406069D01*
X108780533Y-95531028D01*
X108772125Y-95538084D01*
X108618084Y-95692125D01*
X108611028Y-95700533D01*
X108486069Y-95878993D01*
X108480586Y-95888489D01*
X108388510Y-96085947D01*
X108384764Y-96096239D01*
X108338606Y-96268503D01*
X108338942Y-96282599D01*
X108346884Y-96286000D01*
X109347885Y-96286000D01*
X109363124Y-96281525D01*
X109364329Y-96280135D01*
X109366000Y-96272452D01*
X109366000Y-96267885D01*
X109874000Y-96267885D01*
X109878475Y-96283124D01*
X109879865Y-96284329D01*
X109887548Y-96286000D01*
X110887967Y-96286000D01*
X110901498Y-96282027D01*
X110902727Y-96273478D01*
X110855236Y-96096239D01*
X110851490Y-96085947D01*
X110759414Y-95888489D01*
X110753931Y-95878993D01*
X110628972Y-95700533D01*
X110621916Y-95692125D01*
X110467875Y-95538084D01*
X110459467Y-95531028D01*
X110281007Y-95406069D01*
X110271511Y-95400586D01*
X110236359Y-95384195D01*
X110183074Y-95337278D01*
X110163613Y-95269001D01*
X110184155Y-95201041D01*
X110236359Y-95155805D01*
X110271511Y-95139414D01*
X110281007Y-95133931D01*
X110459467Y-95008972D01*
X110467875Y-95001916D01*
X110621916Y-94847875D01*
X110628972Y-94839467D01*
X110753931Y-94661007D01*
X110759414Y-94651511D01*
X110851490Y-94454053D01*
X110855236Y-94443761D01*
X110901394Y-94271497D01*
X110901058Y-94257401D01*
X110893116Y-94254000D01*
X109892115Y-94254000D01*
X109876876Y-94258475D01*
X109875671Y-94259865D01*
X109874000Y-94267548D01*
X109874000Y-96267885D01*
X109366000Y-96267885D01*
X109366000Y-94272115D01*
X109361525Y-94256876D01*
X109360135Y-94255671D01*
X109352452Y-94254000D01*
X108352033Y-94254000D01*
X108338502Y-94257973D01*
X108337273Y-94266522D01*
X106594027Y-94266522D01*
X107132046Y-93728503D01*
X108338606Y-93728503D01*
X108338942Y-93742599D01*
X108346884Y-93746000D01*
X109347885Y-93746000D01*
X109363124Y-93741525D01*
X109364329Y-93740135D01*
X109366000Y-93732452D01*
X109366000Y-93727885D01*
X109874000Y-93727885D01*
X109878475Y-93743124D01*
X109879865Y-93744329D01*
X109887548Y-93746000D01*
X110887967Y-93746000D01*
X110901498Y-93742027D01*
X110902727Y-93733478D01*
X110855236Y-93556239D01*
X110851490Y-93545947D01*
X110759414Y-93348489D01*
X110753931Y-93338993D01*
X110628972Y-93160533D01*
X110621916Y-93152125D01*
X110467875Y-92998084D01*
X110459467Y-92991028D01*
X110281007Y-92866069D01*
X110271511Y-92860586D01*
X110074053Y-92768510D01*
X110063761Y-92764764D01*
X109891497Y-92718606D01*
X109877401Y-92718942D01*
X109874000Y-92726884D01*
X109874000Y-93727885D01*
X109366000Y-93727885D01*
X109366000Y-92732033D01*
X109362027Y-92718502D01*
X109353478Y-92717273D01*
X109176239Y-92764764D01*
X109165947Y-92768510D01*
X108968489Y-92860586D01*
X108958993Y-92866069D01*
X108780533Y-92991028D01*
X108772125Y-92998084D01*
X108618084Y-93152125D01*
X108611028Y-93160533D01*
X108486069Y-93338993D01*
X108480586Y-93348489D01*
X108388510Y-93545947D01*
X108384764Y-93556239D01*
X108338606Y-93728503D01*
X107132046Y-93728503D01*
X109286234Y-91574315D01*
X109298625Y-91563448D01*
X109317437Y-91549013D01*
X109323987Y-91543987D01*
X109348474Y-91512075D01*
X109348478Y-91512071D01*
X109421524Y-91416876D01*
X109482838Y-91268851D01*
X109503751Y-91110000D01*
X109499578Y-91078301D01*
X109498500Y-91061856D01*
X109498500Y-87719464D01*
X109518502Y-87651343D01*
X109569065Y-87606315D01*
X109594982Y-87593618D01*
X109599192Y-87590615D01*
X109599197Y-87590612D01*
X109774455Y-87465601D01*
X109774459Y-87465597D01*
X109778667Y-87462596D01*
X109938487Y-87303333D01*
X110059370Y-87135107D01*
X110115364Y-87091459D01*
X110186068Y-87085013D01*
X110249032Y-87117816D01*
G37*
%TD.AperFunction*%
%TA.AperFunction,Conductor*%
G36*
X114133264Y-47188502D02*
G01*
X114179757Y-47242158D01*
X114189861Y-47312432D01*
X114160367Y-47377012D01*
X114137594Y-47397587D01*
X114125163Y-47406324D01*
X113909977Y-47557559D01*
X113894892Y-47571577D01*
X113762632Y-47694481D01*
X113699378Y-47753260D01*
X113517287Y-47975732D01*
X113367073Y-48220858D01*
X113365347Y-48224791D01*
X113365346Y-48224792D01*
X113313835Y-48342138D01*
X113251517Y-48484102D01*
X113250342Y-48488229D01*
X113250341Y-48488230D01*
X113246967Y-48500074D01*
X113172756Y-48760594D01*
X113149182Y-48926235D01*
X113133124Y-49039071D01*
X113132249Y-49045216D01*
X113132227Y-49049505D01*
X113132226Y-49049512D01*
X113130765Y-49328417D01*
X113130743Y-49332703D01*
X113131302Y-49336947D01*
X113131302Y-49336951D01*
X113138249Y-49389715D01*
X113168268Y-49617734D01*
X113244129Y-49895036D01*
X113245813Y-49898984D01*
X113341202Y-50122618D01*
X113356923Y-50159476D01*
X113504561Y-50406161D01*
X113684313Y-50630528D01*
X113892851Y-50828423D01*
X114126317Y-50996186D01*
X114130112Y-50998195D01*
X114130113Y-50998196D01*
X114151869Y-51009715D01*
X114380392Y-51130712D01*
X114404699Y-51139607D01*
X114637273Y-51224717D01*
X114650373Y-51229511D01*
X114931264Y-51290755D01*
X114959841Y-51293004D01*
X115154282Y-51308307D01*
X115154291Y-51308307D01*
X115156739Y-51308500D01*
X115312271Y-51308500D01*
X115314407Y-51308354D01*
X115314418Y-51308354D01*
X115522548Y-51294165D01*
X115522554Y-51294164D01*
X115526825Y-51293873D01*
X115531020Y-51293004D01*
X115531022Y-51293004D01*
X115667584Y-51264723D01*
X115808342Y-51235574D01*
X116079343Y-51139607D01*
X116334812Y-51007750D01*
X116338313Y-51005289D01*
X116338317Y-51005287D01*
X116475410Y-50908936D01*
X116570023Y-50842441D01*
X116715512Y-50707244D01*
X116777479Y-50649661D01*
X116777481Y-50649658D01*
X116780622Y-50646740D01*
X116962713Y-50424268D01*
X117112927Y-50179142D01*
X117116927Y-50170031D01*
X117196127Y-49989607D01*
X117241823Y-49935271D01*
X117309641Y-49914266D01*
X117378049Y-49933260D01*
X117425329Y-49986224D01*
X117437500Y-50040252D01*
X117437500Y-50098134D01*
X117444255Y-50160316D01*
X117495385Y-50296705D01*
X117582739Y-50413261D01*
X117699295Y-50500615D01*
X117835684Y-50551745D01*
X117897866Y-50558500D01*
X119694134Y-50558500D01*
X119756316Y-50551745D01*
X119892705Y-50500615D01*
X120009261Y-50413261D01*
X120096615Y-50296705D01*
X120118799Y-50237529D01*
X120140598Y-50179382D01*
X120183240Y-50122618D01*
X120249802Y-50097918D01*
X120319150Y-50113126D01*
X120353817Y-50141114D01*
X120382250Y-50173938D01*
X120554126Y-50316632D01*
X120747000Y-50429338D01*
X120751825Y-50431180D01*
X120751826Y-50431181D01*
X120824612Y-50458975D01*
X120955692Y-50509030D01*
X120960760Y-50510061D01*
X120960763Y-50510062D01*
X121055862Y-50529410D01*
X121174597Y-50553567D01*
X121179772Y-50553757D01*
X121179774Y-50553757D01*
X121392673Y-50561564D01*
X121392677Y-50561564D01*
X121397837Y-50561753D01*
X121402957Y-50561097D01*
X121402959Y-50561097D01*
X121614288Y-50534025D01*
X121614289Y-50534025D01*
X121619416Y-50533368D01*
X121624376Y-50531880D01*
X121828429Y-50470661D01*
X121828434Y-50470659D01*
X121833384Y-50469174D01*
X122033994Y-50370896D01*
X122215860Y-50241173D01*
X122374096Y-50083489D01*
X122504453Y-49902077D01*
X122505776Y-49903028D01*
X122552645Y-49859857D01*
X122622580Y-49847625D01*
X122688026Y-49875144D01*
X122715875Y-49906994D01*
X122775987Y-50005088D01*
X122922250Y-50173938D01*
X123094126Y-50316632D01*
X123287000Y-50429338D01*
X123291825Y-50431180D01*
X123291826Y-50431181D01*
X123364612Y-50458975D01*
X123495692Y-50509030D01*
X123500760Y-50510061D01*
X123500763Y-50510062D01*
X123595862Y-50529410D01*
X123714597Y-50553567D01*
X123719772Y-50553757D01*
X123719774Y-50553757D01*
X123932673Y-50561564D01*
X123932677Y-50561564D01*
X123937837Y-50561753D01*
X123942957Y-50561097D01*
X123942959Y-50561097D01*
X124154288Y-50534025D01*
X124154289Y-50534025D01*
X124159416Y-50533368D01*
X124164376Y-50531880D01*
X124368429Y-50470661D01*
X124368434Y-50470659D01*
X124373384Y-50469174D01*
X124573994Y-50370896D01*
X124755860Y-50241173D01*
X124914096Y-50083489D01*
X125044453Y-49902077D01*
X125045640Y-49902930D01*
X125092960Y-49859362D01*
X125162897Y-49847145D01*
X125228338Y-49874678D01*
X125256166Y-49906511D01*
X125313694Y-50000388D01*
X125319777Y-50008699D01*
X125459213Y-50169667D01*
X125466580Y-50176883D01*
X125630434Y-50312916D01*
X125638881Y-50318831D01*
X125822756Y-50426279D01*
X125832042Y-50430729D01*
X126031001Y-50506703D01*
X126040899Y-50509579D01*
X126144250Y-50530606D01*
X126158299Y-50529410D01*
X126162000Y-50519065D01*
X126162000Y-50518517D01*
X126670000Y-50518517D01*
X126674064Y-50532359D01*
X126687478Y-50534393D01*
X126694184Y-50533534D01*
X126704262Y-50531392D01*
X126908255Y-50470191D01*
X126917842Y-50466433D01*
X127109095Y-50372739D01*
X127117945Y-50367464D01*
X127291328Y-50243792D01*
X127299200Y-50237139D01*
X127450052Y-50086812D01*
X127456730Y-50078965D01*
X127584022Y-49901819D01*
X127585279Y-49902722D01*
X127632373Y-49859362D01*
X127702311Y-49847145D01*
X127767751Y-49874678D01*
X127795579Y-49906511D01*
X127855987Y-50005088D01*
X128002250Y-50173938D01*
X128174126Y-50316632D01*
X128367000Y-50429338D01*
X128371825Y-50431180D01*
X128371826Y-50431181D01*
X128444612Y-50458975D01*
X128575692Y-50509030D01*
X128580760Y-50510061D01*
X128580763Y-50510062D01*
X128675862Y-50529410D01*
X128794597Y-50553567D01*
X128799772Y-50553757D01*
X128799774Y-50553757D01*
X129012673Y-50561564D01*
X129012677Y-50561564D01*
X129017837Y-50561753D01*
X129022957Y-50561097D01*
X129022959Y-50561097D01*
X129234288Y-50534025D01*
X129234289Y-50534025D01*
X129239416Y-50533368D01*
X129244376Y-50531880D01*
X129448429Y-50470661D01*
X129448434Y-50470659D01*
X129453384Y-50469174D01*
X129653994Y-50370896D01*
X129835860Y-50241173D01*
X129994096Y-50083489D01*
X130124453Y-49902077D01*
X130125776Y-49903028D01*
X130172645Y-49859857D01*
X130242580Y-49847625D01*
X130308026Y-49875144D01*
X130335875Y-49906994D01*
X130395987Y-50005088D01*
X130542250Y-50173938D01*
X130714126Y-50316632D01*
X130907000Y-50429338D01*
X130911825Y-50431180D01*
X130911826Y-50431181D01*
X130984612Y-50458975D01*
X131115692Y-50509030D01*
X131120760Y-50510061D01*
X131120763Y-50510062D01*
X131215862Y-50529410D01*
X131334597Y-50553567D01*
X131339772Y-50553757D01*
X131339774Y-50553757D01*
X131552673Y-50561564D01*
X131552677Y-50561564D01*
X131557837Y-50561753D01*
X131562957Y-50561097D01*
X131562959Y-50561097D01*
X131774288Y-50534025D01*
X131774289Y-50534025D01*
X131779416Y-50533368D01*
X131784376Y-50531880D01*
X131988429Y-50470661D01*
X131988434Y-50470659D01*
X131993384Y-50469174D01*
X132193994Y-50370896D01*
X132375860Y-50241173D01*
X132534096Y-50083489D01*
X132664453Y-49902077D01*
X132665776Y-49903028D01*
X132712645Y-49859857D01*
X132782580Y-49847625D01*
X132848026Y-49875144D01*
X132875875Y-49906994D01*
X132935987Y-50005088D01*
X133082250Y-50173938D01*
X133254126Y-50316632D01*
X133447000Y-50429338D01*
X133451825Y-50431180D01*
X133451826Y-50431181D01*
X133524612Y-50458975D01*
X133655692Y-50509030D01*
X133660760Y-50510061D01*
X133660763Y-50510062D01*
X133755862Y-50529410D01*
X133874597Y-50553567D01*
X133879772Y-50553757D01*
X133879774Y-50553757D01*
X134092673Y-50561564D01*
X134092677Y-50561564D01*
X134097837Y-50561753D01*
X134102957Y-50561097D01*
X134102959Y-50561097D01*
X134314288Y-50534025D01*
X134314289Y-50534025D01*
X134319416Y-50533368D01*
X134324376Y-50531880D01*
X134528429Y-50470661D01*
X134528434Y-50470659D01*
X134533384Y-50469174D01*
X134733994Y-50370896D01*
X134915860Y-50241173D01*
X135074096Y-50083489D01*
X135204453Y-49902077D01*
X135205776Y-49903028D01*
X135252645Y-49859857D01*
X135322580Y-49847625D01*
X135388026Y-49875144D01*
X135415875Y-49906994D01*
X135475987Y-50005088D01*
X135622250Y-50173938D01*
X135794126Y-50316632D01*
X135987000Y-50429338D01*
X135991825Y-50431180D01*
X135991826Y-50431181D01*
X136064612Y-50458975D01*
X136195692Y-50509030D01*
X136200760Y-50510061D01*
X136200763Y-50510062D01*
X136295862Y-50529410D01*
X136414597Y-50553567D01*
X136419772Y-50553757D01*
X136419774Y-50553757D01*
X136632673Y-50561564D01*
X136632677Y-50561564D01*
X136637837Y-50561753D01*
X136642957Y-50561097D01*
X136642959Y-50561097D01*
X136854288Y-50534025D01*
X136854289Y-50534025D01*
X136859416Y-50533368D01*
X136864376Y-50531880D01*
X137068429Y-50470661D01*
X137068434Y-50470659D01*
X137073384Y-50469174D01*
X137273994Y-50370896D01*
X137455860Y-50241173D01*
X137614096Y-50083489D01*
X137744453Y-49902077D01*
X137745776Y-49903028D01*
X137792645Y-49859857D01*
X137862580Y-49847625D01*
X137928026Y-49875144D01*
X137955875Y-49906994D01*
X138015987Y-50005088D01*
X138162250Y-50173938D01*
X138334126Y-50316632D01*
X138527000Y-50429338D01*
X138531825Y-50431180D01*
X138531826Y-50431181D01*
X138604612Y-50458975D01*
X138735692Y-50509030D01*
X138740760Y-50510061D01*
X138740763Y-50510062D01*
X138835862Y-50529410D01*
X138954597Y-50553567D01*
X138959772Y-50553757D01*
X138959774Y-50553757D01*
X139172673Y-50561564D01*
X139172677Y-50561564D01*
X139177837Y-50561753D01*
X139182957Y-50561097D01*
X139182959Y-50561097D01*
X139394288Y-50534025D01*
X139394289Y-50534025D01*
X139399416Y-50533368D01*
X139404376Y-50531880D01*
X139608429Y-50470661D01*
X139608434Y-50470659D01*
X139613384Y-50469174D01*
X139813994Y-50370896D01*
X139995860Y-50241173D01*
X140154096Y-50083489D01*
X140284453Y-49902077D01*
X140285776Y-49903028D01*
X140332645Y-49859857D01*
X140402580Y-49847625D01*
X140468026Y-49875144D01*
X140495875Y-49906994D01*
X140555987Y-50005088D01*
X140702250Y-50173938D01*
X140874126Y-50316632D01*
X141067000Y-50429338D01*
X141071825Y-50431180D01*
X141071826Y-50431181D01*
X141144612Y-50458975D01*
X141275692Y-50509030D01*
X141280760Y-50510061D01*
X141280763Y-50510062D01*
X141375862Y-50529410D01*
X141494597Y-50553567D01*
X141499772Y-50553757D01*
X141499774Y-50553757D01*
X141712673Y-50561564D01*
X141712677Y-50561564D01*
X141717837Y-50561753D01*
X141722957Y-50561097D01*
X141722959Y-50561097D01*
X141934288Y-50534025D01*
X141934289Y-50534025D01*
X141939416Y-50533368D01*
X141944376Y-50531880D01*
X142148429Y-50470661D01*
X142148434Y-50470659D01*
X142153384Y-50469174D01*
X142353994Y-50370896D01*
X142535860Y-50241173D01*
X142694096Y-50083489D01*
X142824453Y-49902077D01*
X142829979Y-49890897D01*
X142921136Y-49706453D01*
X142921137Y-49706451D01*
X142923430Y-49701811D01*
X142988370Y-49488069D01*
X143017529Y-49266590D01*
X143017634Y-49262285D01*
X143019074Y-49203365D01*
X143019074Y-49203361D01*
X143019156Y-49200000D01*
X143000852Y-48977361D01*
X142946431Y-48760702D01*
X142857354Y-48555840D01*
X142792989Y-48456347D01*
X142738822Y-48372617D01*
X142738820Y-48372614D01*
X142736014Y-48368277D01*
X142585670Y-48203051D01*
X142581619Y-48199852D01*
X142581615Y-48199848D01*
X142414414Y-48067800D01*
X142414410Y-48067798D01*
X142410359Y-48064598D01*
X142374028Y-48044542D01*
X142358136Y-48035769D01*
X142214789Y-47956638D01*
X142209920Y-47954914D01*
X142209916Y-47954912D01*
X142009087Y-47883795D01*
X142009083Y-47883794D01*
X142004212Y-47882069D01*
X141999119Y-47881162D01*
X141999116Y-47881161D01*
X141789373Y-47843800D01*
X141789367Y-47843799D01*
X141784284Y-47842894D01*
X141710452Y-47841992D01*
X141566081Y-47840228D01*
X141566079Y-47840228D01*
X141560911Y-47840165D01*
X141340091Y-47873955D01*
X141127756Y-47943357D01*
X140929607Y-48046507D01*
X140925474Y-48049610D01*
X140925471Y-48049612D01*
X140755100Y-48177530D01*
X140750965Y-48180635D01*
X140747393Y-48184373D01*
X140639729Y-48297037D01*
X140596629Y-48342138D01*
X140489201Y-48499621D01*
X140434293Y-48544621D01*
X140363768Y-48552792D01*
X140300021Y-48521538D01*
X140279324Y-48497054D01*
X140198822Y-48372617D01*
X140198820Y-48372614D01*
X140196014Y-48368277D01*
X140045670Y-48203051D01*
X140041619Y-48199852D01*
X140041615Y-48199848D01*
X139874414Y-48067800D01*
X139874410Y-48067798D01*
X139870359Y-48064598D01*
X139834028Y-48044542D01*
X139818136Y-48035769D01*
X139674789Y-47956638D01*
X139669920Y-47954914D01*
X139669916Y-47954912D01*
X139469087Y-47883795D01*
X139469083Y-47883794D01*
X139464212Y-47882069D01*
X139459119Y-47881162D01*
X139459116Y-47881161D01*
X139249373Y-47843800D01*
X139249367Y-47843799D01*
X139244284Y-47842894D01*
X139170452Y-47841992D01*
X139026081Y-47840228D01*
X139026079Y-47840228D01*
X139020911Y-47840165D01*
X138800091Y-47873955D01*
X138587756Y-47943357D01*
X138389607Y-48046507D01*
X138385474Y-48049610D01*
X138385471Y-48049612D01*
X138215100Y-48177530D01*
X138210965Y-48180635D01*
X138207393Y-48184373D01*
X138099729Y-48297037D01*
X138056629Y-48342138D01*
X137949201Y-48499621D01*
X137894293Y-48544621D01*
X137823768Y-48552792D01*
X137760021Y-48521538D01*
X137739324Y-48497054D01*
X137658822Y-48372617D01*
X137658820Y-48372614D01*
X137656014Y-48368277D01*
X137505670Y-48203051D01*
X137501619Y-48199852D01*
X137501615Y-48199848D01*
X137334414Y-48067800D01*
X137334410Y-48067798D01*
X137330359Y-48064598D01*
X137294028Y-48044542D01*
X137278136Y-48035769D01*
X137134789Y-47956638D01*
X137129920Y-47954914D01*
X137129916Y-47954912D01*
X136929087Y-47883795D01*
X136929083Y-47883794D01*
X136924212Y-47882069D01*
X136919119Y-47881162D01*
X136919116Y-47881161D01*
X136709373Y-47843800D01*
X136709367Y-47843799D01*
X136704284Y-47842894D01*
X136630452Y-47841992D01*
X136486081Y-47840228D01*
X136486079Y-47840228D01*
X136480911Y-47840165D01*
X136260091Y-47873955D01*
X136047756Y-47943357D01*
X135849607Y-48046507D01*
X135845474Y-48049610D01*
X135845471Y-48049612D01*
X135675100Y-48177530D01*
X135670965Y-48180635D01*
X135667393Y-48184373D01*
X135559729Y-48297037D01*
X135516629Y-48342138D01*
X135409201Y-48499621D01*
X135354293Y-48544621D01*
X135283768Y-48552792D01*
X135220021Y-48521538D01*
X135199324Y-48497054D01*
X135118822Y-48372617D01*
X135118820Y-48372614D01*
X135116014Y-48368277D01*
X134965670Y-48203051D01*
X134961619Y-48199852D01*
X134961615Y-48199848D01*
X134794414Y-48067800D01*
X134794410Y-48067798D01*
X134790359Y-48064598D01*
X134754028Y-48044542D01*
X134738136Y-48035769D01*
X134594789Y-47956638D01*
X134589920Y-47954914D01*
X134589916Y-47954912D01*
X134389087Y-47883795D01*
X134389083Y-47883794D01*
X134384212Y-47882069D01*
X134379119Y-47881162D01*
X134379116Y-47881161D01*
X134169373Y-47843800D01*
X134169367Y-47843799D01*
X134164284Y-47842894D01*
X134090452Y-47841992D01*
X133946081Y-47840228D01*
X133946079Y-47840228D01*
X133940911Y-47840165D01*
X133720091Y-47873955D01*
X133507756Y-47943357D01*
X133309607Y-48046507D01*
X133305474Y-48049610D01*
X133305471Y-48049612D01*
X133135100Y-48177530D01*
X133130965Y-48180635D01*
X133127393Y-48184373D01*
X133019729Y-48297037D01*
X132976629Y-48342138D01*
X132869201Y-48499621D01*
X132814293Y-48544621D01*
X132743768Y-48552792D01*
X132680021Y-48521538D01*
X132659324Y-48497054D01*
X132578822Y-48372617D01*
X132578820Y-48372614D01*
X132576014Y-48368277D01*
X132425670Y-48203051D01*
X132421619Y-48199852D01*
X132421615Y-48199848D01*
X132254414Y-48067800D01*
X132254410Y-48067798D01*
X132250359Y-48064598D01*
X132214028Y-48044542D01*
X132198136Y-48035769D01*
X132054789Y-47956638D01*
X132049920Y-47954914D01*
X132049916Y-47954912D01*
X131849087Y-47883795D01*
X131849083Y-47883794D01*
X131844212Y-47882069D01*
X131839119Y-47881162D01*
X131839116Y-47881161D01*
X131629373Y-47843800D01*
X131629367Y-47843799D01*
X131624284Y-47842894D01*
X131550452Y-47841992D01*
X131406081Y-47840228D01*
X131406079Y-47840228D01*
X131400911Y-47840165D01*
X131180091Y-47873955D01*
X130967756Y-47943357D01*
X130769607Y-48046507D01*
X130765474Y-48049610D01*
X130765471Y-48049612D01*
X130595100Y-48177530D01*
X130590965Y-48180635D01*
X130587393Y-48184373D01*
X130479729Y-48297037D01*
X130436629Y-48342138D01*
X130329201Y-48499621D01*
X130274293Y-48544621D01*
X130203768Y-48552792D01*
X130140021Y-48521538D01*
X130119324Y-48497054D01*
X130038822Y-48372617D01*
X130038820Y-48372614D01*
X130036014Y-48368277D01*
X129885670Y-48203051D01*
X129881619Y-48199852D01*
X129881615Y-48199848D01*
X129714414Y-48067800D01*
X129714410Y-48067798D01*
X129710359Y-48064598D01*
X129674028Y-48044542D01*
X129658136Y-48035769D01*
X129514789Y-47956638D01*
X129509920Y-47954914D01*
X129509916Y-47954912D01*
X129309087Y-47883795D01*
X129309083Y-47883794D01*
X129304212Y-47882069D01*
X129299119Y-47881162D01*
X129299116Y-47881161D01*
X129089373Y-47843800D01*
X129089367Y-47843799D01*
X129084284Y-47842894D01*
X129010452Y-47841992D01*
X128866081Y-47840228D01*
X128866079Y-47840228D01*
X128860911Y-47840165D01*
X128640091Y-47873955D01*
X128427756Y-47943357D01*
X128229607Y-48046507D01*
X128225474Y-48049610D01*
X128225471Y-48049612D01*
X128055100Y-48177530D01*
X128050965Y-48180635D01*
X128047393Y-48184373D01*
X127939729Y-48297037D01*
X127896629Y-48342138D01*
X127789204Y-48499618D01*
X127788898Y-48500066D01*
X127733987Y-48545069D01*
X127663462Y-48553240D01*
X127599715Y-48521986D01*
X127579018Y-48497502D01*
X127498426Y-48372926D01*
X127492136Y-48364757D01*
X127348806Y-48207240D01*
X127341273Y-48200215D01*
X127174139Y-48068222D01*
X127165552Y-48062517D01*
X126979117Y-47959599D01*
X126969705Y-47955369D01*
X126768959Y-47884280D01*
X126758988Y-47881646D01*
X126687837Y-47868972D01*
X126674540Y-47870432D01*
X126670000Y-47884989D01*
X126670000Y-50518517D01*
X126162000Y-50518517D01*
X126162000Y-47883102D01*
X126158082Y-47869758D01*
X126143806Y-47867771D01*
X126105324Y-47873660D01*
X126095288Y-47876051D01*
X125892868Y-47942212D01*
X125883359Y-47946209D01*
X125694463Y-48044542D01*
X125685738Y-48050036D01*
X125515433Y-48177905D01*
X125507726Y-48184748D01*
X125360590Y-48338717D01*
X125354109Y-48346722D01*
X125249498Y-48500074D01*
X125194587Y-48545076D01*
X125124062Y-48553247D01*
X125060315Y-48521993D01*
X125039618Y-48497509D01*
X124958822Y-48372617D01*
X124958820Y-48372614D01*
X124956014Y-48368277D01*
X124805670Y-48203051D01*
X124801619Y-48199852D01*
X124801615Y-48199848D01*
X124634414Y-48067800D01*
X124634410Y-48067798D01*
X124630359Y-48064598D01*
X124594028Y-48044542D01*
X124578136Y-48035769D01*
X124434789Y-47956638D01*
X124429920Y-47954914D01*
X124429916Y-47954912D01*
X124229087Y-47883795D01*
X124229083Y-47883794D01*
X124224212Y-47882069D01*
X124219119Y-47881162D01*
X124219116Y-47881161D01*
X124009373Y-47843800D01*
X124009367Y-47843799D01*
X124004284Y-47842894D01*
X123930452Y-47841992D01*
X123786081Y-47840228D01*
X123786079Y-47840228D01*
X123780911Y-47840165D01*
X123560091Y-47873955D01*
X123347756Y-47943357D01*
X123149607Y-48046507D01*
X123145474Y-48049610D01*
X123145471Y-48049612D01*
X122975100Y-48177530D01*
X122970965Y-48180635D01*
X122967393Y-48184373D01*
X122859729Y-48297037D01*
X122816629Y-48342138D01*
X122709201Y-48499621D01*
X122654293Y-48544621D01*
X122583768Y-48552792D01*
X122520021Y-48521538D01*
X122499324Y-48497054D01*
X122418822Y-48372617D01*
X122418820Y-48372614D01*
X122416014Y-48368277D01*
X122265670Y-48203051D01*
X122261619Y-48199852D01*
X122261615Y-48199848D01*
X122094414Y-48067800D01*
X122094410Y-48067798D01*
X122090359Y-48064598D01*
X122054028Y-48044542D01*
X122038136Y-48035769D01*
X121894789Y-47956638D01*
X121889920Y-47954914D01*
X121889916Y-47954912D01*
X121689087Y-47883795D01*
X121689083Y-47883794D01*
X121684212Y-47882069D01*
X121679119Y-47881162D01*
X121679116Y-47881161D01*
X121469373Y-47843800D01*
X121469367Y-47843799D01*
X121464284Y-47842894D01*
X121390452Y-47841992D01*
X121246081Y-47840228D01*
X121246079Y-47840228D01*
X121240911Y-47840165D01*
X121020091Y-47873955D01*
X120807756Y-47943357D01*
X120609607Y-48046507D01*
X120605474Y-48049610D01*
X120605471Y-48049612D01*
X120435100Y-48177530D01*
X120430965Y-48180635D01*
X120374537Y-48239684D01*
X120350283Y-48265064D01*
X120288759Y-48300494D01*
X120217846Y-48297037D01*
X120160060Y-48255791D01*
X120141207Y-48222243D01*
X120099767Y-48111703D01*
X120096615Y-48103295D01*
X120009261Y-47986739D01*
X119892705Y-47899385D01*
X119756316Y-47848255D01*
X119694134Y-47841500D01*
X117897866Y-47841500D01*
X117835684Y-47848255D01*
X117699295Y-47899385D01*
X117582739Y-47986739D01*
X117495385Y-48103295D01*
X117444255Y-48239684D01*
X117437500Y-48301866D01*
X117437500Y-48361123D01*
X117417498Y-48429244D01*
X117363842Y-48475737D01*
X117293568Y-48485841D01*
X117228988Y-48456347D01*
X117195603Y-48410558D01*
X117124763Y-48244476D01*
X117124761Y-48244472D01*
X117123077Y-48240524D01*
X117019704Y-48067800D01*
X116977643Y-47997521D01*
X116977640Y-47997517D01*
X116975439Y-47993839D01*
X116795687Y-47769472D01*
X116587149Y-47571577D01*
X116353683Y-47403814D01*
X116349881Y-47401801D01*
X116349536Y-47401587D01*
X116302181Y-47348691D01*
X116290941Y-47278589D01*
X116319385Y-47213540D01*
X116378482Y-47174194D01*
X116415932Y-47168500D01*
X163237183Y-47168500D01*
X163305304Y-47188502D01*
X163326278Y-47205405D01*
X163753042Y-47632169D01*
X163787068Y-47694481D01*
X163782003Y-47765296D01*
X163739456Y-47822132D01*
X163672936Y-47846943D01*
X163641855Y-47845311D01*
X163628284Y-47842894D01*
X163554452Y-47841992D01*
X163410081Y-47840228D01*
X163410079Y-47840228D01*
X163404911Y-47840165D01*
X163184091Y-47873955D01*
X162971756Y-47943357D01*
X162773607Y-48046507D01*
X162769474Y-48049610D01*
X162769471Y-48049612D01*
X162599100Y-48177530D01*
X162594965Y-48180635D01*
X162591393Y-48184373D01*
X162483729Y-48297037D01*
X162440629Y-48342138D01*
X162333201Y-48499621D01*
X162278293Y-48544621D01*
X162207768Y-48552792D01*
X162144021Y-48521538D01*
X162123324Y-48497054D01*
X162042822Y-48372617D01*
X162042820Y-48372614D01*
X162040014Y-48368277D01*
X161889670Y-48203051D01*
X161885619Y-48199852D01*
X161885615Y-48199848D01*
X161718414Y-48067800D01*
X161718410Y-48067798D01*
X161714359Y-48064598D01*
X161678028Y-48044542D01*
X161662136Y-48035769D01*
X161518789Y-47956638D01*
X161513920Y-47954914D01*
X161513916Y-47954912D01*
X161313087Y-47883795D01*
X161313083Y-47883794D01*
X161308212Y-47882069D01*
X161303119Y-47881162D01*
X161303116Y-47881161D01*
X161093373Y-47843800D01*
X161093367Y-47843799D01*
X161088284Y-47842894D01*
X161014452Y-47841992D01*
X160870081Y-47840228D01*
X160870079Y-47840228D01*
X160864911Y-47840165D01*
X160644091Y-47873955D01*
X160431756Y-47943357D01*
X160233607Y-48046507D01*
X160229474Y-48049610D01*
X160229471Y-48049612D01*
X160059100Y-48177530D01*
X160054965Y-48180635D01*
X160051393Y-48184373D01*
X159943729Y-48297037D01*
X159900629Y-48342138D01*
X159793201Y-48499621D01*
X159738293Y-48544621D01*
X159667768Y-48552792D01*
X159604021Y-48521538D01*
X159583324Y-48497054D01*
X159502822Y-48372617D01*
X159502820Y-48372614D01*
X159500014Y-48368277D01*
X159349670Y-48203051D01*
X159345619Y-48199852D01*
X159345615Y-48199848D01*
X159178414Y-48067800D01*
X159178410Y-48067798D01*
X159174359Y-48064598D01*
X159138028Y-48044542D01*
X159122136Y-48035769D01*
X158978789Y-47956638D01*
X158973920Y-47954914D01*
X158973916Y-47954912D01*
X158773087Y-47883795D01*
X158773083Y-47883794D01*
X158768212Y-47882069D01*
X158763119Y-47881162D01*
X158763116Y-47881161D01*
X158553373Y-47843800D01*
X158553367Y-47843799D01*
X158548284Y-47842894D01*
X158474452Y-47841992D01*
X158330081Y-47840228D01*
X158330079Y-47840228D01*
X158324911Y-47840165D01*
X158104091Y-47873955D01*
X157891756Y-47943357D01*
X157693607Y-48046507D01*
X157689474Y-48049610D01*
X157689471Y-48049612D01*
X157519100Y-48177530D01*
X157514965Y-48180635D01*
X157511393Y-48184373D01*
X157403729Y-48297037D01*
X157360629Y-48342138D01*
X157253201Y-48499621D01*
X157198293Y-48544621D01*
X157127768Y-48552792D01*
X157064021Y-48521538D01*
X157043324Y-48497054D01*
X156962822Y-48372617D01*
X156962820Y-48372614D01*
X156960014Y-48368277D01*
X156809670Y-48203051D01*
X156805619Y-48199852D01*
X156805615Y-48199848D01*
X156638414Y-48067800D01*
X156638410Y-48067798D01*
X156634359Y-48064598D01*
X156598028Y-48044542D01*
X156582136Y-48035769D01*
X156438789Y-47956638D01*
X156433920Y-47954914D01*
X156433916Y-47954912D01*
X156233087Y-47883795D01*
X156233083Y-47883794D01*
X156228212Y-47882069D01*
X156223119Y-47881162D01*
X156223116Y-47881161D01*
X156013373Y-47843800D01*
X156013367Y-47843799D01*
X156008284Y-47842894D01*
X155934452Y-47841992D01*
X155790081Y-47840228D01*
X155790079Y-47840228D01*
X155784911Y-47840165D01*
X155564091Y-47873955D01*
X155351756Y-47943357D01*
X155153607Y-48046507D01*
X155149474Y-48049610D01*
X155149471Y-48049612D01*
X154979100Y-48177530D01*
X154974965Y-48180635D01*
X154971393Y-48184373D01*
X154863729Y-48297037D01*
X154820629Y-48342138D01*
X154713201Y-48499621D01*
X154658293Y-48544621D01*
X154587768Y-48552792D01*
X154524021Y-48521538D01*
X154503324Y-48497054D01*
X154422822Y-48372617D01*
X154422820Y-48372614D01*
X154420014Y-48368277D01*
X154269670Y-48203051D01*
X154265619Y-48199852D01*
X154265615Y-48199848D01*
X154098414Y-48067800D01*
X154098410Y-48067798D01*
X154094359Y-48064598D01*
X154058028Y-48044542D01*
X154042136Y-48035769D01*
X153898789Y-47956638D01*
X153893920Y-47954914D01*
X153893916Y-47954912D01*
X153693087Y-47883795D01*
X153693083Y-47883794D01*
X153688212Y-47882069D01*
X153683119Y-47881162D01*
X153683116Y-47881161D01*
X153473373Y-47843800D01*
X153473367Y-47843799D01*
X153468284Y-47842894D01*
X153394452Y-47841992D01*
X153250081Y-47840228D01*
X153250079Y-47840228D01*
X153244911Y-47840165D01*
X153024091Y-47873955D01*
X152811756Y-47943357D01*
X152613607Y-48046507D01*
X152609474Y-48049610D01*
X152609471Y-48049612D01*
X152439100Y-48177530D01*
X152434965Y-48180635D01*
X152431393Y-48184373D01*
X152323729Y-48297037D01*
X152280629Y-48342138D01*
X152173201Y-48499621D01*
X152118293Y-48544621D01*
X152047768Y-48552792D01*
X151984021Y-48521538D01*
X151963324Y-48497054D01*
X151882822Y-48372617D01*
X151882820Y-48372614D01*
X151880014Y-48368277D01*
X151729670Y-48203051D01*
X151725619Y-48199852D01*
X151725615Y-48199848D01*
X151558414Y-48067800D01*
X151558410Y-48067798D01*
X151554359Y-48064598D01*
X151518028Y-48044542D01*
X151502136Y-48035769D01*
X151358789Y-47956638D01*
X151353920Y-47954914D01*
X151353916Y-47954912D01*
X151153087Y-47883795D01*
X151153083Y-47883794D01*
X151148212Y-47882069D01*
X151143119Y-47881162D01*
X151143116Y-47881161D01*
X150933373Y-47843800D01*
X150933367Y-47843799D01*
X150928284Y-47842894D01*
X150854452Y-47841992D01*
X150710081Y-47840228D01*
X150710079Y-47840228D01*
X150704911Y-47840165D01*
X150484091Y-47873955D01*
X150271756Y-47943357D01*
X150073607Y-48046507D01*
X150069474Y-48049610D01*
X150069471Y-48049612D01*
X149899100Y-48177530D01*
X149894965Y-48180635D01*
X149891393Y-48184373D01*
X149783729Y-48297037D01*
X149740629Y-48342138D01*
X149633201Y-48499621D01*
X149578293Y-48544621D01*
X149507768Y-48552792D01*
X149444021Y-48521538D01*
X149423324Y-48497054D01*
X149342822Y-48372617D01*
X149342820Y-48372614D01*
X149340014Y-48368277D01*
X149189670Y-48203051D01*
X149185619Y-48199852D01*
X149185615Y-48199848D01*
X149018414Y-48067800D01*
X149018410Y-48067798D01*
X149014359Y-48064598D01*
X148978028Y-48044542D01*
X148962136Y-48035769D01*
X148818789Y-47956638D01*
X148813920Y-47954914D01*
X148813916Y-47954912D01*
X148613087Y-47883795D01*
X148613083Y-47883794D01*
X148608212Y-47882069D01*
X148603119Y-47881162D01*
X148603116Y-47881161D01*
X148393373Y-47843800D01*
X148393367Y-47843799D01*
X148388284Y-47842894D01*
X148314452Y-47841992D01*
X148170081Y-47840228D01*
X148170079Y-47840228D01*
X148164911Y-47840165D01*
X147944091Y-47873955D01*
X147731756Y-47943357D01*
X147533607Y-48046507D01*
X147529474Y-48049610D01*
X147529471Y-48049612D01*
X147359100Y-48177530D01*
X147354965Y-48180635D01*
X147298537Y-48239684D01*
X147274283Y-48265064D01*
X147212759Y-48300494D01*
X147141846Y-48297037D01*
X147084060Y-48255791D01*
X147065207Y-48222243D01*
X147023767Y-48111703D01*
X147020615Y-48103295D01*
X146933261Y-47986739D01*
X146816705Y-47899385D01*
X146680316Y-47848255D01*
X146618134Y-47841500D01*
X144821866Y-47841500D01*
X144759684Y-47848255D01*
X144623295Y-47899385D01*
X144506739Y-47986739D01*
X144419385Y-48103295D01*
X144368255Y-48239684D01*
X144361500Y-48301866D01*
X144361500Y-50098134D01*
X144368255Y-50160316D01*
X144419385Y-50296705D01*
X144506739Y-50413261D01*
X144623295Y-50500615D01*
X144759684Y-50551745D01*
X144821866Y-50558500D01*
X146618134Y-50558500D01*
X146680316Y-50551745D01*
X146816705Y-50500615D01*
X146933261Y-50413261D01*
X147020615Y-50296705D01*
X147042799Y-50237529D01*
X147064598Y-50179382D01*
X147107240Y-50122618D01*
X147173802Y-50097918D01*
X147243150Y-50113126D01*
X147277817Y-50141114D01*
X147306250Y-50173938D01*
X147478126Y-50316632D01*
X147671000Y-50429338D01*
X147675825Y-50431180D01*
X147675826Y-50431181D01*
X147748612Y-50458975D01*
X147879692Y-50509030D01*
X147884760Y-50510061D01*
X147884763Y-50510062D01*
X147979862Y-50529410D01*
X148098597Y-50553567D01*
X148103772Y-50553757D01*
X148103774Y-50553757D01*
X148316673Y-50561564D01*
X148316677Y-50561564D01*
X148321837Y-50561753D01*
X148326957Y-50561097D01*
X148326959Y-50561097D01*
X148538288Y-50534025D01*
X148538289Y-50534025D01*
X148543416Y-50533368D01*
X148548376Y-50531880D01*
X148752429Y-50470661D01*
X148752434Y-50470659D01*
X148757384Y-50469174D01*
X148957994Y-50370896D01*
X149139860Y-50241173D01*
X149298096Y-50083489D01*
X149428453Y-49902077D01*
X149429776Y-49903028D01*
X149476645Y-49859857D01*
X149546580Y-49847625D01*
X149612026Y-49875144D01*
X149639875Y-49906994D01*
X149699987Y-50005088D01*
X149846250Y-50173938D01*
X150018126Y-50316632D01*
X150105853Y-50367895D01*
X150129070Y-50381462D01*
X150177794Y-50433100D01*
X150191500Y-50490250D01*
X150191500Y-82171857D01*
X150190422Y-82188303D01*
X150186249Y-82220000D01*
X150191500Y-82259885D01*
X150207162Y-82378850D01*
X150268476Y-82526875D01*
X150317244Y-82590431D01*
X150360984Y-82647434D01*
X150360987Y-82647437D01*
X150366013Y-82653987D01*
X150372563Y-82659013D01*
X150372564Y-82659014D01*
X150457557Y-82724232D01*
X150493124Y-82751524D01*
X150500750Y-82754683D01*
X150500752Y-82754684D01*
X150633520Y-82809678D01*
X150633523Y-82809679D01*
X150641150Y-82812838D01*
X150800000Y-82833751D01*
X150808188Y-82832673D01*
X150831697Y-82829578D01*
X150848143Y-82828500D01*
X156198864Y-82828500D01*
X156215307Y-82829578D01*
X156247000Y-82833750D01*
X156255189Y-82832672D01*
X156286874Y-82828501D01*
X156286884Y-82828500D01*
X156286885Y-82828500D01*
X156386457Y-82815391D01*
X156397664Y-82813916D01*
X156397666Y-82813915D01*
X156405851Y-82812838D01*
X156553876Y-82751524D01*
X156574478Y-82735716D01*
X156649072Y-82678477D01*
X156649075Y-82678474D01*
X156674434Y-82659015D01*
X156680987Y-82653987D01*
X156686017Y-82647432D01*
X156700452Y-82628621D01*
X156711319Y-82616230D01*
X158105868Y-81221681D01*
X158168180Y-81187655D01*
X158227574Y-81189069D01*
X158313598Y-81212119D01*
X158313600Y-81212119D01*
X158318913Y-81213543D01*
X158547000Y-81233498D01*
X158775087Y-81213543D01*
X158780400Y-81212119D01*
X158780402Y-81212119D01*
X158990933Y-81155707D01*
X158990935Y-81155706D01*
X158996243Y-81154284D01*
X159001225Y-81151961D01*
X159198762Y-81059849D01*
X159198767Y-81059846D01*
X159203749Y-81057523D01*
X159331911Y-80967783D01*
X159386789Y-80929357D01*
X159386792Y-80929355D01*
X159391300Y-80926198D01*
X159553198Y-80764300D01*
X159595090Y-80704473D01*
X159681366Y-80581257D01*
X159684523Y-80576749D01*
X159686846Y-80571767D01*
X159686849Y-80571762D01*
X159778961Y-80374225D01*
X159778961Y-80374224D01*
X159781284Y-80369243D01*
X159783458Y-80361132D01*
X159839119Y-80153402D01*
X159839119Y-80153400D01*
X159840543Y-80148087D01*
X159860498Y-79920000D01*
X159840543Y-79691913D01*
X159781284Y-79470757D01*
X159695947Y-79287750D01*
X159685286Y-79217558D01*
X159714266Y-79152745D01*
X159773686Y-79113889D01*
X159810142Y-79108500D01*
X160265500Y-79108500D01*
X160333621Y-79128502D01*
X160380114Y-79182158D01*
X160391500Y-79234500D01*
X160391500Y-81212761D01*
X160371498Y-81280882D01*
X160354595Y-81301856D01*
X158988132Y-82668319D01*
X158925820Y-82702345D01*
X158866426Y-82700931D01*
X158780402Y-82677881D01*
X158780400Y-82677881D01*
X158775087Y-82676457D01*
X158547000Y-82656502D01*
X158318913Y-82676457D01*
X158313600Y-82677881D01*
X158313598Y-82677881D01*
X158103067Y-82734293D01*
X158103065Y-82734294D01*
X158097757Y-82735716D01*
X158092776Y-82738039D01*
X158092775Y-82738039D01*
X157895238Y-82830151D01*
X157895233Y-82830154D01*
X157890251Y-82832477D01*
X157839676Y-82867890D01*
X157707211Y-82960643D01*
X157707208Y-82960645D01*
X157702700Y-82963802D01*
X157540802Y-83125700D01*
X157537645Y-83130208D01*
X157537643Y-83130211D01*
X157495120Y-83190940D01*
X157409477Y-83313251D01*
X157407154Y-83318233D01*
X157407151Y-83318238D01*
X157345382Y-83450704D01*
X157312716Y-83520757D01*
X157311294Y-83526065D01*
X157311293Y-83526067D01*
X157277931Y-83650574D01*
X157253457Y-83741913D01*
X157233502Y-83970000D01*
X157253457Y-84198087D01*
X157254881Y-84203400D01*
X157254881Y-84203402D01*
X157302865Y-84382477D01*
X157312716Y-84419243D01*
X157315039Y-84424224D01*
X157315039Y-84424225D01*
X157407151Y-84621762D01*
X157407154Y-84621767D01*
X157409477Y-84626749D01*
X157449668Y-84684147D01*
X157502174Y-84759133D01*
X157540802Y-84814300D01*
X157702700Y-84976198D01*
X157707208Y-84979355D01*
X157707211Y-84979357D01*
X157757812Y-85014788D01*
X157890251Y-85107523D01*
X157895233Y-85109846D01*
X157895238Y-85109849D01*
X158069953Y-85191319D01*
X158097757Y-85204284D01*
X158103065Y-85205706D01*
X158103067Y-85205707D01*
X158313598Y-85262119D01*
X158313600Y-85262119D01*
X158318913Y-85263543D01*
X158547000Y-85283498D01*
X158775087Y-85263543D01*
X158780400Y-85262119D01*
X158780402Y-85262119D01*
X158990933Y-85205707D01*
X158990935Y-85205706D01*
X158996243Y-85204284D01*
X159024047Y-85191319D01*
X159198762Y-85109849D01*
X159198767Y-85109846D01*
X159203749Y-85107523D01*
X159336188Y-85014788D01*
X159386789Y-84979357D01*
X159386792Y-84979355D01*
X159391300Y-84976198D01*
X159553198Y-84814300D01*
X159591827Y-84759133D01*
X159644332Y-84684147D01*
X159684523Y-84626749D01*
X159686846Y-84621767D01*
X159686849Y-84621762D01*
X159778961Y-84424225D01*
X159778961Y-84424224D01*
X159781284Y-84419243D01*
X159791136Y-84382477D01*
X159839119Y-84203402D01*
X159839119Y-84203400D01*
X159840543Y-84198087D01*
X159860498Y-83970000D01*
X164853502Y-83970000D01*
X164873457Y-84198087D01*
X164874881Y-84203400D01*
X164874881Y-84203402D01*
X164922865Y-84382477D01*
X164932716Y-84419243D01*
X164935039Y-84424224D01*
X164935039Y-84424225D01*
X165027151Y-84621762D01*
X165027154Y-84621767D01*
X165029477Y-84626749D01*
X165069668Y-84684147D01*
X165122174Y-84759133D01*
X165160802Y-84814300D01*
X165322700Y-84976198D01*
X165327208Y-84979355D01*
X165327211Y-84979357D01*
X165377812Y-85014788D01*
X165510251Y-85107523D01*
X165515233Y-85109846D01*
X165515238Y-85109849D01*
X165689953Y-85191319D01*
X165717757Y-85204284D01*
X165723065Y-85205706D01*
X165723067Y-85205707D01*
X165933598Y-85262119D01*
X165933600Y-85262119D01*
X165938913Y-85263543D01*
X166167000Y-85283498D01*
X166395087Y-85263543D01*
X166400400Y-85262119D01*
X166400402Y-85262119D01*
X166610933Y-85205707D01*
X166610935Y-85205706D01*
X166616243Y-85204284D01*
X166644047Y-85191319D01*
X166818762Y-85109849D01*
X166818767Y-85109846D01*
X166823749Y-85107523D01*
X166956188Y-85014788D01*
X167006789Y-84979357D01*
X167006792Y-84979355D01*
X167011300Y-84976198D01*
X167173198Y-84814300D01*
X167211827Y-84759133D01*
X167264332Y-84684147D01*
X167304523Y-84626749D01*
X167306846Y-84621767D01*
X167306849Y-84621762D01*
X167398961Y-84424225D01*
X167398961Y-84424224D01*
X167401284Y-84419243D01*
X167411136Y-84382477D01*
X167459119Y-84203402D01*
X167459119Y-84203400D01*
X167460543Y-84198087D01*
X167480498Y-83970000D01*
X167460543Y-83741913D01*
X167436069Y-83650574D01*
X167402707Y-83526067D01*
X167402706Y-83526065D01*
X167401284Y-83520757D01*
X167368618Y-83450704D01*
X167306849Y-83318238D01*
X167306846Y-83318233D01*
X167304523Y-83313251D01*
X167218880Y-83190940D01*
X167176357Y-83130211D01*
X167176355Y-83130208D01*
X167173198Y-83125700D01*
X167011300Y-82963802D01*
X167006792Y-82960645D01*
X167006789Y-82960643D01*
X166874324Y-82867890D01*
X166823749Y-82832477D01*
X166818767Y-82830154D01*
X166818762Y-82830151D01*
X166621225Y-82738039D01*
X166621224Y-82738039D01*
X166616243Y-82735716D01*
X166610935Y-82734294D01*
X166610933Y-82734293D01*
X166400402Y-82677881D01*
X166400400Y-82677881D01*
X166395087Y-82676457D01*
X166167000Y-82656502D01*
X165938913Y-82676457D01*
X165933600Y-82677881D01*
X165933598Y-82677881D01*
X165723067Y-82734293D01*
X165723065Y-82734294D01*
X165717757Y-82735716D01*
X165712776Y-82738039D01*
X165712775Y-82738039D01*
X165515238Y-82830151D01*
X165515233Y-82830154D01*
X165510251Y-82832477D01*
X165459676Y-82867890D01*
X165327211Y-82960643D01*
X165327208Y-82960645D01*
X165322700Y-82963802D01*
X165160802Y-83125700D01*
X165157645Y-83130208D01*
X165157643Y-83130211D01*
X165115120Y-83190940D01*
X165029477Y-83313251D01*
X165027154Y-83318233D01*
X165027151Y-83318238D01*
X164965382Y-83450704D01*
X164932716Y-83520757D01*
X164931294Y-83526065D01*
X164931293Y-83526067D01*
X164897931Y-83650574D01*
X164873457Y-83741913D01*
X164853502Y-83970000D01*
X159860498Y-83970000D01*
X159840543Y-83741913D01*
X159838924Y-83735869D01*
X159816069Y-83650574D01*
X159817759Y-83579597D01*
X159848681Y-83528868D01*
X161396234Y-81981315D01*
X161408625Y-81970448D01*
X161427437Y-81956013D01*
X161433987Y-81950987D01*
X161458474Y-81919075D01*
X161458478Y-81919071D01*
X161531524Y-81823876D01*
X161592838Y-81675851D01*
X161601310Y-81611500D01*
X161608500Y-81556885D01*
X161608500Y-81556880D01*
X161613750Y-81517000D01*
X161609578Y-81485307D01*
X161608500Y-81468864D01*
X161608500Y-79920000D01*
X164853502Y-79920000D01*
X164873457Y-80148087D01*
X164874881Y-80153400D01*
X164874881Y-80153402D01*
X164930543Y-80361132D01*
X164932716Y-80369243D01*
X164935039Y-80374224D01*
X164935039Y-80374225D01*
X165027151Y-80571762D01*
X165027154Y-80571767D01*
X165029477Y-80576749D01*
X165032634Y-80581257D01*
X165118911Y-80704473D01*
X165160802Y-80764300D01*
X165322700Y-80926198D01*
X165327208Y-80929355D01*
X165327211Y-80929357D01*
X165382089Y-80967783D01*
X165510251Y-81057523D01*
X165515233Y-81059846D01*
X165515238Y-81059849D01*
X165712775Y-81151961D01*
X165717757Y-81154284D01*
X165723065Y-81155706D01*
X165723067Y-81155707D01*
X165933598Y-81212119D01*
X165933600Y-81212119D01*
X165938913Y-81213543D01*
X166167000Y-81233498D01*
X166395087Y-81213543D01*
X166400400Y-81212119D01*
X166400402Y-81212119D01*
X166610933Y-81155707D01*
X166610935Y-81155706D01*
X166616243Y-81154284D01*
X166621225Y-81151961D01*
X166818762Y-81059849D01*
X166818767Y-81059846D01*
X166823749Y-81057523D01*
X166951911Y-80967783D01*
X167006789Y-80929357D01*
X167006792Y-80929355D01*
X167011300Y-80926198D01*
X167173198Y-80764300D01*
X167215090Y-80704473D01*
X167301366Y-80581257D01*
X167304523Y-80576749D01*
X167306846Y-80571767D01*
X167306849Y-80571762D01*
X167398961Y-80374225D01*
X167398961Y-80374224D01*
X167401284Y-80369243D01*
X167403458Y-80361132D01*
X167459119Y-80153402D01*
X167459119Y-80153400D01*
X167460543Y-80148087D01*
X167480498Y-79920000D01*
X167460543Y-79691913D01*
X167401284Y-79470757D01*
X167359773Y-79381736D01*
X167306849Y-79268238D01*
X167306846Y-79268233D01*
X167304523Y-79263251D01*
X167211472Y-79130361D01*
X167176357Y-79080211D01*
X167176355Y-79080208D01*
X167173198Y-79075700D01*
X167011300Y-78913802D01*
X167006792Y-78910645D01*
X167006789Y-78910643D01*
X166928611Y-78855902D01*
X166823749Y-78782477D01*
X166818767Y-78780154D01*
X166818762Y-78780151D01*
X166621225Y-78688039D01*
X166621224Y-78688039D01*
X166616243Y-78685716D01*
X166610935Y-78684294D01*
X166610933Y-78684293D01*
X166400402Y-78627881D01*
X166400400Y-78627881D01*
X166395087Y-78626457D01*
X166167000Y-78606502D01*
X165938913Y-78626457D01*
X165933600Y-78627881D01*
X165933598Y-78627881D01*
X165723067Y-78684293D01*
X165723065Y-78684294D01*
X165717757Y-78685716D01*
X165712776Y-78688039D01*
X165712775Y-78688039D01*
X165515238Y-78780151D01*
X165515233Y-78780154D01*
X165510251Y-78782477D01*
X165405389Y-78855902D01*
X165327211Y-78910643D01*
X165327208Y-78910645D01*
X165322700Y-78913802D01*
X165160802Y-79075700D01*
X165157645Y-79080208D01*
X165157643Y-79080211D01*
X165122528Y-79130361D01*
X165029477Y-79263251D01*
X165027154Y-79268233D01*
X165027151Y-79268238D01*
X164974227Y-79381736D01*
X164932716Y-79470757D01*
X164873457Y-79691913D01*
X164853502Y-79920000D01*
X161608500Y-79920000D01*
X161608500Y-78548143D01*
X161609578Y-78531697D01*
X161612673Y-78508188D01*
X161613751Y-78500000D01*
X161592838Y-78341150D01*
X161531524Y-78193125D01*
X161482755Y-78129569D01*
X161439016Y-78072566D01*
X161439013Y-78072563D01*
X161433987Y-78066013D01*
X161306876Y-77968476D01*
X161299250Y-77965317D01*
X161299248Y-77965316D01*
X161166480Y-77910322D01*
X161166477Y-77910321D01*
X161158850Y-77907162D01*
X161000000Y-77886249D01*
X160991812Y-77887327D01*
X160968303Y-77890422D01*
X160951857Y-77891500D01*
X156614500Y-77891500D01*
X156546379Y-77871498D01*
X156499886Y-77817842D01*
X156488500Y-77765500D01*
X156488500Y-51788136D01*
X156489578Y-51771690D01*
X156492672Y-51748188D01*
X156493750Y-51740000D01*
X156488500Y-51700122D01*
X156488500Y-51700115D01*
X156472838Y-51581150D01*
X156411524Y-51433125D01*
X156381625Y-51394160D01*
X156338477Y-51337928D01*
X156338474Y-51337925D01*
X156313987Y-51306013D01*
X156298547Y-51294165D01*
X156288621Y-51286548D01*
X156276230Y-51275681D01*
X155774617Y-50774068D01*
X155740591Y-50711756D01*
X155745656Y-50640941D01*
X155788203Y-50584105D01*
X155854723Y-50559294D01*
X155868328Y-50559058D01*
X155936672Y-50561564D01*
X155936677Y-50561564D01*
X155941837Y-50561753D01*
X155946957Y-50561097D01*
X155946959Y-50561097D01*
X156019961Y-50551745D01*
X156163416Y-50533368D01*
X156168370Y-50531882D01*
X156168378Y-50531880D01*
X156237023Y-50511285D01*
X156308018Y-50510867D01*
X156362326Y-50542875D01*
X157901595Y-52082144D01*
X157935621Y-52144456D01*
X157938500Y-52171239D01*
X157938500Y-70583101D01*
X157918498Y-70651222D01*
X157884771Y-70686314D01*
X157707211Y-70810643D01*
X157707208Y-70810645D01*
X157702700Y-70813802D01*
X157540802Y-70975700D01*
X157409477Y-71163251D01*
X157407154Y-71168233D01*
X157407151Y-71168238D01*
X157315039Y-71365775D01*
X157312716Y-71370757D01*
X157253457Y-71591913D01*
X157233502Y-71820000D01*
X157253457Y-72048087D01*
X157312716Y-72269243D01*
X157315039Y-72274224D01*
X157315039Y-72274225D01*
X157407151Y-72471762D01*
X157407154Y-72471767D01*
X157409477Y-72476749D01*
X157540802Y-72664300D01*
X157702700Y-72826198D01*
X157707208Y-72829355D01*
X157707211Y-72829357D01*
X157785389Y-72884098D01*
X157890251Y-72957523D01*
X157895233Y-72959846D01*
X157895238Y-72959849D01*
X158092775Y-73051961D01*
X158097757Y-73054284D01*
X158103065Y-73055706D01*
X158103067Y-73055707D01*
X158313598Y-73112119D01*
X158313600Y-73112119D01*
X158318913Y-73113543D01*
X158547000Y-73133498D01*
X158775087Y-73113543D01*
X158780400Y-73112119D01*
X158780402Y-73112119D01*
X158990933Y-73055707D01*
X158990935Y-73055706D01*
X158996243Y-73054284D01*
X159001225Y-73051961D01*
X159198762Y-72959849D01*
X159198767Y-72959846D01*
X159203749Y-72957523D01*
X159308611Y-72884098D01*
X159386789Y-72829357D01*
X159386792Y-72829355D01*
X159391300Y-72826198D01*
X159553198Y-72664300D01*
X159684523Y-72476749D01*
X159686846Y-72471767D01*
X159686849Y-72471762D01*
X159778961Y-72274225D01*
X159778961Y-72274224D01*
X159781284Y-72269243D01*
X159840543Y-72048087D01*
X159860498Y-71820000D01*
X159840543Y-71591913D01*
X159781284Y-71370757D01*
X159778961Y-71365775D01*
X159686849Y-71168238D01*
X159686846Y-71168233D01*
X159684523Y-71163251D01*
X159553198Y-70975700D01*
X159391300Y-70813802D01*
X159386792Y-70810645D01*
X159386789Y-70810643D01*
X159209229Y-70686314D01*
X159164901Y-70630857D01*
X159155500Y-70583101D01*
X159155500Y-51915144D01*
X159156578Y-51898698D01*
X159159673Y-51875188D01*
X159160751Y-51867000D01*
X159139838Y-51708149D01*
X159078524Y-51560124D01*
X159005478Y-51464929D01*
X159005474Y-51464925D01*
X158986928Y-51440755D01*
X158986016Y-51439566D01*
X158986013Y-51439563D01*
X158980987Y-51433013D01*
X158974432Y-51427983D01*
X158955621Y-51413548D01*
X158943230Y-51402681D01*
X158314617Y-50774068D01*
X158280591Y-50711756D01*
X158285656Y-50640941D01*
X158328203Y-50584105D01*
X158394723Y-50559294D01*
X158408328Y-50559058D01*
X158476672Y-50561564D01*
X158476677Y-50561564D01*
X158481837Y-50561753D01*
X158486957Y-50561097D01*
X158486959Y-50561097D01*
X158559961Y-50551745D01*
X158703416Y-50533368D01*
X158708370Y-50531882D01*
X158708378Y-50531880D01*
X158777023Y-50511285D01*
X158848018Y-50510867D01*
X158902326Y-50542875D01*
X160314595Y-51955144D01*
X160348621Y-52017456D01*
X160351500Y-52044239D01*
X160351500Y-73152761D01*
X160331498Y-73220882D01*
X160314595Y-73241856D01*
X158988132Y-74568319D01*
X158925820Y-74602345D01*
X158866426Y-74600931D01*
X158780402Y-74577881D01*
X158780400Y-74577881D01*
X158775087Y-74576457D01*
X158547000Y-74556502D01*
X158318913Y-74576457D01*
X158313600Y-74577881D01*
X158313598Y-74577881D01*
X158103067Y-74634293D01*
X158103065Y-74634294D01*
X158097757Y-74635716D01*
X158092776Y-74638039D01*
X158092775Y-74638039D01*
X157895238Y-74730151D01*
X157895233Y-74730154D01*
X157890251Y-74732477D01*
X157785389Y-74805902D01*
X157707211Y-74860643D01*
X157707208Y-74860645D01*
X157702700Y-74863802D01*
X157540802Y-75025700D01*
X157409477Y-75213251D01*
X157407154Y-75218233D01*
X157407151Y-75218238D01*
X157315039Y-75415775D01*
X157312716Y-75420757D01*
X157311294Y-75426065D01*
X157311293Y-75426067D01*
X157296950Y-75479597D01*
X157253457Y-75641913D01*
X157233502Y-75870000D01*
X157253457Y-76098087D01*
X157312716Y-76319243D01*
X157315039Y-76324224D01*
X157315039Y-76324225D01*
X157407151Y-76521762D01*
X157407154Y-76521767D01*
X157409477Y-76526749D01*
X157540802Y-76714300D01*
X157702700Y-76876198D01*
X157707208Y-76879355D01*
X157707211Y-76879357D01*
X157785389Y-76934098D01*
X157890251Y-77007523D01*
X157895233Y-77009846D01*
X157895238Y-77009849D01*
X158092775Y-77101961D01*
X158097757Y-77104284D01*
X158103065Y-77105706D01*
X158103067Y-77105707D01*
X158313598Y-77162119D01*
X158313600Y-77162119D01*
X158318913Y-77163543D01*
X158547000Y-77183498D01*
X158775087Y-77163543D01*
X158780400Y-77162119D01*
X158780402Y-77162119D01*
X158990933Y-77105707D01*
X158990935Y-77105706D01*
X158996243Y-77104284D01*
X159001225Y-77101961D01*
X159198762Y-77009849D01*
X159198767Y-77009846D01*
X159203749Y-77007523D01*
X159308611Y-76934098D01*
X159386789Y-76879357D01*
X159386792Y-76879355D01*
X159391300Y-76876198D01*
X159553198Y-76714300D01*
X159684523Y-76526749D01*
X159686846Y-76521767D01*
X159686849Y-76521762D01*
X159778961Y-76324225D01*
X159778961Y-76324224D01*
X159781284Y-76319243D01*
X159840543Y-76098087D01*
X159860498Y-75870000D01*
X164853502Y-75870000D01*
X164873457Y-76098087D01*
X164932716Y-76319243D01*
X164935039Y-76324224D01*
X164935039Y-76324225D01*
X165027151Y-76521762D01*
X165027154Y-76521767D01*
X165029477Y-76526749D01*
X165160802Y-76714300D01*
X165322700Y-76876198D01*
X165327208Y-76879355D01*
X165327211Y-76879357D01*
X165405389Y-76934098D01*
X165510251Y-77007523D01*
X165515233Y-77009846D01*
X165515238Y-77009849D01*
X165712775Y-77101961D01*
X165717757Y-77104284D01*
X165723065Y-77105706D01*
X165723067Y-77105707D01*
X165933598Y-77162119D01*
X165933600Y-77162119D01*
X165938913Y-77163543D01*
X166167000Y-77183498D01*
X166395087Y-77163543D01*
X166400400Y-77162119D01*
X166400402Y-77162119D01*
X166610933Y-77105707D01*
X166610935Y-77105706D01*
X166616243Y-77104284D01*
X166621225Y-77101961D01*
X166818762Y-77009849D01*
X166818767Y-77009846D01*
X166823749Y-77007523D01*
X166928611Y-76934098D01*
X167006789Y-76879357D01*
X167006792Y-76879355D01*
X167011300Y-76876198D01*
X167173198Y-76714300D01*
X167304523Y-76526749D01*
X167306846Y-76521767D01*
X167306849Y-76521762D01*
X167398961Y-76324225D01*
X167398961Y-76324224D01*
X167401284Y-76319243D01*
X167460543Y-76098087D01*
X167480498Y-75870000D01*
X167460543Y-75641913D01*
X167417050Y-75479597D01*
X167402707Y-75426067D01*
X167402706Y-75426065D01*
X167401284Y-75420757D01*
X167398961Y-75415775D01*
X167306849Y-75218238D01*
X167306846Y-75218233D01*
X167304523Y-75213251D01*
X167173198Y-75025700D01*
X167011300Y-74863802D01*
X167006792Y-74860645D01*
X167006789Y-74860643D01*
X166928611Y-74805902D01*
X166823749Y-74732477D01*
X166818767Y-74730154D01*
X166818762Y-74730151D01*
X166621225Y-74638039D01*
X166621224Y-74638039D01*
X166616243Y-74635716D01*
X166610935Y-74634294D01*
X166610933Y-74634293D01*
X166400402Y-74577881D01*
X166400400Y-74577881D01*
X166395087Y-74576457D01*
X166167000Y-74556502D01*
X165938913Y-74576457D01*
X165933600Y-74577881D01*
X165933598Y-74577881D01*
X165723067Y-74634293D01*
X165723065Y-74634294D01*
X165717757Y-74635716D01*
X165712776Y-74638039D01*
X165712775Y-74638039D01*
X165515238Y-74730151D01*
X165515233Y-74730154D01*
X165510251Y-74732477D01*
X165405389Y-74805902D01*
X165327211Y-74860643D01*
X165327208Y-74860645D01*
X165322700Y-74863802D01*
X165160802Y-75025700D01*
X165029477Y-75213251D01*
X165027154Y-75218233D01*
X165027151Y-75218238D01*
X164935039Y-75415775D01*
X164932716Y-75420757D01*
X164931294Y-75426065D01*
X164931293Y-75426067D01*
X164916950Y-75479597D01*
X164873457Y-75641913D01*
X164853502Y-75870000D01*
X159860498Y-75870000D01*
X159840543Y-75641913D01*
X159816069Y-75550574D01*
X159817759Y-75479597D01*
X159848681Y-75428868D01*
X161356234Y-73921315D01*
X161368625Y-73910448D01*
X161387437Y-73896013D01*
X161393987Y-73890987D01*
X161418474Y-73859075D01*
X161418477Y-73859072D01*
X161491523Y-73763876D01*
X161491524Y-73763875D01*
X161552838Y-73615850D01*
X161568500Y-73496885D01*
X161568500Y-73496878D01*
X161573750Y-73457000D01*
X161569578Y-73425307D01*
X161568500Y-73408864D01*
X161568500Y-71820000D01*
X164853502Y-71820000D01*
X164873457Y-72048087D01*
X164932716Y-72269243D01*
X164935039Y-72274224D01*
X164935039Y-72274225D01*
X165027151Y-72471762D01*
X165027154Y-72471767D01*
X165029477Y-72476749D01*
X165160802Y-72664300D01*
X165322700Y-72826198D01*
X165327208Y-72829355D01*
X165327211Y-72829357D01*
X165405389Y-72884098D01*
X165510251Y-72957523D01*
X165515233Y-72959846D01*
X165515238Y-72959849D01*
X165712775Y-73051961D01*
X165717757Y-73054284D01*
X165723065Y-73055706D01*
X165723067Y-73055707D01*
X165933598Y-73112119D01*
X165933600Y-73112119D01*
X165938913Y-73113543D01*
X166167000Y-73133498D01*
X166395087Y-73113543D01*
X166400400Y-73112119D01*
X166400402Y-73112119D01*
X166610933Y-73055707D01*
X166610935Y-73055706D01*
X166616243Y-73054284D01*
X166621225Y-73051961D01*
X166818762Y-72959849D01*
X166818767Y-72959846D01*
X166823749Y-72957523D01*
X166928611Y-72884098D01*
X167006789Y-72829357D01*
X167006792Y-72829355D01*
X167011300Y-72826198D01*
X167173198Y-72664300D01*
X167304523Y-72476749D01*
X167306846Y-72471767D01*
X167306849Y-72471762D01*
X167398961Y-72274225D01*
X167398961Y-72274224D01*
X167401284Y-72269243D01*
X167460543Y-72048087D01*
X167480498Y-71820000D01*
X167460543Y-71591913D01*
X167401284Y-71370757D01*
X167398961Y-71365775D01*
X167306849Y-71168238D01*
X167306846Y-71168233D01*
X167304523Y-71163251D01*
X167173198Y-70975700D01*
X167011300Y-70813802D01*
X167006792Y-70810645D01*
X167006789Y-70810643D01*
X166928611Y-70755902D01*
X166823749Y-70682477D01*
X166818767Y-70680154D01*
X166818762Y-70680151D01*
X166621225Y-70588039D01*
X166621224Y-70588039D01*
X166616243Y-70585716D01*
X166610935Y-70584294D01*
X166610933Y-70584293D01*
X166400402Y-70527881D01*
X166400400Y-70527881D01*
X166395087Y-70526457D01*
X166167000Y-70506502D01*
X165938913Y-70526457D01*
X165933600Y-70527881D01*
X165933598Y-70527881D01*
X165723067Y-70584293D01*
X165723065Y-70584294D01*
X165717757Y-70585716D01*
X165712776Y-70588039D01*
X165712775Y-70588039D01*
X165515238Y-70680151D01*
X165515233Y-70680154D01*
X165510251Y-70682477D01*
X165405389Y-70755902D01*
X165327211Y-70810643D01*
X165327208Y-70810645D01*
X165322700Y-70813802D01*
X165160802Y-70975700D01*
X165029477Y-71163251D01*
X165027154Y-71168233D01*
X165027151Y-71168238D01*
X164935039Y-71365775D01*
X164932716Y-71370757D01*
X164873457Y-71591913D01*
X164853502Y-71820000D01*
X161568500Y-71820000D01*
X161568500Y-51788136D01*
X161569578Y-51771690D01*
X161572672Y-51748188D01*
X161573750Y-51740000D01*
X161568500Y-51700122D01*
X161568500Y-51700115D01*
X161552838Y-51581150D01*
X161491524Y-51433125D01*
X161461625Y-51394160D01*
X161418477Y-51337928D01*
X161418474Y-51337925D01*
X161393987Y-51306013D01*
X161378547Y-51294165D01*
X161368621Y-51286548D01*
X161356230Y-51275681D01*
X160854617Y-50774068D01*
X160820591Y-50711756D01*
X160825656Y-50640941D01*
X160868203Y-50584105D01*
X160934723Y-50559294D01*
X160948328Y-50559058D01*
X161016672Y-50561564D01*
X161016677Y-50561564D01*
X161021837Y-50561753D01*
X161026957Y-50561097D01*
X161026959Y-50561097D01*
X161238288Y-50534025D01*
X161238289Y-50534025D01*
X161243416Y-50533368D01*
X161248376Y-50531880D01*
X161452429Y-50470661D01*
X161452434Y-50470659D01*
X161457384Y-50469174D01*
X161657994Y-50370896D01*
X161839860Y-50241173D01*
X161998096Y-50083489D01*
X162128453Y-49902077D01*
X162129776Y-49903028D01*
X162176645Y-49859857D01*
X162246580Y-49847625D01*
X162312026Y-49875144D01*
X162339875Y-49906994D01*
X162399987Y-50005088D01*
X162546250Y-50173938D01*
X162718126Y-50316632D01*
X162911000Y-50429338D01*
X162915825Y-50431180D01*
X162915826Y-50431181D01*
X162988612Y-50458975D01*
X163119692Y-50509030D01*
X163124760Y-50510061D01*
X163124763Y-50510062D01*
X163219862Y-50529410D01*
X163338597Y-50553567D01*
X163343772Y-50553757D01*
X163343774Y-50553757D01*
X163556673Y-50561564D01*
X163556677Y-50561564D01*
X163561837Y-50561753D01*
X163566957Y-50561097D01*
X163566959Y-50561097D01*
X163778288Y-50534025D01*
X163778289Y-50534025D01*
X163783416Y-50533368D01*
X163788376Y-50531880D01*
X163992429Y-50470661D01*
X163992434Y-50470659D01*
X163997384Y-50469174D01*
X164197994Y-50370896D01*
X164379860Y-50241173D01*
X164538096Y-50083489D01*
X164668453Y-49902077D01*
X164673979Y-49890897D01*
X164765136Y-49706453D01*
X164765137Y-49706451D01*
X164767430Y-49701811D01*
X164832370Y-49488069D01*
X164861529Y-49266590D01*
X164861634Y-49262285D01*
X164863074Y-49203365D01*
X164863074Y-49203361D01*
X164863156Y-49200000D01*
X164850290Y-49043508D01*
X164864643Y-48973979D01*
X164914308Y-48923246D01*
X164983518Y-48907418D01*
X165050298Y-48931520D01*
X165064961Y-48944090D01*
X165494595Y-49373724D01*
X165528621Y-49436036D01*
X165531500Y-49462819D01*
X165531500Y-59288928D01*
X165530145Y-59301058D01*
X165530627Y-59301097D01*
X165529907Y-59310044D01*
X165527926Y-59318800D01*
X165528482Y-59327760D01*
X165531258Y-59372508D01*
X165531500Y-59380310D01*
X165531500Y-59396513D01*
X165532136Y-59400953D01*
X165532984Y-59406878D01*
X165534013Y-59416928D01*
X165536945Y-59464177D01*
X165539994Y-59472623D01*
X165540593Y-59475514D01*
X165544822Y-59492480D01*
X165545648Y-59495305D01*
X165546920Y-59504187D01*
X165566522Y-59547298D01*
X165570327Y-59556647D01*
X165586404Y-59601181D01*
X165591699Y-59608429D01*
X165593080Y-59611027D01*
X165601915Y-59626145D01*
X165603494Y-59628614D01*
X165607208Y-59636782D01*
X165613064Y-59643578D01*
X165638115Y-59672652D01*
X165644401Y-59680569D01*
X165649548Y-59687615D01*
X165649553Y-59687620D01*
X165652425Y-59691552D01*
X165663400Y-59702527D01*
X165669758Y-59709374D01*
X165702287Y-59747127D01*
X165709822Y-59752011D01*
X165716066Y-59757458D01*
X165727931Y-59767058D01*
X168034595Y-62073723D01*
X168068621Y-62136035D01*
X168071500Y-62162818D01*
X168071500Y-63272636D01*
X168051498Y-63340757D01*
X167997842Y-63387250D01*
X167927568Y-63397354D01*
X167862988Y-63367860D01*
X167837384Y-63337342D01*
X167777643Y-63237521D01*
X167777640Y-63237517D01*
X167775439Y-63233839D01*
X167595687Y-63009472D01*
X167387149Y-62811577D01*
X167153683Y-62643814D01*
X167131843Y-62632250D01*
X166996247Y-62560456D01*
X166899608Y-62509288D01*
X166629627Y-62410489D01*
X166348736Y-62349245D01*
X166317685Y-62346801D01*
X166125718Y-62331693D01*
X166125709Y-62331693D01*
X166123261Y-62331500D01*
X165967729Y-62331500D01*
X165965593Y-62331646D01*
X165965582Y-62331646D01*
X165757452Y-62345835D01*
X165757446Y-62345836D01*
X165753175Y-62346127D01*
X165748980Y-62346996D01*
X165748978Y-62346996D01*
X165612417Y-62375276D01*
X165471658Y-62404426D01*
X165200657Y-62500393D01*
X164945188Y-62632250D01*
X164941687Y-62634711D01*
X164941683Y-62634713D01*
X164872406Y-62683402D01*
X164709977Y-62797559D01*
X164499378Y-62993260D01*
X164317287Y-63215732D01*
X164167073Y-63460858D01*
X164165347Y-63464791D01*
X164165346Y-63464792D01*
X164125239Y-63556159D01*
X164051517Y-63724102D01*
X164050342Y-63728229D01*
X164050341Y-63728230D01*
X164038459Y-63769941D01*
X163972756Y-64000594D01*
X163932249Y-64285216D01*
X163930743Y-64572703D01*
X163968268Y-64857734D01*
X164044129Y-65135036D01*
X164156923Y-65399476D01*
X164159130Y-65403163D01*
X164281206Y-65607137D01*
X164304561Y-65646161D01*
X164484313Y-65870528D01*
X164692851Y-66068423D01*
X164926317Y-66236186D01*
X164930112Y-66238195D01*
X164930113Y-66238196D01*
X164951869Y-66249715D01*
X165180392Y-66370712D01*
X165450373Y-66469511D01*
X165731264Y-66530755D01*
X165759841Y-66533004D01*
X165954282Y-66548307D01*
X165954291Y-66548307D01*
X165956739Y-66548500D01*
X166112271Y-66548500D01*
X166114407Y-66548354D01*
X166114418Y-66548354D01*
X166322548Y-66534165D01*
X166322554Y-66534164D01*
X166326825Y-66533873D01*
X166331020Y-66533004D01*
X166331022Y-66533004D01*
X166467584Y-66504723D01*
X166608342Y-66475574D01*
X166879343Y-66379607D01*
X167021753Y-66306104D01*
X167131005Y-66249715D01*
X167131006Y-66249715D01*
X167134812Y-66247750D01*
X167138313Y-66245289D01*
X167138317Y-66245287D01*
X167265971Y-66155570D01*
X167370023Y-66082441D01*
X167470931Y-65988671D01*
X167577479Y-65889661D01*
X167577481Y-65889658D01*
X167580622Y-65886740D01*
X167762713Y-65664268D01*
X167838067Y-65541302D01*
X167890715Y-65493671D01*
X167960757Y-65482064D01*
X168025954Y-65510167D01*
X168065608Y-65569058D01*
X168071500Y-65607137D01*
X168071500Y-91212636D01*
X168051498Y-91280757D01*
X167997842Y-91327250D01*
X167927568Y-91337354D01*
X167862988Y-91307860D01*
X167837384Y-91277342D01*
X167832303Y-91268851D01*
X167775439Y-91173839D01*
X167595687Y-90949472D01*
X167387149Y-90751577D01*
X167153683Y-90583814D01*
X167131843Y-90572250D01*
X167022430Y-90514319D01*
X166899608Y-90449288D01*
X166764618Y-90399889D01*
X166633658Y-90351964D01*
X166633656Y-90351963D01*
X166629627Y-90350489D01*
X166348736Y-90289245D01*
X166317685Y-90286801D01*
X166125718Y-90271693D01*
X166125709Y-90271693D01*
X166123261Y-90271500D01*
X165967729Y-90271500D01*
X165965593Y-90271646D01*
X165965582Y-90271646D01*
X165757452Y-90285835D01*
X165757446Y-90285836D01*
X165753175Y-90286127D01*
X165748980Y-90286996D01*
X165748978Y-90286996D01*
X165612416Y-90315277D01*
X165471658Y-90344426D01*
X165200657Y-90440393D01*
X164945188Y-90572250D01*
X164941687Y-90574711D01*
X164941683Y-90574713D01*
X164931594Y-90581804D01*
X164709977Y-90737559D01*
X164694892Y-90751577D01*
X164540706Y-90894856D01*
X164499378Y-90933260D01*
X164317287Y-91155732D01*
X164167073Y-91400858D01*
X164165347Y-91404791D01*
X164165346Y-91404792D01*
X164095701Y-91563448D01*
X164051517Y-91664102D01*
X163972756Y-91940594D01*
X163932249Y-92225216D01*
X163930743Y-92512703D01*
X163968268Y-92797734D01*
X163969401Y-92801874D01*
X163969401Y-92801876D01*
X163980903Y-92843919D01*
X164044129Y-93075036D01*
X164045813Y-93078984D01*
X164137315Y-93293505D01*
X164156923Y-93339476D01*
X164206351Y-93422064D01*
X164281206Y-93547137D01*
X164304561Y-93586161D01*
X164484313Y-93810528D01*
X164692851Y-94008423D01*
X164926317Y-94176186D01*
X164930112Y-94178195D01*
X164930113Y-94178196D01*
X164951869Y-94189715D01*
X165180392Y-94310712D01*
X165450373Y-94409511D01*
X165731264Y-94470755D01*
X165759841Y-94473004D01*
X165954282Y-94488307D01*
X165954291Y-94488307D01*
X165956739Y-94488500D01*
X166112271Y-94488500D01*
X166114407Y-94488354D01*
X166114418Y-94488354D01*
X166322548Y-94474165D01*
X166322554Y-94474164D01*
X166326825Y-94473873D01*
X166331020Y-94473004D01*
X166331022Y-94473004D01*
X166472231Y-94443761D01*
X166608342Y-94415574D01*
X166879343Y-94319607D01*
X167134812Y-94187750D01*
X167138313Y-94185289D01*
X167138317Y-94185287D01*
X167304532Y-94068469D01*
X167370023Y-94022441D01*
X167580622Y-93826740D01*
X167762713Y-93604268D01*
X167838067Y-93481302D01*
X167890715Y-93433671D01*
X167960757Y-93422064D01*
X168025954Y-93450167D01*
X168065608Y-93509058D01*
X168071500Y-93547137D01*
X168071500Y-95927182D01*
X168051498Y-95995303D01*
X168034595Y-96016277D01*
X165730696Y-98320177D01*
X165721156Y-98327800D01*
X165721470Y-98328168D01*
X165714634Y-98333986D01*
X165707042Y-98338776D01*
X165701100Y-98345504D01*
X165671407Y-98379125D01*
X165666061Y-98384812D01*
X165654618Y-98396255D01*
X165650976Y-98401115D01*
X165648341Y-98404630D01*
X165641967Y-98412459D01*
X165610622Y-98447951D01*
X165606808Y-98456074D01*
X165605174Y-98458562D01*
X165596186Y-98473523D01*
X165594771Y-98476108D01*
X165589384Y-98483295D01*
X165586233Y-98491701D01*
X165572759Y-98527642D01*
X165568833Y-98536958D01*
X165548719Y-98579800D01*
X165547338Y-98588669D01*
X165546472Y-98591502D01*
X165542042Y-98608389D01*
X165541408Y-98611274D01*
X165538255Y-98619684D01*
X165537590Y-98628639D01*
X165534746Y-98666906D01*
X165533592Y-98676952D01*
X165531500Y-98690386D01*
X165531500Y-98705906D01*
X165531154Y-98715243D01*
X165527461Y-98764941D01*
X165529335Y-98773720D01*
X165529898Y-98781978D01*
X165531500Y-98797161D01*
X165531500Y-99188633D01*
X165530000Y-99208018D01*
X165527690Y-99222851D01*
X165527690Y-99222855D01*
X165526309Y-99231724D01*
X165527473Y-99240629D01*
X165527364Y-99249598D01*
X165526550Y-99249588D01*
X165526257Y-99271098D01*
X165522215Y-99296622D01*
X165510033Y-99334116D01*
X165492145Y-99369224D01*
X165468973Y-99401117D01*
X165441117Y-99428973D01*
X165409226Y-99452144D01*
X165374116Y-99470034D01*
X165336627Y-99482214D01*
X165311974Y-99486119D01*
X165292250Y-99487551D01*
X165284276Y-99486309D01*
X165252714Y-99490436D01*
X165236379Y-99491500D01*
X124220769Y-99491500D01*
X124152648Y-99471498D01*
X124106155Y-99417842D01*
X124096051Y-99347568D01*
X124125545Y-99282988D01*
X124155911Y-99257914D01*
X124156749Y-99257523D01*
X124162243Y-99253676D01*
X124339789Y-99129357D01*
X124339792Y-99129355D01*
X124344300Y-99126198D01*
X124506198Y-98964300D01*
X124539406Y-98916875D01*
X124564098Y-98881611D01*
X124637523Y-98776749D01*
X124639846Y-98771767D01*
X124639849Y-98771762D01*
X124731961Y-98574225D01*
X124731961Y-98574224D01*
X124734284Y-98569243D01*
X124752524Y-98501173D01*
X124792119Y-98353402D01*
X124792119Y-98353400D01*
X124793543Y-98348087D01*
X124813498Y-98120000D01*
X124793543Y-97891913D01*
X124774675Y-97821498D01*
X124735707Y-97676067D01*
X124735706Y-97676065D01*
X124734284Y-97670757D01*
X124708184Y-97614784D01*
X124639849Y-97468238D01*
X124639846Y-97468233D01*
X124637523Y-97463251D01*
X124539352Y-97323049D01*
X124509357Y-97280211D01*
X124509355Y-97280208D01*
X124506198Y-97275700D01*
X124344300Y-97113802D01*
X124339792Y-97110645D01*
X124339789Y-97110643D01*
X124217251Y-97024841D01*
X124156749Y-96982477D01*
X124151767Y-96980154D01*
X124151762Y-96980151D01*
X123954225Y-96888039D01*
X123954224Y-96888039D01*
X123949243Y-96885716D01*
X123943935Y-96884294D01*
X123943933Y-96884293D01*
X123733402Y-96827881D01*
X123733400Y-96827881D01*
X123728087Y-96826457D01*
X123500000Y-96806502D01*
X123271913Y-96826457D01*
X123266600Y-96827881D01*
X123266598Y-96827881D01*
X123056067Y-96884293D01*
X123056065Y-96884294D01*
X123050757Y-96885716D01*
X123045776Y-96888039D01*
X123045775Y-96888039D01*
X122848238Y-96980151D01*
X122848233Y-96980154D01*
X122843251Y-96982477D01*
X122782749Y-97024841D01*
X122660211Y-97110643D01*
X122660208Y-97110645D01*
X122655700Y-97113802D01*
X122493802Y-97275700D01*
X122490645Y-97280208D01*
X122490643Y-97280211D01*
X122460648Y-97323049D01*
X122362477Y-97463251D01*
X122360154Y-97468233D01*
X122359118Y-97470027D01*
X122307734Y-97519019D01*
X122238021Y-97532454D01*
X122172110Y-97506066D01*
X122140882Y-97470027D01*
X122139846Y-97468233D01*
X122137523Y-97463251D01*
X122066285Y-97361513D01*
X122043597Y-97294239D01*
X122060882Y-97225379D01*
X122080403Y-97200147D01*
X123058868Y-96221681D01*
X123121180Y-96187656D01*
X123180574Y-96189069D01*
X123266598Y-96212119D01*
X123266600Y-96212119D01*
X123271913Y-96213543D01*
X123500000Y-96233498D01*
X123728087Y-96213543D01*
X123733400Y-96212119D01*
X123733402Y-96212119D01*
X123943933Y-96155707D01*
X123943935Y-96155706D01*
X123949243Y-96154284D01*
X123954225Y-96151961D01*
X124151762Y-96059849D01*
X124151767Y-96059846D01*
X124156749Y-96057523D01*
X124336728Y-95931500D01*
X124339789Y-95929357D01*
X124339792Y-95929355D01*
X124344300Y-95926198D01*
X124506198Y-95764300D01*
X124550849Y-95700533D01*
X124637523Y-95576749D01*
X124638831Y-95577665D01*
X124684895Y-95533743D01*
X124754609Y-95520306D01*
X124820520Y-95546693D01*
X124831727Y-95556641D01*
X126144595Y-96869509D01*
X126178621Y-96931821D01*
X126181500Y-96958604D01*
X126181500Y-98561857D01*
X126180422Y-98578303D01*
X126180298Y-98579242D01*
X126176249Y-98610000D01*
X126184405Y-98671944D01*
X126186027Y-98684267D01*
X126186027Y-98684268D01*
X126192135Y-98730661D01*
X126197162Y-98768850D01*
X126258476Y-98916875D01*
X126276702Y-98940627D01*
X126350984Y-99037434D01*
X126350987Y-99037437D01*
X126356013Y-99043987D01*
X126362563Y-99049013D01*
X126362564Y-99049014D01*
X126458072Y-99122301D01*
X126483124Y-99141524D01*
X126490750Y-99144683D01*
X126490752Y-99144684D01*
X126623520Y-99199678D01*
X126623523Y-99199679D01*
X126631150Y-99202838D01*
X126790000Y-99223751D01*
X126798188Y-99222673D01*
X126821697Y-99219578D01*
X126838143Y-99218500D01*
X134361864Y-99218500D01*
X134378307Y-99219578D01*
X134410000Y-99223750D01*
X134418189Y-99222672D01*
X134449874Y-99218501D01*
X134449884Y-99218500D01*
X134449885Y-99218500D01*
X134511593Y-99210376D01*
X134549457Y-99205391D01*
X134560664Y-99203916D01*
X134560666Y-99203915D01*
X134568851Y-99202838D01*
X134716876Y-99141524D01*
X134732733Y-99129357D01*
X134812072Y-99068477D01*
X134812075Y-99068474D01*
X134837434Y-99049015D01*
X134843987Y-99043987D01*
X134849017Y-99037432D01*
X134863452Y-99018621D01*
X134874319Y-99006230D01*
X135075171Y-98805378D01*
X135137483Y-98771352D01*
X135189385Y-98771002D01*
X135398597Y-98813567D01*
X135403772Y-98813757D01*
X135403774Y-98813757D01*
X135616673Y-98821564D01*
X135616677Y-98821564D01*
X135621837Y-98821753D01*
X135626957Y-98821097D01*
X135626959Y-98821097D01*
X135838288Y-98794025D01*
X135838289Y-98794025D01*
X135843416Y-98793368D01*
X135848366Y-98791883D01*
X136052429Y-98730661D01*
X136052434Y-98730659D01*
X136057384Y-98729174D01*
X136257994Y-98630896D01*
X136439860Y-98501173D01*
X136598096Y-98343489D01*
X136607693Y-98330134D01*
X136728453Y-98162077D01*
X136729776Y-98163028D01*
X136776645Y-98119857D01*
X136846580Y-98107625D01*
X136912026Y-98135144D01*
X136939875Y-98166994D01*
X136999987Y-98265088D01*
X137146250Y-98433938D01*
X137318126Y-98576632D01*
X137511000Y-98689338D01*
X137719692Y-98769030D01*
X137724760Y-98770061D01*
X137724763Y-98770062D01*
X137792598Y-98783863D01*
X137938597Y-98813567D01*
X137943772Y-98813757D01*
X137943774Y-98813757D01*
X138156673Y-98821564D01*
X138156677Y-98821564D01*
X138161837Y-98821753D01*
X138166957Y-98821097D01*
X138166959Y-98821097D01*
X138378288Y-98794025D01*
X138378289Y-98794025D01*
X138383416Y-98793368D01*
X138388366Y-98791883D01*
X138592429Y-98730661D01*
X138592434Y-98730659D01*
X138597384Y-98729174D01*
X138797994Y-98630896D01*
X138979860Y-98501173D01*
X139138096Y-98343489D01*
X139147693Y-98330134D01*
X139268453Y-98162077D01*
X139269640Y-98162930D01*
X139316960Y-98119362D01*
X139386897Y-98107145D01*
X139452338Y-98134678D01*
X139480166Y-98166511D01*
X139537694Y-98260388D01*
X139543777Y-98268699D01*
X139683213Y-98429667D01*
X139690580Y-98436883D01*
X139854434Y-98572916D01*
X139862881Y-98578831D01*
X140046756Y-98686279D01*
X140056042Y-98690729D01*
X140255001Y-98766703D01*
X140264899Y-98769579D01*
X140368250Y-98790606D01*
X140382299Y-98789410D01*
X140386000Y-98779065D01*
X140386000Y-98778517D01*
X140894000Y-98778517D01*
X140898064Y-98792359D01*
X140911478Y-98794393D01*
X140918184Y-98793534D01*
X140928262Y-98791392D01*
X141132255Y-98730191D01*
X141141842Y-98726433D01*
X141333095Y-98632739D01*
X141341945Y-98627464D01*
X141515328Y-98503792D01*
X141523200Y-98497139D01*
X141674052Y-98346812D01*
X141680730Y-98338965D01*
X141808022Y-98161819D01*
X141809147Y-98162627D01*
X141856669Y-98118876D01*
X141926607Y-98106661D01*
X141992046Y-98134197D01*
X142019870Y-98166028D01*
X142077690Y-98260383D01*
X142083777Y-98268699D01*
X142223213Y-98429667D01*
X142230580Y-98436883D01*
X142394434Y-98572916D01*
X142402881Y-98578831D01*
X142586756Y-98686279D01*
X142596042Y-98690729D01*
X142795001Y-98766703D01*
X142804899Y-98769579D01*
X142908250Y-98790606D01*
X142922299Y-98789410D01*
X142926000Y-98779065D01*
X142926000Y-98778517D01*
X143434000Y-98778517D01*
X143438064Y-98792359D01*
X143451478Y-98794393D01*
X143458184Y-98793534D01*
X143468262Y-98791392D01*
X143672255Y-98730191D01*
X143681842Y-98726433D01*
X143873095Y-98632739D01*
X143881945Y-98627464D01*
X144055328Y-98503792D01*
X144063200Y-98497139D01*
X144214052Y-98346812D01*
X144220730Y-98338965D01*
X144348022Y-98161819D01*
X144349279Y-98162722D01*
X144396373Y-98119362D01*
X144466311Y-98107145D01*
X144531751Y-98134678D01*
X144559579Y-98166511D01*
X144619987Y-98265088D01*
X144766250Y-98433938D01*
X144938126Y-98576632D01*
X145131000Y-98689338D01*
X145339692Y-98769030D01*
X145344760Y-98770061D01*
X145344763Y-98770062D01*
X145412598Y-98783863D01*
X145558597Y-98813567D01*
X145563772Y-98813757D01*
X145563774Y-98813757D01*
X145776673Y-98821564D01*
X145776677Y-98821564D01*
X145781837Y-98821753D01*
X145786957Y-98821097D01*
X145786959Y-98821097D01*
X145998288Y-98794025D01*
X145998289Y-98794025D01*
X146003416Y-98793368D01*
X146008366Y-98791883D01*
X146212429Y-98730661D01*
X146212434Y-98730659D01*
X146217384Y-98729174D01*
X146417994Y-98630896D01*
X146599860Y-98501173D01*
X146743400Y-98358134D01*
X149441500Y-98358134D01*
X149448255Y-98420316D01*
X149499385Y-98556705D01*
X149586739Y-98673261D01*
X149703295Y-98760615D01*
X149839684Y-98811745D01*
X149901866Y-98818500D01*
X151698134Y-98818500D01*
X151760316Y-98811745D01*
X151896705Y-98760615D01*
X152013261Y-98673261D01*
X152100615Y-98556705D01*
X152111510Y-98527642D01*
X152144598Y-98439382D01*
X152187240Y-98382618D01*
X152253802Y-98357918D01*
X152323150Y-98373126D01*
X152357817Y-98401114D01*
X152386250Y-98433938D01*
X152558126Y-98576632D01*
X152751000Y-98689338D01*
X152959692Y-98769030D01*
X152964760Y-98770061D01*
X152964763Y-98770062D01*
X153032598Y-98783863D01*
X153178597Y-98813567D01*
X153183772Y-98813757D01*
X153183774Y-98813757D01*
X153396673Y-98821564D01*
X153396677Y-98821564D01*
X153401837Y-98821753D01*
X153406957Y-98821097D01*
X153406959Y-98821097D01*
X153618288Y-98794025D01*
X153618289Y-98794025D01*
X153623416Y-98793368D01*
X153628366Y-98791883D01*
X153832429Y-98730661D01*
X153832434Y-98730659D01*
X153837384Y-98729174D01*
X154037994Y-98630896D01*
X154219860Y-98501173D01*
X154378096Y-98343489D01*
X154387693Y-98330134D01*
X154508453Y-98162077D01*
X154509776Y-98163028D01*
X154556645Y-98119857D01*
X154626580Y-98107625D01*
X154692026Y-98135144D01*
X154719875Y-98166994D01*
X154779987Y-98265088D01*
X154926250Y-98433938D01*
X155098126Y-98576632D01*
X155291000Y-98689338D01*
X155499692Y-98769030D01*
X155504760Y-98770061D01*
X155504763Y-98770062D01*
X155572598Y-98783863D01*
X155718597Y-98813567D01*
X155723772Y-98813757D01*
X155723774Y-98813757D01*
X155936673Y-98821564D01*
X155936677Y-98821564D01*
X155941837Y-98821753D01*
X155946957Y-98821097D01*
X155946959Y-98821097D01*
X156158288Y-98794025D01*
X156158289Y-98794025D01*
X156163416Y-98793368D01*
X156168366Y-98791883D01*
X156372429Y-98730661D01*
X156372434Y-98730659D01*
X156377384Y-98729174D01*
X156577994Y-98630896D01*
X156759860Y-98501173D01*
X156918096Y-98343489D01*
X156927693Y-98330134D01*
X157048453Y-98162077D01*
X157049776Y-98163028D01*
X157096645Y-98119857D01*
X157166580Y-98107625D01*
X157232026Y-98135144D01*
X157259875Y-98166994D01*
X157319987Y-98265088D01*
X157466250Y-98433938D01*
X157638126Y-98576632D01*
X157831000Y-98689338D01*
X158039692Y-98769030D01*
X158044760Y-98770061D01*
X158044763Y-98770062D01*
X158112598Y-98783863D01*
X158258597Y-98813567D01*
X158263772Y-98813757D01*
X158263774Y-98813757D01*
X158476673Y-98821564D01*
X158476677Y-98821564D01*
X158481837Y-98821753D01*
X158486957Y-98821097D01*
X158486959Y-98821097D01*
X158698288Y-98794025D01*
X158698289Y-98794025D01*
X158703416Y-98793368D01*
X158708366Y-98791883D01*
X158912429Y-98730661D01*
X158912434Y-98730659D01*
X158917384Y-98729174D01*
X159117994Y-98630896D01*
X159299860Y-98501173D01*
X159458096Y-98343489D01*
X159467693Y-98330134D01*
X159588453Y-98162077D01*
X159589776Y-98163028D01*
X159636645Y-98119857D01*
X159706580Y-98107625D01*
X159772026Y-98135144D01*
X159799875Y-98166994D01*
X159859987Y-98265088D01*
X160006250Y-98433938D01*
X160178126Y-98576632D01*
X160371000Y-98689338D01*
X160579692Y-98769030D01*
X160584760Y-98770061D01*
X160584763Y-98770062D01*
X160652598Y-98783863D01*
X160798597Y-98813567D01*
X160803772Y-98813757D01*
X160803774Y-98813757D01*
X161016673Y-98821564D01*
X161016677Y-98821564D01*
X161021837Y-98821753D01*
X161026957Y-98821097D01*
X161026959Y-98821097D01*
X161238288Y-98794025D01*
X161238289Y-98794025D01*
X161243416Y-98793368D01*
X161248366Y-98791883D01*
X161452429Y-98730661D01*
X161452434Y-98730659D01*
X161457384Y-98729174D01*
X161657994Y-98630896D01*
X161839860Y-98501173D01*
X161998096Y-98343489D01*
X162007693Y-98330134D01*
X162128453Y-98162077D01*
X162129776Y-98163028D01*
X162176645Y-98119857D01*
X162246580Y-98107625D01*
X162312026Y-98135144D01*
X162339875Y-98166994D01*
X162399987Y-98265088D01*
X162546250Y-98433938D01*
X162718126Y-98576632D01*
X162911000Y-98689338D01*
X163119692Y-98769030D01*
X163124760Y-98770061D01*
X163124763Y-98770062D01*
X163192598Y-98783863D01*
X163338597Y-98813567D01*
X163343772Y-98813757D01*
X163343774Y-98813757D01*
X163556673Y-98821564D01*
X163556677Y-98821564D01*
X163561837Y-98821753D01*
X163566957Y-98821097D01*
X163566959Y-98821097D01*
X163778288Y-98794025D01*
X163778289Y-98794025D01*
X163783416Y-98793368D01*
X163788366Y-98791883D01*
X163992429Y-98730661D01*
X163992434Y-98730659D01*
X163997384Y-98729174D01*
X164197994Y-98630896D01*
X164379860Y-98501173D01*
X164538096Y-98343489D01*
X164547693Y-98330134D01*
X164665435Y-98166277D01*
X164668453Y-98162077D01*
X164673979Y-98150897D01*
X164765136Y-97966453D01*
X164765137Y-97966451D01*
X164767430Y-97961811D01*
X164809687Y-97822727D01*
X164830865Y-97753023D01*
X164830865Y-97753021D01*
X164832370Y-97748069D01*
X164861529Y-97526590D01*
X164861714Y-97519019D01*
X164863074Y-97463365D01*
X164863074Y-97463361D01*
X164863156Y-97460000D01*
X164844852Y-97237361D01*
X164790431Y-97020702D01*
X164701354Y-96815840D01*
X164583022Y-96632926D01*
X164582822Y-96632617D01*
X164582820Y-96632614D01*
X164580014Y-96628277D01*
X164429670Y-96463051D01*
X164425619Y-96459852D01*
X164425615Y-96459848D01*
X164258414Y-96327800D01*
X164258410Y-96327798D01*
X164254359Y-96324598D01*
X164245525Y-96319721D01*
X164202136Y-96295769D01*
X164058789Y-96216638D01*
X164053920Y-96214914D01*
X164053916Y-96214912D01*
X163853087Y-96143795D01*
X163853083Y-96143794D01*
X163848212Y-96142069D01*
X163843119Y-96141162D01*
X163843116Y-96141161D01*
X163633373Y-96103800D01*
X163633367Y-96103799D01*
X163628284Y-96102894D01*
X163554452Y-96101992D01*
X163410081Y-96100228D01*
X163410079Y-96100228D01*
X163404911Y-96100165D01*
X163184091Y-96133955D01*
X162971756Y-96203357D01*
X162936556Y-96221681D01*
X162813001Y-96286000D01*
X162773607Y-96306507D01*
X162769474Y-96309610D01*
X162769471Y-96309612D01*
X162600199Y-96436705D01*
X162594965Y-96440635D01*
X162591393Y-96444373D01*
X162483729Y-96557037D01*
X162440629Y-96602138D01*
X162333201Y-96759621D01*
X162278293Y-96804621D01*
X162207768Y-96812792D01*
X162144021Y-96781538D01*
X162123324Y-96757054D01*
X162042822Y-96632617D01*
X162042820Y-96632614D01*
X162040014Y-96628277D01*
X161889670Y-96463051D01*
X161885619Y-96459852D01*
X161885615Y-96459848D01*
X161718414Y-96327800D01*
X161718410Y-96327798D01*
X161714359Y-96324598D01*
X161705525Y-96319721D01*
X161662136Y-96295769D01*
X161518789Y-96216638D01*
X161513920Y-96214914D01*
X161513916Y-96214912D01*
X161313087Y-96143795D01*
X161313083Y-96143794D01*
X161308212Y-96142069D01*
X161303119Y-96141162D01*
X161303116Y-96141161D01*
X161093373Y-96103800D01*
X161093367Y-96103799D01*
X161088284Y-96102894D01*
X161014452Y-96101992D01*
X160870081Y-96100228D01*
X160870079Y-96100228D01*
X160864911Y-96100165D01*
X160644091Y-96133955D01*
X160431756Y-96203357D01*
X160396556Y-96221681D01*
X160273001Y-96286000D01*
X160233607Y-96306507D01*
X160229474Y-96309610D01*
X160229471Y-96309612D01*
X160060199Y-96436705D01*
X160054965Y-96440635D01*
X160051393Y-96444373D01*
X159943729Y-96557037D01*
X159900629Y-96602138D01*
X159793201Y-96759621D01*
X159738293Y-96804621D01*
X159667768Y-96812792D01*
X159604021Y-96781538D01*
X159583324Y-96757054D01*
X159502822Y-96632617D01*
X159502820Y-96632614D01*
X159500014Y-96628277D01*
X159349670Y-96463051D01*
X159345619Y-96459852D01*
X159345615Y-96459848D01*
X159178414Y-96327800D01*
X159178410Y-96327798D01*
X159174359Y-96324598D01*
X159165525Y-96319721D01*
X159122136Y-96295769D01*
X158978789Y-96216638D01*
X158973920Y-96214914D01*
X158973916Y-96214912D01*
X158773087Y-96143795D01*
X158773083Y-96143794D01*
X158768212Y-96142069D01*
X158763119Y-96141162D01*
X158763116Y-96141161D01*
X158553373Y-96103800D01*
X158553367Y-96103799D01*
X158548284Y-96102894D01*
X158474452Y-96101992D01*
X158330081Y-96100228D01*
X158330079Y-96100228D01*
X158324911Y-96100165D01*
X158104091Y-96133955D01*
X157891756Y-96203357D01*
X157856556Y-96221681D01*
X157733001Y-96286000D01*
X157693607Y-96306507D01*
X157689474Y-96309610D01*
X157689471Y-96309612D01*
X157520199Y-96436705D01*
X157514965Y-96440635D01*
X157511393Y-96444373D01*
X157403729Y-96557037D01*
X157360629Y-96602138D01*
X157253201Y-96759621D01*
X157198293Y-96804621D01*
X157127768Y-96812792D01*
X157064021Y-96781538D01*
X157043324Y-96757054D01*
X156962822Y-96632617D01*
X156962820Y-96632614D01*
X156960014Y-96628277D01*
X156809670Y-96463051D01*
X156805619Y-96459852D01*
X156805615Y-96459848D01*
X156638414Y-96327800D01*
X156638410Y-96327798D01*
X156634359Y-96324598D01*
X156625525Y-96319721D01*
X156582136Y-96295769D01*
X156438789Y-96216638D01*
X156433920Y-96214914D01*
X156433916Y-96214912D01*
X156233087Y-96143795D01*
X156233083Y-96143794D01*
X156228212Y-96142069D01*
X156223119Y-96141162D01*
X156223116Y-96141161D01*
X156013373Y-96103800D01*
X156013367Y-96103799D01*
X156008284Y-96102894D01*
X155934452Y-96101992D01*
X155790081Y-96100228D01*
X155790079Y-96100228D01*
X155784911Y-96100165D01*
X155564091Y-96133955D01*
X155351756Y-96203357D01*
X155316556Y-96221681D01*
X155193001Y-96286000D01*
X155153607Y-96306507D01*
X155149474Y-96309610D01*
X155149471Y-96309612D01*
X154980199Y-96436705D01*
X154974965Y-96440635D01*
X154971393Y-96444373D01*
X154863729Y-96557037D01*
X154820629Y-96602138D01*
X154713201Y-96759621D01*
X154658293Y-96804621D01*
X154587768Y-96812792D01*
X154524021Y-96781538D01*
X154503324Y-96757054D01*
X154422822Y-96632617D01*
X154422820Y-96632614D01*
X154420014Y-96628277D01*
X154269670Y-96463051D01*
X154265619Y-96459852D01*
X154265615Y-96459848D01*
X154098414Y-96327800D01*
X154098410Y-96327798D01*
X154094359Y-96324598D01*
X154085525Y-96319721D01*
X154042136Y-96295769D01*
X153898789Y-96216638D01*
X153893920Y-96214914D01*
X153893916Y-96214912D01*
X153693087Y-96143795D01*
X153693083Y-96143794D01*
X153688212Y-96142069D01*
X153683119Y-96141162D01*
X153683116Y-96141161D01*
X153473373Y-96103800D01*
X153473367Y-96103799D01*
X153468284Y-96102894D01*
X153394452Y-96101992D01*
X153250081Y-96100228D01*
X153250079Y-96100228D01*
X153244911Y-96100165D01*
X153024091Y-96133955D01*
X152811756Y-96203357D01*
X152776556Y-96221681D01*
X152653001Y-96286000D01*
X152613607Y-96306507D01*
X152609474Y-96309610D01*
X152609471Y-96309612D01*
X152440199Y-96436705D01*
X152434965Y-96440635D01*
X152355543Y-96523746D01*
X152354283Y-96525064D01*
X152292759Y-96560494D01*
X152221846Y-96557037D01*
X152164060Y-96515791D01*
X152145207Y-96482243D01*
X152103767Y-96371703D01*
X152100615Y-96363295D01*
X152013261Y-96246739D01*
X151896705Y-96159385D01*
X151760316Y-96108255D01*
X151698134Y-96101500D01*
X149901866Y-96101500D01*
X149839684Y-96108255D01*
X149703295Y-96159385D01*
X149586739Y-96246739D01*
X149499385Y-96363295D01*
X149448255Y-96499684D01*
X149441500Y-96561866D01*
X149441500Y-98358134D01*
X146743400Y-98358134D01*
X146758096Y-98343489D01*
X146767693Y-98330134D01*
X146885435Y-98166277D01*
X146888453Y-98162077D01*
X146893979Y-98150897D01*
X146985136Y-97966453D01*
X146985137Y-97966451D01*
X146987430Y-97961811D01*
X147029687Y-97822727D01*
X147050865Y-97753023D01*
X147050865Y-97753021D01*
X147052370Y-97748069D01*
X147081529Y-97526590D01*
X147081714Y-97519019D01*
X147083074Y-97463365D01*
X147083074Y-97463361D01*
X147083156Y-97460000D01*
X147064852Y-97237361D01*
X147010431Y-97020702D01*
X146921354Y-96815840D01*
X146803022Y-96632926D01*
X146802822Y-96632617D01*
X146802820Y-96632614D01*
X146800014Y-96628277D01*
X146649670Y-96463051D01*
X146645619Y-96459852D01*
X146645615Y-96459848D01*
X146478414Y-96327800D01*
X146478410Y-96327798D01*
X146474359Y-96324598D01*
X146465525Y-96319721D01*
X146422136Y-96295769D01*
X146278789Y-96216638D01*
X146273920Y-96214914D01*
X146273916Y-96214912D01*
X146073087Y-96143795D01*
X146073083Y-96143794D01*
X146068212Y-96142069D01*
X146063119Y-96141162D01*
X146063116Y-96141161D01*
X145853373Y-96103800D01*
X145853367Y-96103799D01*
X145848284Y-96102894D01*
X145774452Y-96101992D01*
X145630081Y-96100228D01*
X145630079Y-96100228D01*
X145624911Y-96100165D01*
X145404091Y-96133955D01*
X145191756Y-96203357D01*
X145156556Y-96221681D01*
X145033001Y-96286000D01*
X144993607Y-96306507D01*
X144989474Y-96309610D01*
X144989471Y-96309612D01*
X144820199Y-96436705D01*
X144814965Y-96440635D01*
X144811393Y-96444373D01*
X144703729Y-96557037D01*
X144660629Y-96602138D01*
X144657720Y-96606403D01*
X144657714Y-96606411D01*
X144652210Y-96614480D01*
X144553204Y-96759618D01*
X144552898Y-96760066D01*
X144497987Y-96805069D01*
X144427462Y-96813240D01*
X144363715Y-96781986D01*
X144343018Y-96757502D01*
X144262426Y-96632926D01*
X144256136Y-96624757D01*
X144112806Y-96467240D01*
X144105273Y-96460215D01*
X143938139Y-96328222D01*
X143929552Y-96322517D01*
X143743117Y-96219599D01*
X143733705Y-96215369D01*
X143532959Y-96144280D01*
X143522988Y-96141646D01*
X143451837Y-96128972D01*
X143438540Y-96130432D01*
X143434000Y-96144989D01*
X143434000Y-98778517D01*
X142926000Y-98778517D01*
X142926000Y-97732115D01*
X142921525Y-97716876D01*
X142920135Y-97715671D01*
X142912452Y-97714000D01*
X140912115Y-97714000D01*
X140896876Y-97718475D01*
X140895671Y-97719865D01*
X140894000Y-97727548D01*
X140894000Y-98778517D01*
X140386000Y-98778517D01*
X140386000Y-97187885D01*
X140894000Y-97187885D01*
X140898475Y-97203124D01*
X140899865Y-97204329D01*
X140907548Y-97206000D01*
X142907885Y-97206000D01*
X142923124Y-97201525D01*
X142924329Y-97200135D01*
X142926000Y-97192452D01*
X142926000Y-96143102D01*
X142922082Y-96129758D01*
X142907806Y-96127771D01*
X142869324Y-96133660D01*
X142859288Y-96136051D01*
X142656868Y-96202212D01*
X142647359Y-96206209D01*
X142458463Y-96304542D01*
X142449738Y-96310036D01*
X142279433Y-96437905D01*
X142271726Y-96444748D01*
X142124590Y-96598717D01*
X142118104Y-96606727D01*
X142013193Y-96760521D01*
X141958282Y-96805524D01*
X141887757Y-96813695D01*
X141824010Y-96782441D01*
X141803313Y-96757957D01*
X141722427Y-96632926D01*
X141716136Y-96624757D01*
X141572806Y-96467240D01*
X141565273Y-96460215D01*
X141398139Y-96328222D01*
X141389552Y-96322517D01*
X141203117Y-96219599D01*
X141193705Y-96215369D01*
X140992959Y-96144280D01*
X140982988Y-96141646D01*
X140911837Y-96128972D01*
X140898540Y-96130432D01*
X140894000Y-96144989D01*
X140894000Y-97187885D01*
X140386000Y-97187885D01*
X140386000Y-96143102D01*
X140382082Y-96129758D01*
X140367806Y-96127771D01*
X140329324Y-96133660D01*
X140319288Y-96136051D01*
X140116868Y-96202212D01*
X140107359Y-96206209D01*
X139918463Y-96304542D01*
X139909738Y-96310036D01*
X139739433Y-96437905D01*
X139731726Y-96444748D01*
X139584590Y-96598717D01*
X139578109Y-96606722D01*
X139473498Y-96760074D01*
X139418587Y-96805076D01*
X139348062Y-96813247D01*
X139284315Y-96781993D01*
X139263618Y-96757509D01*
X139182822Y-96632617D01*
X139182820Y-96632614D01*
X139180014Y-96628277D01*
X139029670Y-96463051D01*
X139025619Y-96459852D01*
X139025615Y-96459848D01*
X138858414Y-96327800D01*
X138858410Y-96327798D01*
X138854359Y-96324598D01*
X138845525Y-96319721D01*
X138802136Y-96295769D01*
X138658789Y-96216638D01*
X138653920Y-96214914D01*
X138653916Y-96214912D01*
X138453087Y-96143795D01*
X138453083Y-96143794D01*
X138448212Y-96142069D01*
X138443119Y-96141162D01*
X138443116Y-96141161D01*
X138233373Y-96103800D01*
X138233367Y-96103799D01*
X138228284Y-96102894D01*
X138154452Y-96101992D01*
X138010081Y-96100228D01*
X138010079Y-96100228D01*
X138004911Y-96100165D01*
X137784091Y-96133955D01*
X137571756Y-96203357D01*
X137536556Y-96221681D01*
X137413001Y-96286000D01*
X137373607Y-96306507D01*
X137369474Y-96309610D01*
X137369471Y-96309612D01*
X137200199Y-96436705D01*
X137194965Y-96440635D01*
X137191393Y-96444373D01*
X137083729Y-96557037D01*
X137040629Y-96602138D01*
X136933201Y-96759621D01*
X136878293Y-96804621D01*
X136807768Y-96812792D01*
X136744021Y-96781538D01*
X136723324Y-96757054D01*
X136642822Y-96632617D01*
X136642820Y-96632614D01*
X136640014Y-96628277D01*
X136489670Y-96463051D01*
X136485619Y-96459852D01*
X136485615Y-96459848D01*
X136318414Y-96327800D01*
X136318410Y-96327798D01*
X136314359Y-96324598D01*
X136305525Y-96319721D01*
X136262136Y-96295769D01*
X136118789Y-96216638D01*
X136113920Y-96214914D01*
X136113916Y-96214912D01*
X135913087Y-96143795D01*
X135913083Y-96143794D01*
X135908212Y-96142069D01*
X135903119Y-96141162D01*
X135903116Y-96141161D01*
X135693373Y-96103800D01*
X135693367Y-96103799D01*
X135688284Y-96102894D01*
X135614452Y-96101992D01*
X135470081Y-96100228D01*
X135470079Y-96100228D01*
X135464911Y-96100165D01*
X135244091Y-96133955D01*
X135031756Y-96203357D01*
X134996556Y-96221681D01*
X134873001Y-96286000D01*
X134833607Y-96306507D01*
X134829474Y-96309610D01*
X134829471Y-96309612D01*
X134660199Y-96436705D01*
X134654965Y-96440635D01*
X134651393Y-96444373D01*
X134543729Y-96557037D01*
X134500629Y-96602138D01*
X134393201Y-96759621D01*
X134338293Y-96804621D01*
X134267768Y-96812792D01*
X134204021Y-96781538D01*
X134183324Y-96757054D01*
X134102822Y-96632617D01*
X134102820Y-96632614D01*
X134100014Y-96628277D01*
X133949670Y-96463051D01*
X133945619Y-96459852D01*
X133945615Y-96459848D01*
X133778414Y-96327800D01*
X133778410Y-96327798D01*
X133774359Y-96324598D01*
X133765525Y-96319721D01*
X133722136Y-96295769D01*
X133578789Y-96216638D01*
X133573920Y-96214914D01*
X133573916Y-96214912D01*
X133373087Y-96143795D01*
X133373083Y-96143794D01*
X133368212Y-96142069D01*
X133363119Y-96141162D01*
X133363116Y-96141161D01*
X133153373Y-96103800D01*
X133153367Y-96103799D01*
X133148284Y-96102894D01*
X133074452Y-96101992D01*
X132930081Y-96100228D01*
X132930079Y-96100228D01*
X132924911Y-96100165D01*
X132704091Y-96133955D01*
X132491756Y-96203357D01*
X132456556Y-96221681D01*
X132333001Y-96286000D01*
X132293607Y-96306507D01*
X132289474Y-96309610D01*
X132289471Y-96309612D01*
X132120199Y-96436705D01*
X132114965Y-96440635D01*
X132111393Y-96444373D01*
X132003729Y-96557037D01*
X131960629Y-96602138D01*
X131853201Y-96759621D01*
X131798293Y-96804621D01*
X131727768Y-96812792D01*
X131664021Y-96781538D01*
X131643324Y-96757054D01*
X131562822Y-96632617D01*
X131562820Y-96632614D01*
X131560014Y-96628277D01*
X131409670Y-96463051D01*
X131405619Y-96459852D01*
X131405615Y-96459848D01*
X131238414Y-96327800D01*
X131238410Y-96327798D01*
X131234359Y-96324598D01*
X131225525Y-96319721D01*
X131182136Y-96295769D01*
X131038789Y-96216638D01*
X131033920Y-96214914D01*
X131033916Y-96214912D01*
X130833087Y-96143795D01*
X130833083Y-96143794D01*
X130828212Y-96142069D01*
X130823119Y-96141162D01*
X130823116Y-96141161D01*
X130613373Y-96103800D01*
X130613367Y-96103799D01*
X130608284Y-96102894D01*
X130534452Y-96101992D01*
X130390081Y-96100228D01*
X130390079Y-96100228D01*
X130384911Y-96100165D01*
X130164091Y-96133955D01*
X129951756Y-96203357D01*
X129916556Y-96221681D01*
X129793001Y-96286000D01*
X129753607Y-96306507D01*
X129749474Y-96309610D01*
X129749471Y-96309612D01*
X129580199Y-96436705D01*
X129574965Y-96440635D01*
X129495543Y-96523746D01*
X129494283Y-96525064D01*
X129432759Y-96560494D01*
X129361846Y-96557037D01*
X129304060Y-96515791D01*
X129285207Y-96482243D01*
X129243767Y-96371703D01*
X129240615Y-96363295D01*
X129153261Y-96246739D01*
X129036705Y-96159385D01*
X128900316Y-96108255D01*
X128838134Y-96101500D01*
X127149874Y-96101500D01*
X127081753Y-96081498D01*
X127060779Y-96064595D01*
X124419950Y-93423766D01*
X124409083Y-93411375D01*
X124394648Y-93392563D01*
X124389622Y-93386013D01*
X124357710Y-93361526D01*
X124357704Y-93361520D01*
X124269064Y-93293504D01*
X124269062Y-93293503D01*
X124262511Y-93288476D01*
X124114486Y-93227162D01*
X124106299Y-93226084D01*
X124106298Y-93226084D01*
X124095093Y-93224609D01*
X124063897Y-93220502D01*
X123995520Y-93211500D01*
X123995517Y-93211500D01*
X123995509Y-93211499D01*
X123963824Y-93207328D01*
X123955635Y-93206250D01*
X123923942Y-93210422D01*
X123907499Y-93211500D01*
X123092501Y-93211500D01*
X123076058Y-93210422D01*
X123044365Y-93206250D01*
X123036176Y-93207328D01*
X123004491Y-93211499D01*
X123004482Y-93211500D01*
X123004480Y-93211500D01*
X123004474Y-93211501D01*
X123004472Y-93211501D01*
X122904908Y-93224609D01*
X122893701Y-93226084D01*
X122893699Y-93226085D01*
X122885514Y-93227162D01*
X122737489Y-93288476D01*
X122691670Y-93323634D01*
X122642302Y-93361515D01*
X122642286Y-93361529D01*
X122616931Y-93380984D01*
X122616928Y-93380987D01*
X122610378Y-93386013D01*
X122605348Y-93392568D01*
X122590913Y-93411379D01*
X122580046Y-93423770D01*
X122056252Y-93947564D01*
X121993940Y-93981590D01*
X121923125Y-93976525D01*
X121878062Y-93947564D01*
X121844300Y-93913802D01*
X121839792Y-93910645D01*
X121839789Y-93910643D01*
X121761611Y-93855902D01*
X121656749Y-93782477D01*
X121651767Y-93780154D01*
X121651762Y-93780151D01*
X121454225Y-93688039D01*
X121454224Y-93688039D01*
X121449243Y-93685716D01*
X121443935Y-93684294D01*
X121443933Y-93684293D01*
X121233402Y-93627881D01*
X121233400Y-93627881D01*
X121228087Y-93626457D01*
X121000000Y-93606502D01*
X120771913Y-93626457D01*
X120766600Y-93627881D01*
X120766598Y-93627881D01*
X120556067Y-93684293D01*
X120556065Y-93684294D01*
X120550757Y-93685716D01*
X120545776Y-93688039D01*
X120545775Y-93688039D01*
X120348238Y-93780151D01*
X120348233Y-93780154D01*
X120343251Y-93782477D01*
X120238389Y-93855902D01*
X120160211Y-93910643D01*
X120160208Y-93910645D01*
X120155700Y-93913802D01*
X120010000Y-94059502D01*
X119947688Y-94093528D01*
X119876873Y-94088463D01*
X119820037Y-94045916D01*
X119802868Y-94009263D01*
X119801745Y-94009684D01*
X119753767Y-93881703D01*
X119750615Y-93873295D01*
X119663261Y-93756739D01*
X119546705Y-93669385D01*
X119410316Y-93618255D01*
X119348134Y-93611500D01*
X117651866Y-93611500D01*
X117589684Y-93618255D01*
X117453295Y-93669385D01*
X117336739Y-93756739D01*
X117249385Y-93873295D01*
X117198255Y-94009684D01*
X117191500Y-94071866D01*
X117191500Y-94646762D01*
X117171498Y-94714883D01*
X117117842Y-94761376D01*
X117047568Y-94771480D01*
X116982988Y-94741986D01*
X116976405Y-94735857D01*
X112075405Y-89834856D01*
X112041379Y-89772544D01*
X112038500Y-89745761D01*
X112038500Y-87719464D01*
X112058502Y-87651343D01*
X112109065Y-87606315D01*
X112134982Y-87593618D01*
X112139192Y-87590615D01*
X112139197Y-87590612D01*
X112314455Y-87465601D01*
X112314459Y-87465597D01*
X112318667Y-87462596D01*
X112478487Y-87303333D01*
X112610150Y-87120105D01*
X112710118Y-86917835D01*
X112775708Y-86701952D01*
X112805158Y-86478256D01*
X112806802Y-86411000D01*
X112788315Y-86186132D01*
X112733349Y-85967304D01*
X112643380Y-85760391D01*
X112595282Y-85686043D01*
X112523634Y-85575291D01*
X112523632Y-85575288D01*
X112520826Y-85570951D01*
X112368977Y-85404071D01*
X112364926Y-85400872D01*
X112364922Y-85400868D01*
X112195966Y-85267434D01*
X112195962Y-85267432D01*
X112191911Y-85264232D01*
X112168535Y-85251328D01*
X112118564Y-85200896D01*
X112103792Y-85131453D01*
X112128908Y-85065047D01*
X112156259Y-85038441D01*
X112221095Y-84992194D01*
X117152895Y-84992194D01*
X117161453Y-85048121D01*
X117163841Y-85058146D01*
X117233836Y-85272295D01*
X117237833Y-85281804D01*
X117341861Y-85481640D01*
X117347355Y-85490365D01*
X117482628Y-85670532D01*
X117489471Y-85678239D01*
X117652356Y-85833896D01*
X117660362Y-85840379D01*
X117846485Y-85967343D01*
X117855444Y-85972432D01*
X118059807Y-86067294D01*
X118069475Y-86070851D01*
X118286580Y-86131060D01*
X118296699Y-86132991D01*
X118480595Y-86152644D01*
X118487287Y-86153000D01*
X118887885Y-86153000D01*
X118903124Y-86148525D01*
X118904329Y-86147135D01*
X118906000Y-86139452D01*
X118906000Y-86134885D01*
X119414000Y-86134885D01*
X119418475Y-86150124D01*
X119419865Y-86151329D01*
X119427548Y-86153000D01*
X119816145Y-86153000D01*
X119821318Y-86152788D01*
X119988687Y-86139027D01*
X119998867Y-86137342D01*
X120217377Y-86082456D01*
X120227128Y-86079136D01*
X120433749Y-85989296D01*
X120442824Y-85984430D01*
X120631990Y-85862052D01*
X120640161Y-85855760D01*
X120806800Y-85704131D01*
X120813825Y-85696598D01*
X120953466Y-85519782D01*
X120959162Y-85511209D01*
X121068052Y-85313955D01*
X121072273Y-85304560D01*
X121147481Y-85092180D01*
X121150113Y-85082217D01*
X121166148Y-84992194D01*
X129652895Y-84992194D01*
X129661453Y-85048121D01*
X129663841Y-85058146D01*
X129733836Y-85272295D01*
X129737833Y-85281804D01*
X129841861Y-85481640D01*
X129847355Y-85490365D01*
X129982628Y-85670532D01*
X129989471Y-85678239D01*
X130152356Y-85833896D01*
X130160362Y-85840379D01*
X130346485Y-85967343D01*
X130355444Y-85972432D01*
X130559807Y-86067294D01*
X130569475Y-86070851D01*
X130786580Y-86131060D01*
X130796699Y-86132991D01*
X130980595Y-86152644D01*
X130987287Y-86153000D01*
X131387885Y-86153000D01*
X131403124Y-86148525D01*
X131404329Y-86147135D01*
X131406000Y-86139452D01*
X131406000Y-86134885D01*
X131914000Y-86134885D01*
X131918475Y-86150124D01*
X131919865Y-86151329D01*
X131927548Y-86153000D01*
X132316145Y-86153000D01*
X132321318Y-86152788D01*
X132488687Y-86139027D01*
X132498867Y-86137342D01*
X132717377Y-86082456D01*
X132727128Y-86079136D01*
X132933749Y-85989296D01*
X132942824Y-85984430D01*
X133131990Y-85862052D01*
X133140161Y-85855760D01*
X133306800Y-85704131D01*
X133313825Y-85696598D01*
X133453466Y-85519782D01*
X133459162Y-85511209D01*
X133568052Y-85313955D01*
X133572273Y-85304560D01*
X133647481Y-85092180D01*
X133650113Y-85082217D01*
X133666148Y-84992194D01*
X139412895Y-84992194D01*
X139421453Y-85048121D01*
X139423841Y-85058146D01*
X139493836Y-85272295D01*
X139497833Y-85281804D01*
X139601861Y-85481640D01*
X139607355Y-85490365D01*
X139742628Y-85670532D01*
X139749471Y-85678239D01*
X139912356Y-85833896D01*
X139920362Y-85840379D01*
X140106485Y-85967343D01*
X140115444Y-85972432D01*
X140319807Y-86067294D01*
X140329475Y-86070851D01*
X140546580Y-86131060D01*
X140556699Y-86132991D01*
X140740595Y-86152644D01*
X140747287Y-86153000D01*
X141147885Y-86153000D01*
X141163124Y-86148525D01*
X141164329Y-86147135D01*
X141166000Y-86139452D01*
X141166000Y-86134885D01*
X141674000Y-86134885D01*
X141678475Y-86150124D01*
X141679865Y-86151329D01*
X141687548Y-86153000D01*
X142076145Y-86153000D01*
X142081318Y-86152788D01*
X142248687Y-86139027D01*
X142258867Y-86137342D01*
X142477377Y-86082456D01*
X142487128Y-86079136D01*
X142693749Y-85989296D01*
X142702824Y-85984430D01*
X142891990Y-85862052D01*
X142900161Y-85855760D01*
X143066800Y-85704131D01*
X143073825Y-85696598D01*
X143213466Y-85519782D01*
X143219162Y-85511209D01*
X143328052Y-85313955D01*
X143332273Y-85304560D01*
X143407481Y-85092180D01*
X143410113Y-85082217D01*
X143426148Y-84992194D01*
X151912895Y-84992194D01*
X151921453Y-85048121D01*
X151923841Y-85058146D01*
X151993836Y-85272295D01*
X151997833Y-85281804D01*
X152101861Y-85481640D01*
X152107355Y-85490365D01*
X152242628Y-85670532D01*
X152249471Y-85678239D01*
X152412356Y-85833896D01*
X152420362Y-85840379D01*
X152606485Y-85967343D01*
X152615444Y-85972432D01*
X152819807Y-86067294D01*
X152829475Y-86070851D01*
X153046580Y-86131060D01*
X153056699Y-86132991D01*
X153240595Y-86152644D01*
X153247287Y-86153000D01*
X153647885Y-86153000D01*
X153663124Y-86148525D01*
X153664329Y-86147135D01*
X153666000Y-86139452D01*
X153666000Y-86134885D01*
X154174000Y-86134885D01*
X154178475Y-86150124D01*
X154179865Y-86151329D01*
X154187548Y-86153000D01*
X154576145Y-86153000D01*
X154581318Y-86152788D01*
X154748687Y-86139027D01*
X154758867Y-86137342D01*
X154977377Y-86082456D01*
X154987128Y-86079136D01*
X155193749Y-85989296D01*
X155202824Y-85984430D01*
X155391990Y-85862052D01*
X155400161Y-85855760D01*
X155566800Y-85704131D01*
X155573825Y-85696598D01*
X155713466Y-85519782D01*
X155719162Y-85511209D01*
X155828052Y-85313955D01*
X155832273Y-85304560D01*
X155907481Y-85092180D01*
X155910113Y-85082217D01*
X155926212Y-84991837D01*
X155924752Y-84978540D01*
X155910197Y-84974000D01*
X154192115Y-84974000D01*
X154176876Y-84978475D01*
X154175671Y-84979865D01*
X154174000Y-84987548D01*
X154174000Y-86134885D01*
X153666000Y-86134885D01*
X153666000Y-84992115D01*
X153661525Y-84976876D01*
X153660135Y-84975671D01*
X153652452Y-84974000D01*
X151928226Y-84974000D01*
X151914882Y-84977918D01*
X151912895Y-84992194D01*
X143426148Y-84992194D01*
X143426212Y-84991837D01*
X143424752Y-84978540D01*
X143410197Y-84974000D01*
X141692115Y-84974000D01*
X141676876Y-84978475D01*
X141675671Y-84979865D01*
X141674000Y-84987548D01*
X141674000Y-86134885D01*
X141166000Y-86134885D01*
X141166000Y-84992115D01*
X141161525Y-84976876D01*
X141160135Y-84975671D01*
X141152452Y-84974000D01*
X139428226Y-84974000D01*
X139414882Y-84977918D01*
X139412895Y-84992194D01*
X133666148Y-84992194D01*
X133666212Y-84991837D01*
X133664752Y-84978540D01*
X133650197Y-84974000D01*
X131932115Y-84974000D01*
X131916876Y-84978475D01*
X131915671Y-84979865D01*
X131914000Y-84987548D01*
X131914000Y-86134885D01*
X131406000Y-86134885D01*
X131406000Y-84992115D01*
X131401525Y-84976876D01*
X131400135Y-84975671D01*
X131392452Y-84974000D01*
X129668226Y-84974000D01*
X129654882Y-84977918D01*
X129652895Y-84992194D01*
X121166148Y-84992194D01*
X121166212Y-84991837D01*
X121164752Y-84978540D01*
X121150197Y-84974000D01*
X119432115Y-84974000D01*
X119416876Y-84978475D01*
X119415671Y-84979865D01*
X119414000Y-84987548D01*
X119414000Y-86134885D01*
X118906000Y-86134885D01*
X118906000Y-84992115D01*
X118901525Y-84976876D01*
X118900135Y-84975671D01*
X118892452Y-84974000D01*
X117168226Y-84974000D01*
X117154882Y-84977918D01*
X117152895Y-84992194D01*
X112221095Y-84992194D01*
X112314455Y-84925601D01*
X112314459Y-84925597D01*
X112318667Y-84922596D01*
X112478487Y-84763333D01*
X112610150Y-84580105D01*
X112675360Y-84448163D01*
X117153788Y-84448163D01*
X117155248Y-84461460D01*
X117169803Y-84466000D01*
X118887885Y-84466000D01*
X118903124Y-84461525D01*
X118904329Y-84460135D01*
X118906000Y-84452452D01*
X118906000Y-84447885D01*
X119414000Y-84447885D01*
X119418475Y-84463124D01*
X119419865Y-84464329D01*
X119427548Y-84466000D01*
X121151774Y-84466000D01*
X121165118Y-84462082D01*
X121167055Y-84448163D01*
X129653788Y-84448163D01*
X129655248Y-84461460D01*
X129669803Y-84466000D01*
X131387885Y-84466000D01*
X131403124Y-84461525D01*
X131404329Y-84460135D01*
X131406000Y-84452452D01*
X131406000Y-84447885D01*
X131914000Y-84447885D01*
X131918475Y-84463124D01*
X131919865Y-84464329D01*
X131927548Y-84466000D01*
X133651774Y-84466000D01*
X133665118Y-84462082D01*
X133667055Y-84448163D01*
X139413788Y-84448163D01*
X139415248Y-84461460D01*
X139429803Y-84466000D01*
X141147885Y-84466000D01*
X141163124Y-84461525D01*
X141164329Y-84460135D01*
X141166000Y-84452452D01*
X141166000Y-84447885D01*
X141674000Y-84447885D01*
X141678475Y-84463124D01*
X141679865Y-84464329D01*
X141687548Y-84466000D01*
X143411774Y-84466000D01*
X143425118Y-84462082D01*
X143427055Y-84448163D01*
X151913788Y-84448163D01*
X151915248Y-84461460D01*
X151929803Y-84466000D01*
X153647885Y-84466000D01*
X153663124Y-84461525D01*
X153664329Y-84460135D01*
X153666000Y-84452452D01*
X153666000Y-84447885D01*
X154174000Y-84447885D01*
X154178475Y-84463124D01*
X154179865Y-84464329D01*
X154187548Y-84466000D01*
X155911774Y-84466000D01*
X155925118Y-84462082D01*
X155927105Y-84447806D01*
X155918547Y-84391879D01*
X155916159Y-84381854D01*
X155846164Y-84167705D01*
X155842167Y-84158196D01*
X155738139Y-83958360D01*
X155732645Y-83949635D01*
X155597372Y-83769468D01*
X155590529Y-83761761D01*
X155427644Y-83606104D01*
X155419638Y-83599621D01*
X155233515Y-83472657D01*
X155224556Y-83467568D01*
X155020193Y-83372706D01*
X155010525Y-83369149D01*
X154793420Y-83308940D01*
X154783301Y-83307009D01*
X154599405Y-83287356D01*
X154592713Y-83287000D01*
X154192115Y-83287000D01*
X154176876Y-83291475D01*
X154175671Y-83292865D01*
X154174000Y-83300548D01*
X154174000Y-84447885D01*
X153666000Y-84447885D01*
X153666000Y-83305115D01*
X153661525Y-83289876D01*
X153660135Y-83288671D01*
X153652452Y-83287000D01*
X153263855Y-83287000D01*
X153258682Y-83287212D01*
X153091313Y-83300973D01*
X153081133Y-83302658D01*
X152862623Y-83357544D01*
X152852872Y-83360864D01*
X152646251Y-83450704D01*
X152637176Y-83455570D01*
X152448010Y-83577948D01*
X152439839Y-83584240D01*
X152273200Y-83735869D01*
X152266175Y-83743402D01*
X152126534Y-83920218D01*
X152120838Y-83928791D01*
X152011948Y-84126045D01*
X152007727Y-84135440D01*
X151932519Y-84347820D01*
X151929887Y-84357783D01*
X151913788Y-84448163D01*
X143427055Y-84448163D01*
X143427105Y-84447806D01*
X143418547Y-84391879D01*
X143416159Y-84381854D01*
X143346164Y-84167705D01*
X143342167Y-84158196D01*
X143238139Y-83958360D01*
X143232645Y-83949635D01*
X143097372Y-83769468D01*
X143090529Y-83761761D01*
X142927644Y-83606104D01*
X142919638Y-83599621D01*
X142733515Y-83472657D01*
X142724556Y-83467568D01*
X142520193Y-83372706D01*
X142510525Y-83369149D01*
X142293420Y-83308940D01*
X142283301Y-83307009D01*
X142099405Y-83287356D01*
X142092713Y-83287000D01*
X141692115Y-83287000D01*
X141676876Y-83291475D01*
X141675671Y-83292865D01*
X141674000Y-83300548D01*
X141674000Y-84447885D01*
X141166000Y-84447885D01*
X141166000Y-83305115D01*
X141161525Y-83289876D01*
X141160135Y-83288671D01*
X141152452Y-83287000D01*
X140763855Y-83287000D01*
X140758682Y-83287212D01*
X140591313Y-83300973D01*
X140581133Y-83302658D01*
X140362623Y-83357544D01*
X140352872Y-83360864D01*
X140146251Y-83450704D01*
X140137176Y-83455570D01*
X139948010Y-83577948D01*
X139939839Y-83584240D01*
X139773200Y-83735869D01*
X139766175Y-83743402D01*
X139626534Y-83920218D01*
X139620838Y-83928791D01*
X139511948Y-84126045D01*
X139507727Y-84135440D01*
X139432519Y-84347820D01*
X139429887Y-84357783D01*
X139413788Y-84448163D01*
X133667055Y-84448163D01*
X133667105Y-84447806D01*
X133658547Y-84391879D01*
X133656159Y-84381854D01*
X133586164Y-84167705D01*
X133582167Y-84158196D01*
X133478139Y-83958360D01*
X133472645Y-83949635D01*
X133337372Y-83769468D01*
X133330529Y-83761761D01*
X133167644Y-83606104D01*
X133159638Y-83599621D01*
X132973515Y-83472657D01*
X132964556Y-83467568D01*
X132760193Y-83372706D01*
X132750525Y-83369149D01*
X132533420Y-83308940D01*
X132523301Y-83307009D01*
X132339405Y-83287356D01*
X132332713Y-83287000D01*
X131932115Y-83287000D01*
X131916876Y-83291475D01*
X131915671Y-83292865D01*
X131914000Y-83300548D01*
X131914000Y-84447885D01*
X131406000Y-84447885D01*
X131406000Y-83305115D01*
X131401525Y-83289876D01*
X131400135Y-83288671D01*
X131392452Y-83287000D01*
X131003855Y-83287000D01*
X130998682Y-83287212D01*
X130831313Y-83300973D01*
X130821133Y-83302658D01*
X130602623Y-83357544D01*
X130592872Y-83360864D01*
X130386251Y-83450704D01*
X130377176Y-83455570D01*
X130188010Y-83577948D01*
X130179839Y-83584240D01*
X130013200Y-83735869D01*
X130006175Y-83743402D01*
X129866534Y-83920218D01*
X129860838Y-83928791D01*
X129751948Y-84126045D01*
X129747727Y-84135440D01*
X129672519Y-84347820D01*
X129669887Y-84357783D01*
X129653788Y-84448163D01*
X121167055Y-84448163D01*
X121167105Y-84447806D01*
X121158547Y-84391879D01*
X121156159Y-84381854D01*
X121086164Y-84167705D01*
X121082167Y-84158196D01*
X120978139Y-83958360D01*
X120972645Y-83949635D01*
X120837372Y-83769468D01*
X120830529Y-83761761D01*
X120667644Y-83606104D01*
X120659638Y-83599621D01*
X120473515Y-83472657D01*
X120464556Y-83467568D01*
X120260193Y-83372706D01*
X120250525Y-83369149D01*
X120033420Y-83308940D01*
X120023301Y-83307009D01*
X119839405Y-83287356D01*
X119832713Y-83287000D01*
X119432115Y-83287000D01*
X119416876Y-83291475D01*
X119415671Y-83292865D01*
X119414000Y-83300548D01*
X119414000Y-84447885D01*
X118906000Y-84447885D01*
X118906000Y-83305115D01*
X118901525Y-83289876D01*
X118900135Y-83288671D01*
X118892452Y-83287000D01*
X118503855Y-83287000D01*
X118498682Y-83287212D01*
X118331313Y-83300973D01*
X118321133Y-83302658D01*
X118102623Y-83357544D01*
X118092872Y-83360864D01*
X117886251Y-83450704D01*
X117877176Y-83455570D01*
X117688010Y-83577948D01*
X117679839Y-83584240D01*
X117513200Y-83735869D01*
X117506175Y-83743402D01*
X117366534Y-83920218D01*
X117360838Y-83928791D01*
X117251948Y-84126045D01*
X117247727Y-84135440D01*
X117172519Y-84347820D01*
X117169887Y-84357783D01*
X117153788Y-84448163D01*
X112675360Y-84448163D01*
X112710118Y-84377835D01*
X112775708Y-84161952D01*
X112778734Y-84138966D01*
X112804721Y-83941578D01*
X112804722Y-83941572D01*
X112805158Y-83938256D01*
X112806802Y-83871000D01*
X112788315Y-83646132D01*
X112733349Y-83427304D01*
X112643380Y-83220391D01*
X112593913Y-83143926D01*
X112523634Y-83035291D01*
X112523632Y-83035288D01*
X112520826Y-83030951D01*
X112368977Y-82864071D01*
X112364926Y-82860872D01*
X112364922Y-82860868D01*
X112195966Y-82727434D01*
X112195962Y-82727432D01*
X112191911Y-82724232D01*
X111994383Y-82615191D01*
X111781698Y-82539876D01*
X111752795Y-82534727D01*
X111564657Y-82501214D01*
X111564653Y-82501214D01*
X111559569Y-82500308D01*
X111487574Y-82499429D01*
X111339129Y-82497615D01*
X111339127Y-82497615D01*
X111333959Y-82497552D01*
X111110929Y-82531680D01*
X110896468Y-82601777D01*
X110891876Y-82604167D01*
X110891877Y-82604167D01*
X110705996Y-82700931D01*
X110696335Y-82705960D01*
X110692202Y-82709063D01*
X110692199Y-82709065D01*
X110520040Y-82838325D01*
X110515905Y-82841430D01*
X110360024Y-83004550D01*
X110357109Y-83008824D01*
X110357106Y-83008827D01*
X110263503Y-83146043D01*
X110208592Y-83191046D01*
X110138067Y-83199217D01*
X110074320Y-83167963D01*
X110053623Y-83143479D01*
X110042122Y-83125700D01*
X110011972Y-83079096D01*
X109983634Y-83035291D01*
X109983632Y-83035288D01*
X109980826Y-83030951D01*
X109828977Y-82864071D01*
X109824926Y-82860872D01*
X109824922Y-82860868D01*
X109655966Y-82727434D01*
X109655962Y-82727432D01*
X109651911Y-82724232D01*
X109454383Y-82615191D01*
X109241698Y-82539876D01*
X109212795Y-82534727D01*
X109024657Y-82501214D01*
X109024653Y-82501214D01*
X109019569Y-82500308D01*
X108947574Y-82499429D01*
X108799129Y-82497615D01*
X108799127Y-82497615D01*
X108793959Y-82497552D01*
X108570929Y-82531680D01*
X108356468Y-82601777D01*
X108351876Y-82604167D01*
X108351877Y-82604167D01*
X108165996Y-82700931D01*
X108156335Y-82705960D01*
X108152202Y-82709063D01*
X108152199Y-82709065D01*
X107980040Y-82838325D01*
X107975905Y-82841430D01*
X107820024Y-83004550D01*
X107817109Y-83008824D01*
X107817106Y-83008827D01*
X107723503Y-83146043D01*
X107668592Y-83191046D01*
X107598067Y-83199217D01*
X107534320Y-83167963D01*
X107513623Y-83143479D01*
X107502122Y-83125700D01*
X107471972Y-83079096D01*
X107443634Y-83035291D01*
X107443632Y-83035288D01*
X107440826Y-83030951D01*
X107288977Y-82864071D01*
X107284926Y-82860872D01*
X107284922Y-82860868D01*
X107115966Y-82727434D01*
X107115962Y-82727432D01*
X107111911Y-82724232D01*
X106914383Y-82615191D01*
X106701698Y-82539876D01*
X106672795Y-82534727D01*
X106484657Y-82501214D01*
X106484653Y-82501214D01*
X106479569Y-82500308D01*
X106407574Y-82499429D01*
X106259129Y-82497615D01*
X106259127Y-82497615D01*
X106253959Y-82497552D01*
X106030929Y-82531680D01*
X105816468Y-82601777D01*
X105811876Y-82604167D01*
X105811877Y-82604167D01*
X105625996Y-82700931D01*
X105616335Y-82705960D01*
X105612202Y-82709063D01*
X105612199Y-82709065D01*
X105440040Y-82838325D01*
X105435905Y-82841430D01*
X105280024Y-83004550D01*
X105277109Y-83008824D01*
X105277106Y-83008827D01*
X105183198Y-83146490D01*
X105128287Y-83191493D01*
X105057762Y-83199664D01*
X104994015Y-83168410D01*
X104973318Y-83143926D01*
X104903239Y-83035601D01*
X104896947Y-83027430D01*
X104752113Y-82868260D01*
X104744580Y-82861234D01*
X104575691Y-82727855D01*
X104567104Y-82722150D01*
X104378711Y-82618151D01*
X104369299Y-82613921D01*
X104166445Y-82542086D01*
X104156474Y-82539452D01*
X104081837Y-82526157D01*
X104068540Y-82527617D01*
X104064000Y-82542174D01*
X104064000Y-83999000D01*
X104043998Y-84067121D01*
X103990342Y-84113614D01*
X103938000Y-84125000D01*
X102479283Y-84125000D01*
X102465752Y-84128973D01*
X102464315Y-84138966D01*
X102495542Y-84277528D01*
X102498621Y-84287356D01*
X102579589Y-84486756D01*
X102584232Y-84495947D01*
X102696682Y-84679448D01*
X102702765Y-84687759D01*
X102843661Y-84850413D01*
X102844295Y-84851034D01*
X102844471Y-84851348D01*
X102847053Y-84854329D01*
X102846438Y-84854862D01*
X102878973Y-84912985D01*
X102874653Y-84983850D01*
X102832706Y-85041130D01*
X102800371Y-85059043D01*
X102739481Y-85081870D01*
X102699695Y-85096785D01*
X102583139Y-85184139D01*
X102495785Y-85300695D01*
X102444655Y-85437084D01*
X102437900Y-85499266D01*
X102437900Y-87322734D01*
X102444655Y-87384916D01*
X102495785Y-87521305D01*
X102583139Y-87637861D01*
X102699695Y-87725215D01*
X102836084Y-87776345D01*
X102898266Y-87783100D01*
X104721734Y-87783100D01*
X104783916Y-87776345D01*
X104920305Y-87725215D01*
X105036861Y-87637861D01*
X105124215Y-87521305D01*
X105162213Y-87419946D01*
X105204854Y-87363181D01*
X105271416Y-87338481D01*
X105340765Y-87353688D01*
X105375431Y-87381676D01*
X105386702Y-87394687D01*
X105560299Y-87538810D01*
X105564751Y-87541412D01*
X105564756Y-87541415D01*
X105739012Y-87643242D01*
X105755103Y-87652645D01*
X105965884Y-87733134D01*
X105970952Y-87734165D01*
X105970955Y-87734166D01*
X106079404Y-87756230D01*
X106186981Y-87778117D01*
X106192156Y-87778307D01*
X106192158Y-87778307D01*
X106407292Y-87786196D01*
X106407296Y-87786196D01*
X106412456Y-87786385D01*
X106417576Y-87785729D01*
X106417578Y-87785729D01*
X106512485Y-87773571D01*
X106636253Y-87757716D01*
X106641202Y-87756231D01*
X106641208Y-87756230D01*
X106847413Y-87694365D01*
X106847412Y-87694365D01*
X106852363Y-87692880D01*
X106979327Y-87630681D01*
X107050331Y-87595897D01*
X107050336Y-87595894D01*
X107054982Y-87593618D01*
X107059192Y-87590615D01*
X107059197Y-87590612D01*
X107234455Y-87465601D01*
X107234459Y-87465597D01*
X107238667Y-87462596D01*
X107398487Y-87303333D01*
X107519370Y-87135107D01*
X107575364Y-87091459D01*
X107646068Y-87085013D01*
X107709032Y-87117816D01*
X107729125Y-87142799D01*
X107776275Y-87219743D01*
X107776283Y-87219753D01*
X107778975Y-87224147D01*
X107926702Y-87394687D01*
X108100299Y-87538810D01*
X108104751Y-87541412D01*
X108104756Y-87541415D01*
X108219071Y-87608215D01*
X108267794Y-87659854D01*
X108281500Y-87717003D01*
X108281500Y-90805761D01*
X108261498Y-90873882D01*
X108244595Y-90894856D01*
X103292578Y-95846873D01*
X103230266Y-95880899D01*
X103159451Y-95875834D01*
X103100270Y-95830049D01*
X103099588Y-95829074D01*
X103006198Y-95695700D01*
X102844300Y-95533802D01*
X102839789Y-95530643D01*
X102835576Y-95527108D01*
X102836527Y-95525974D01*
X102796529Y-95475929D01*
X102789224Y-95405310D01*
X102821258Y-95341951D01*
X102882462Y-95305970D01*
X102899517Y-95302918D01*
X102910316Y-95301745D01*
X103046705Y-95250615D01*
X103163261Y-95163261D01*
X103250615Y-95046705D01*
X103301745Y-94910316D01*
X103308500Y-94848134D01*
X103308500Y-93151866D01*
X103301745Y-93089684D01*
X103250615Y-92953295D01*
X103163261Y-92836739D01*
X103046705Y-92749385D01*
X102910316Y-92698255D01*
X102848134Y-92691500D01*
X101151866Y-92691500D01*
X101089684Y-92698255D01*
X100953295Y-92749385D01*
X100836739Y-92836739D01*
X100749385Y-92953295D01*
X100746236Y-92961696D01*
X100745019Y-92963918D01*
X100694760Y-93014064D01*
X100625369Y-93029077D01*
X100558877Y-93004191D01*
X100516395Y-92947307D01*
X100508500Y-92903408D01*
X100508500Y-83604239D01*
X102460536Y-83604239D01*
X102462233Y-83613609D01*
X102474610Y-83617000D01*
X103537885Y-83617000D01*
X103553124Y-83612525D01*
X103554329Y-83611135D01*
X103556000Y-83603452D01*
X103556000Y-82540343D01*
X103552082Y-82526999D01*
X103537806Y-82525012D01*
X103496161Y-82531385D01*
X103486125Y-82533776D01*
X103281576Y-82600633D01*
X103272079Y-82604625D01*
X103081189Y-82703995D01*
X103072464Y-82709490D01*
X102900373Y-82838700D01*
X102892666Y-82845543D01*
X102743984Y-83001129D01*
X102737498Y-83009139D01*
X102616232Y-83186908D01*
X102611134Y-83195882D01*
X102520530Y-83391071D01*
X102516967Y-83400758D01*
X102460536Y-83604239D01*
X100508500Y-83604239D01*
X100508500Y-79820339D01*
X117126091Y-79820339D01*
X117161747Y-80053349D01*
X117234980Y-80277407D01*
X117343825Y-80486496D01*
X117346928Y-80490629D01*
X117346930Y-80490632D01*
X117482253Y-80670865D01*
X117485358Y-80675000D01*
X117489096Y-80678572D01*
X117578805Y-80764300D01*
X117655777Y-80837857D01*
X117850508Y-80970693D01*
X117855192Y-80972867D01*
X117855195Y-80972869D01*
X118059628Y-81067764D01*
X118059633Y-81067766D01*
X118064319Y-81069941D01*
X118291468Y-81132935D01*
X118296605Y-81133484D01*
X118480563Y-81153144D01*
X118480571Y-81153144D01*
X118483898Y-81153500D01*
X119818757Y-81153500D01*
X119821330Y-81153288D01*
X119821341Y-81153288D01*
X119988779Y-81139522D01*
X119988785Y-81139521D01*
X119993930Y-81139098D01*
X120222551Y-81081673D01*
X120438723Y-80987678D01*
X120636641Y-80859640D01*
X120660581Y-80837857D01*
X120807167Y-80704473D01*
X120807168Y-80704471D01*
X120810989Y-80700995D01*
X120814188Y-80696944D01*
X120814192Y-80696940D01*
X120953883Y-80520061D01*
X120953885Y-80520057D01*
X120957085Y-80516006D01*
X121071005Y-80309639D01*
X121080794Y-80281998D01*
X121147965Y-80092311D01*
X121147966Y-80092307D01*
X121149691Y-80087436D01*
X121150599Y-80082340D01*
X121190123Y-79860456D01*
X121190124Y-79860450D01*
X121191029Y-79855367D01*
X121191457Y-79820339D01*
X129626091Y-79820339D01*
X129661747Y-80053349D01*
X129734980Y-80277407D01*
X129843825Y-80486496D01*
X129846928Y-80490629D01*
X129846930Y-80490632D01*
X129982253Y-80670865D01*
X129985358Y-80675000D01*
X129989096Y-80678572D01*
X130078805Y-80764300D01*
X130155777Y-80837857D01*
X130350508Y-80970693D01*
X130355192Y-80972867D01*
X130355195Y-80972869D01*
X130559628Y-81067764D01*
X130559633Y-81067766D01*
X130564319Y-81069941D01*
X130791468Y-81132935D01*
X130796605Y-81133484D01*
X130980563Y-81153144D01*
X130980571Y-81153144D01*
X130983898Y-81153500D01*
X132318757Y-81153500D01*
X132321330Y-81153288D01*
X132321341Y-81153288D01*
X132488779Y-81139522D01*
X132488785Y-81139521D01*
X132493930Y-81139098D01*
X132722551Y-81081673D01*
X132938723Y-80987678D01*
X133136641Y-80859640D01*
X133160581Y-80837857D01*
X133307167Y-80704473D01*
X133307168Y-80704471D01*
X133310989Y-80700995D01*
X133314188Y-80696944D01*
X133314192Y-80696940D01*
X133453883Y-80520061D01*
X133453885Y-80520057D01*
X133457085Y-80516006D01*
X133571005Y-80309639D01*
X133580794Y-80281998D01*
X133647965Y-80092311D01*
X133647966Y-80092307D01*
X133649691Y-80087436D01*
X133650599Y-80082340D01*
X133690123Y-79860456D01*
X133690124Y-79860450D01*
X133691029Y-79855367D01*
X133691457Y-79820339D01*
X139386091Y-79820339D01*
X139421747Y-80053349D01*
X139494980Y-80277407D01*
X139603825Y-80486496D01*
X139606928Y-80490629D01*
X139606930Y-80490632D01*
X139742253Y-80670865D01*
X139745358Y-80675000D01*
X139749096Y-80678572D01*
X139838805Y-80764300D01*
X139915777Y-80837857D01*
X140110508Y-80970693D01*
X140115192Y-80972867D01*
X140115195Y-80972869D01*
X140319628Y-81067764D01*
X140319633Y-81067766D01*
X140324319Y-81069941D01*
X140551468Y-81132935D01*
X140556605Y-81133484D01*
X140740563Y-81153144D01*
X140740571Y-81153144D01*
X140743898Y-81153500D01*
X142078757Y-81153500D01*
X142081330Y-81153288D01*
X142081341Y-81153288D01*
X142248779Y-81139522D01*
X142248785Y-81139521D01*
X142253930Y-81139098D01*
X142482551Y-81081673D01*
X142698723Y-80987678D01*
X142896641Y-80859640D01*
X142920581Y-80837857D01*
X143067167Y-80704473D01*
X143067168Y-80704471D01*
X143070989Y-80700995D01*
X143074188Y-80696944D01*
X143074192Y-80696940D01*
X143213883Y-80520061D01*
X143213885Y-80520057D01*
X143217085Y-80516006D01*
X143331005Y-80309639D01*
X143340794Y-80281998D01*
X143407965Y-80092311D01*
X143407966Y-80092307D01*
X143409691Y-80087436D01*
X143410599Y-80082340D01*
X143450123Y-79860456D01*
X143450124Y-79860450D01*
X143451029Y-79855367D01*
X143453909Y-79619661D01*
X143418253Y-79386651D01*
X143345020Y-79162593D01*
X143236175Y-78953504D01*
X143217415Y-78928517D01*
X143097747Y-78769135D01*
X143097745Y-78769132D01*
X143094642Y-78765000D01*
X142929286Y-78606981D01*
X142927960Y-78605714D01*
X142927959Y-78605713D01*
X142924223Y-78602143D01*
X142729492Y-78469307D01*
X142724808Y-78467133D01*
X142724805Y-78467131D01*
X142520372Y-78372236D01*
X142520367Y-78372234D01*
X142515681Y-78370059D01*
X142288532Y-78307065D01*
X142283395Y-78306516D01*
X142099437Y-78286856D01*
X142099429Y-78286856D01*
X142096102Y-78286500D01*
X140761243Y-78286500D01*
X140758670Y-78286712D01*
X140758659Y-78286712D01*
X140591221Y-78300478D01*
X140591215Y-78300479D01*
X140586070Y-78300902D01*
X140357449Y-78358327D01*
X140141277Y-78452322D01*
X139943359Y-78580360D01*
X139939536Y-78583839D01*
X139939533Y-78583841D01*
X139772833Y-78735527D01*
X139769011Y-78739005D01*
X139765812Y-78743056D01*
X139765808Y-78743060D01*
X139626117Y-78919939D01*
X139622915Y-78923994D01*
X139508995Y-79130361D01*
X139507271Y-79135230D01*
X139507269Y-79135234D01*
X139432035Y-79347689D01*
X139430309Y-79352564D01*
X139429402Y-79357657D01*
X139429401Y-79357660D01*
X139408310Y-79476067D01*
X139388971Y-79584633D01*
X139386091Y-79820339D01*
X133691457Y-79820339D01*
X133693909Y-79619661D01*
X133658253Y-79386651D01*
X133585020Y-79162593D01*
X133476175Y-78953504D01*
X133457415Y-78928517D01*
X133337747Y-78769135D01*
X133337745Y-78769132D01*
X133334642Y-78765000D01*
X133169286Y-78606981D01*
X133167960Y-78605714D01*
X133167959Y-78605713D01*
X133164223Y-78602143D01*
X132969492Y-78469307D01*
X132964808Y-78467133D01*
X132964805Y-78467131D01*
X132760372Y-78372236D01*
X132760367Y-78372234D01*
X132755681Y-78370059D01*
X132528532Y-78307065D01*
X132523395Y-78306516D01*
X132339437Y-78286856D01*
X132339429Y-78286856D01*
X132336102Y-78286500D01*
X131001243Y-78286500D01*
X130998670Y-78286712D01*
X130998659Y-78286712D01*
X130831221Y-78300478D01*
X130831215Y-78300479D01*
X130826070Y-78300902D01*
X130597449Y-78358327D01*
X130381277Y-78452322D01*
X130183359Y-78580360D01*
X130179536Y-78583839D01*
X130179533Y-78583841D01*
X130012833Y-78735527D01*
X130009011Y-78739005D01*
X130005812Y-78743056D01*
X130005808Y-78743060D01*
X129866117Y-78919939D01*
X129862915Y-78923994D01*
X129748995Y-79130361D01*
X129747271Y-79135230D01*
X129747269Y-79135234D01*
X129672035Y-79347689D01*
X129670309Y-79352564D01*
X129669402Y-79357657D01*
X129669401Y-79357660D01*
X129648310Y-79476067D01*
X129628971Y-79584633D01*
X129626091Y-79820339D01*
X121191457Y-79820339D01*
X121193909Y-79619661D01*
X121158253Y-79386651D01*
X121085020Y-79162593D01*
X120976175Y-78953504D01*
X120957415Y-78928517D01*
X120837747Y-78769135D01*
X120837745Y-78769132D01*
X120834642Y-78765000D01*
X120669286Y-78606981D01*
X120667960Y-78605714D01*
X120667959Y-78605713D01*
X120664223Y-78602143D01*
X120469492Y-78469307D01*
X120464808Y-78467133D01*
X120464805Y-78467131D01*
X120260372Y-78372236D01*
X120260367Y-78372234D01*
X120255681Y-78370059D01*
X120028532Y-78307065D01*
X120023395Y-78306516D01*
X119839437Y-78286856D01*
X119839429Y-78286856D01*
X119836102Y-78286500D01*
X118501243Y-78286500D01*
X118498670Y-78286712D01*
X118498659Y-78286712D01*
X118331221Y-78300478D01*
X118331215Y-78300479D01*
X118326070Y-78300902D01*
X118097449Y-78358327D01*
X117881277Y-78452322D01*
X117683359Y-78580360D01*
X117679536Y-78583839D01*
X117679533Y-78583841D01*
X117512833Y-78735527D01*
X117509011Y-78739005D01*
X117505812Y-78743056D01*
X117505808Y-78743060D01*
X117366117Y-78919939D01*
X117362915Y-78923994D01*
X117248995Y-79130361D01*
X117247271Y-79135230D01*
X117247269Y-79135234D01*
X117172035Y-79347689D01*
X117170309Y-79352564D01*
X117169402Y-79357657D01*
X117169401Y-79357660D01*
X117148310Y-79476067D01*
X117128971Y-79584633D01*
X117126091Y-79820339D01*
X100508500Y-79820339D01*
X100508500Y-67692194D01*
X117152895Y-67692194D01*
X117161453Y-67748121D01*
X117163841Y-67758146D01*
X117233836Y-67972295D01*
X117237833Y-67981804D01*
X117341861Y-68181640D01*
X117347355Y-68190365D01*
X117482628Y-68370532D01*
X117489471Y-68378239D01*
X117652356Y-68533896D01*
X117660362Y-68540379D01*
X117846485Y-68667343D01*
X117855444Y-68672432D01*
X118059807Y-68767294D01*
X118069475Y-68770851D01*
X118286580Y-68831060D01*
X118296699Y-68832991D01*
X118480595Y-68852644D01*
X118487287Y-68853000D01*
X118887885Y-68853000D01*
X118903124Y-68848525D01*
X118904329Y-68847135D01*
X118906000Y-68839452D01*
X118906000Y-68834885D01*
X119414000Y-68834885D01*
X119418475Y-68850124D01*
X119419865Y-68851329D01*
X119427548Y-68853000D01*
X119816145Y-68853000D01*
X119821318Y-68852788D01*
X119988687Y-68839027D01*
X119998867Y-68837342D01*
X120217377Y-68782456D01*
X120227128Y-68779136D01*
X120433749Y-68689296D01*
X120442824Y-68684430D01*
X120631990Y-68562052D01*
X120640161Y-68555760D01*
X120806800Y-68404131D01*
X120813825Y-68396598D01*
X120953466Y-68219782D01*
X120959162Y-68211209D01*
X121068052Y-68013955D01*
X121072273Y-68004560D01*
X121147481Y-67792180D01*
X121150113Y-67782217D01*
X121166148Y-67692194D01*
X129652895Y-67692194D01*
X129661453Y-67748121D01*
X129663841Y-67758146D01*
X129733836Y-67972295D01*
X129737833Y-67981804D01*
X129841861Y-68181640D01*
X129847355Y-68190365D01*
X129982628Y-68370532D01*
X129989471Y-68378239D01*
X130152356Y-68533896D01*
X130160362Y-68540379D01*
X130346485Y-68667343D01*
X130355444Y-68672432D01*
X130559807Y-68767294D01*
X130569475Y-68770851D01*
X130786580Y-68831060D01*
X130796699Y-68832991D01*
X130980595Y-68852644D01*
X130987287Y-68853000D01*
X131387885Y-68853000D01*
X131403124Y-68848525D01*
X131404329Y-68847135D01*
X131406000Y-68839452D01*
X131406000Y-68834885D01*
X131914000Y-68834885D01*
X131918475Y-68850124D01*
X131919865Y-68851329D01*
X131927548Y-68853000D01*
X132316145Y-68853000D01*
X132321318Y-68852788D01*
X132488687Y-68839027D01*
X132498867Y-68837342D01*
X132717377Y-68782456D01*
X132727128Y-68779136D01*
X132933749Y-68689296D01*
X132942824Y-68684430D01*
X133131990Y-68562052D01*
X133140161Y-68555760D01*
X133306800Y-68404131D01*
X133313825Y-68396598D01*
X133453466Y-68219782D01*
X133459162Y-68211209D01*
X133568052Y-68013955D01*
X133572273Y-68004560D01*
X133647481Y-67792180D01*
X133650113Y-67782217D01*
X133666148Y-67692194D01*
X139412895Y-67692194D01*
X139421453Y-67748121D01*
X139423841Y-67758146D01*
X139493836Y-67972295D01*
X139497833Y-67981804D01*
X139601861Y-68181640D01*
X139607355Y-68190365D01*
X139742628Y-68370532D01*
X139749471Y-68378239D01*
X139912356Y-68533896D01*
X139920362Y-68540379D01*
X140106485Y-68667343D01*
X140115444Y-68672432D01*
X140319807Y-68767294D01*
X140329475Y-68770851D01*
X140546580Y-68831060D01*
X140556699Y-68832991D01*
X140740595Y-68852644D01*
X140747287Y-68853000D01*
X141147885Y-68853000D01*
X141163124Y-68848525D01*
X141164329Y-68847135D01*
X141166000Y-68839452D01*
X141166000Y-68834885D01*
X141674000Y-68834885D01*
X141678475Y-68850124D01*
X141679865Y-68851329D01*
X141687548Y-68853000D01*
X142076145Y-68853000D01*
X142081318Y-68852788D01*
X142248687Y-68839027D01*
X142258867Y-68837342D01*
X142477377Y-68782456D01*
X142487128Y-68779136D01*
X142693749Y-68689296D01*
X142702824Y-68684430D01*
X142891990Y-68562052D01*
X142900161Y-68555760D01*
X143066800Y-68404131D01*
X143073825Y-68396598D01*
X143213466Y-68219782D01*
X143219162Y-68211209D01*
X143328052Y-68013955D01*
X143332273Y-68004560D01*
X143407481Y-67792180D01*
X143410113Y-67782217D01*
X143426212Y-67691837D01*
X143424752Y-67678540D01*
X143410197Y-67674000D01*
X141692115Y-67674000D01*
X141676876Y-67678475D01*
X141675671Y-67679865D01*
X141674000Y-67687548D01*
X141674000Y-68834885D01*
X141166000Y-68834885D01*
X141166000Y-67692115D01*
X141161525Y-67676876D01*
X141160135Y-67675671D01*
X141152452Y-67674000D01*
X139428226Y-67674000D01*
X139414882Y-67677918D01*
X139412895Y-67692194D01*
X133666148Y-67692194D01*
X133666212Y-67691837D01*
X133664752Y-67678540D01*
X133650197Y-67674000D01*
X131932115Y-67674000D01*
X131916876Y-67678475D01*
X131915671Y-67679865D01*
X131914000Y-67687548D01*
X131914000Y-68834885D01*
X131406000Y-68834885D01*
X131406000Y-67692115D01*
X131401525Y-67676876D01*
X131400135Y-67675671D01*
X131392452Y-67674000D01*
X129668226Y-67674000D01*
X129654882Y-67677918D01*
X129652895Y-67692194D01*
X121166148Y-67692194D01*
X121166212Y-67691837D01*
X121164752Y-67678540D01*
X121150197Y-67674000D01*
X119432115Y-67674000D01*
X119416876Y-67678475D01*
X119415671Y-67679865D01*
X119414000Y-67687548D01*
X119414000Y-68834885D01*
X118906000Y-68834885D01*
X118906000Y-67692115D01*
X118901525Y-67676876D01*
X118900135Y-67675671D01*
X118892452Y-67674000D01*
X117168226Y-67674000D01*
X117154882Y-67677918D01*
X117152895Y-67692194D01*
X100508500Y-67692194D01*
X100508500Y-67148163D01*
X117153788Y-67148163D01*
X117155248Y-67161460D01*
X117169803Y-67166000D01*
X118887885Y-67166000D01*
X118903124Y-67161525D01*
X118904329Y-67160135D01*
X118906000Y-67152452D01*
X118906000Y-67147885D01*
X119414000Y-67147885D01*
X119418475Y-67163124D01*
X119419865Y-67164329D01*
X119427548Y-67166000D01*
X121151774Y-67166000D01*
X121165118Y-67162082D01*
X121167055Y-67148163D01*
X129653788Y-67148163D01*
X129655248Y-67161460D01*
X129669803Y-67166000D01*
X131387885Y-67166000D01*
X131403124Y-67161525D01*
X131404329Y-67160135D01*
X131406000Y-67152452D01*
X131406000Y-67147885D01*
X131914000Y-67147885D01*
X131918475Y-67163124D01*
X131919865Y-67164329D01*
X131927548Y-67166000D01*
X133651774Y-67166000D01*
X133665118Y-67162082D01*
X133667055Y-67148163D01*
X139413788Y-67148163D01*
X139415248Y-67161460D01*
X139429803Y-67166000D01*
X141147885Y-67166000D01*
X141163124Y-67161525D01*
X141164329Y-67160135D01*
X141166000Y-67152452D01*
X141166000Y-67147885D01*
X141674000Y-67147885D01*
X141678475Y-67163124D01*
X141679865Y-67164329D01*
X141687548Y-67166000D01*
X143411774Y-67166000D01*
X143425118Y-67162082D01*
X143427105Y-67147806D01*
X143418547Y-67091879D01*
X143416159Y-67081854D01*
X143346164Y-66867705D01*
X143342167Y-66858196D01*
X143238139Y-66658360D01*
X143232645Y-66649635D01*
X143097372Y-66469468D01*
X143090529Y-66461761D01*
X142927644Y-66306104D01*
X142919638Y-66299621D01*
X142733515Y-66172657D01*
X142724556Y-66167568D01*
X142520193Y-66072706D01*
X142510525Y-66069149D01*
X142293420Y-66008940D01*
X142283301Y-66007009D01*
X142099405Y-65987356D01*
X142092713Y-65987000D01*
X141692115Y-65987000D01*
X141676876Y-65991475D01*
X141675671Y-65992865D01*
X141674000Y-66000548D01*
X141674000Y-67147885D01*
X141166000Y-67147885D01*
X141166000Y-66005115D01*
X141161525Y-65989876D01*
X141160135Y-65988671D01*
X141152452Y-65987000D01*
X140763855Y-65987000D01*
X140758682Y-65987212D01*
X140591313Y-66000973D01*
X140581133Y-66002658D01*
X140362623Y-66057544D01*
X140352872Y-66060864D01*
X140146251Y-66150704D01*
X140137176Y-66155570D01*
X139948010Y-66277948D01*
X139939839Y-66284240D01*
X139773200Y-66435869D01*
X139766175Y-66443402D01*
X139626534Y-66620218D01*
X139620838Y-66628791D01*
X139511948Y-66826045D01*
X139507727Y-66835440D01*
X139432519Y-67047820D01*
X139429887Y-67057783D01*
X139413788Y-67148163D01*
X133667055Y-67148163D01*
X133667105Y-67147806D01*
X133658547Y-67091879D01*
X133656159Y-67081854D01*
X133586164Y-66867705D01*
X133582167Y-66858196D01*
X133478139Y-66658360D01*
X133472645Y-66649635D01*
X133337372Y-66469468D01*
X133330529Y-66461761D01*
X133167644Y-66306104D01*
X133159638Y-66299621D01*
X132973515Y-66172657D01*
X132964556Y-66167568D01*
X132760193Y-66072706D01*
X132750525Y-66069149D01*
X132533420Y-66008940D01*
X132523301Y-66007009D01*
X132339405Y-65987356D01*
X132332713Y-65987000D01*
X131932115Y-65987000D01*
X131916876Y-65991475D01*
X131915671Y-65992865D01*
X131914000Y-66000548D01*
X131914000Y-67147885D01*
X131406000Y-67147885D01*
X131406000Y-66005115D01*
X131401525Y-65989876D01*
X131400135Y-65988671D01*
X131392452Y-65987000D01*
X131003855Y-65987000D01*
X130998682Y-65987212D01*
X130831313Y-66000973D01*
X130821133Y-66002658D01*
X130602623Y-66057544D01*
X130592872Y-66060864D01*
X130386251Y-66150704D01*
X130377176Y-66155570D01*
X130188010Y-66277948D01*
X130179839Y-66284240D01*
X130013200Y-66435869D01*
X130006175Y-66443402D01*
X129866534Y-66620218D01*
X129860838Y-66628791D01*
X129751948Y-66826045D01*
X129747727Y-66835440D01*
X129672519Y-67047820D01*
X129669887Y-67057783D01*
X129653788Y-67148163D01*
X121167055Y-67148163D01*
X121167105Y-67147806D01*
X121158547Y-67091879D01*
X121156159Y-67081854D01*
X121086164Y-66867705D01*
X121082167Y-66858196D01*
X120978139Y-66658360D01*
X120972645Y-66649635D01*
X120837372Y-66469468D01*
X120830529Y-66461761D01*
X120667644Y-66306104D01*
X120659638Y-66299621D01*
X120473515Y-66172657D01*
X120464556Y-66167568D01*
X120260193Y-66072706D01*
X120250525Y-66069149D01*
X120033420Y-66008940D01*
X120023301Y-66007009D01*
X119839405Y-65987356D01*
X119832713Y-65987000D01*
X119432115Y-65987000D01*
X119416876Y-65991475D01*
X119415671Y-65992865D01*
X119414000Y-66000548D01*
X119414000Y-67147885D01*
X118906000Y-67147885D01*
X118906000Y-66005115D01*
X118901525Y-65989876D01*
X118900135Y-65988671D01*
X118892452Y-65987000D01*
X118503855Y-65987000D01*
X118498682Y-65987212D01*
X118331313Y-66000973D01*
X118321133Y-66002658D01*
X118102623Y-66057544D01*
X118092872Y-66060864D01*
X117886251Y-66150704D01*
X117877176Y-66155570D01*
X117688010Y-66277948D01*
X117679839Y-66284240D01*
X117513200Y-66435869D01*
X117506175Y-66443402D01*
X117366534Y-66620218D01*
X117360838Y-66628791D01*
X117251948Y-66826045D01*
X117247727Y-66835440D01*
X117172519Y-67047820D01*
X117169887Y-67057783D01*
X117153788Y-67148163D01*
X100508500Y-67148163D01*
X100508500Y-62450000D01*
X102256502Y-62450000D01*
X102276457Y-62678087D01*
X102277881Y-62683400D01*
X102277881Y-62683402D01*
X102308470Y-62797559D01*
X102335716Y-62899243D01*
X102338039Y-62904224D01*
X102338039Y-62904225D01*
X102430151Y-63101762D01*
X102430154Y-63101767D01*
X102432477Y-63106749D01*
X102435634Y-63111257D01*
X102548633Y-63272636D01*
X102563802Y-63294300D01*
X102725700Y-63456198D01*
X102730208Y-63459355D01*
X102730211Y-63459357D01*
X102732355Y-63460858D01*
X102913251Y-63587523D01*
X102918233Y-63589846D01*
X102918238Y-63589849D01*
X103096277Y-63672869D01*
X103120757Y-63684284D01*
X103126065Y-63685706D01*
X103126067Y-63685707D01*
X103336598Y-63742119D01*
X103336600Y-63742119D01*
X103341913Y-63743543D01*
X103570000Y-63763498D01*
X103798087Y-63743543D01*
X103803400Y-63742119D01*
X103803402Y-63742119D01*
X104013933Y-63685707D01*
X104013935Y-63685706D01*
X104019243Y-63684284D01*
X104043723Y-63672869D01*
X104221762Y-63589849D01*
X104221767Y-63589846D01*
X104226749Y-63587523D01*
X104407645Y-63460858D01*
X104409789Y-63459357D01*
X104409792Y-63459355D01*
X104414300Y-63456198D01*
X104576198Y-63294300D01*
X104591368Y-63272636D01*
X104704366Y-63111257D01*
X104707523Y-63106749D01*
X104709846Y-63101767D01*
X104709849Y-63101762D01*
X104801961Y-62904225D01*
X104801961Y-62904224D01*
X104804284Y-62899243D01*
X104831531Y-62797559D01*
X104862119Y-62683402D01*
X104862119Y-62683400D01*
X104863543Y-62678087D01*
X104883498Y-62450000D01*
X106256502Y-62450000D01*
X106276457Y-62678087D01*
X106277881Y-62683400D01*
X106277881Y-62683402D01*
X106308470Y-62797559D01*
X106335716Y-62899243D01*
X106338039Y-62904224D01*
X106338039Y-62904225D01*
X106430151Y-63101762D01*
X106430154Y-63101767D01*
X106432477Y-63106749D01*
X106435634Y-63111257D01*
X106548633Y-63272636D01*
X106563802Y-63294300D01*
X106725700Y-63456198D01*
X106730208Y-63459355D01*
X106730211Y-63459357D01*
X106732355Y-63460858D01*
X106913251Y-63587523D01*
X106918233Y-63589846D01*
X106918238Y-63589849D01*
X107096277Y-63672869D01*
X107120757Y-63684284D01*
X107126065Y-63685706D01*
X107126067Y-63685707D01*
X107336598Y-63742119D01*
X107336600Y-63742119D01*
X107341913Y-63743543D01*
X107570000Y-63763498D01*
X107798087Y-63743543D01*
X107803400Y-63742119D01*
X107803402Y-63742119D01*
X108013933Y-63685707D01*
X108013935Y-63685706D01*
X108019243Y-63684284D01*
X108043723Y-63672869D01*
X108221762Y-63589849D01*
X108221767Y-63589846D01*
X108226749Y-63587523D01*
X108407645Y-63460858D01*
X108409789Y-63459357D01*
X108409792Y-63459355D01*
X108414300Y-63456198D01*
X108576198Y-63294300D01*
X108591368Y-63272636D01*
X108704366Y-63111257D01*
X108707523Y-63106749D01*
X108709846Y-63101767D01*
X108709849Y-63101762D01*
X108801961Y-62904225D01*
X108801961Y-62904224D01*
X108804284Y-62899243D01*
X108831531Y-62797559D01*
X108862119Y-62683402D01*
X108862119Y-62683400D01*
X108863543Y-62678087D01*
X108883498Y-62450000D01*
X109876502Y-62450000D01*
X109896457Y-62678087D01*
X109897881Y-62683400D01*
X109897881Y-62683402D01*
X109928470Y-62797559D01*
X109955716Y-62899243D01*
X109958039Y-62904224D01*
X109958039Y-62904225D01*
X110050151Y-63101762D01*
X110050154Y-63101767D01*
X110052477Y-63106749D01*
X110055634Y-63111257D01*
X110168633Y-63272636D01*
X110183802Y-63294300D01*
X110345700Y-63456198D01*
X110350208Y-63459355D01*
X110350211Y-63459357D01*
X110352355Y-63460858D01*
X110533251Y-63587523D01*
X110538233Y-63589846D01*
X110538238Y-63589849D01*
X110716277Y-63672869D01*
X110740757Y-63684284D01*
X110746065Y-63685706D01*
X110746067Y-63685707D01*
X110956598Y-63742119D01*
X110956600Y-63742119D01*
X110961913Y-63743543D01*
X111190000Y-63763498D01*
X111418087Y-63743543D01*
X111423400Y-63742119D01*
X111423402Y-63742119D01*
X111633933Y-63685707D01*
X111633935Y-63685706D01*
X111639243Y-63684284D01*
X111663723Y-63672869D01*
X111841762Y-63589849D01*
X111841767Y-63589846D01*
X111846749Y-63587523D01*
X112027645Y-63460858D01*
X112029789Y-63459357D01*
X112029792Y-63459355D01*
X112034300Y-63456198D01*
X112196198Y-63294300D01*
X112211368Y-63272636D01*
X112324366Y-63111257D01*
X112327523Y-63106749D01*
X112329846Y-63101767D01*
X112329849Y-63101762D01*
X112421961Y-62904225D01*
X112421961Y-62904224D01*
X112424284Y-62899243D01*
X112451531Y-62797559D01*
X112482119Y-62683402D01*
X112482119Y-62683400D01*
X112483543Y-62678087D01*
X112497344Y-62520339D01*
X117126091Y-62520339D01*
X117161747Y-62753349D01*
X117234980Y-62977407D01*
X117343825Y-63186496D01*
X117346928Y-63190629D01*
X117346930Y-63190632D01*
X117479997Y-63367860D01*
X117485358Y-63375000D01*
X117655777Y-63537857D01*
X117850508Y-63670693D01*
X117855192Y-63672867D01*
X117855195Y-63672869D01*
X118059628Y-63767764D01*
X118059633Y-63767766D01*
X118064319Y-63769941D01*
X118291468Y-63832935D01*
X118296605Y-63833484D01*
X118480563Y-63853144D01*
X118480571Y-63853144D01*
X118483898Y-63853500D01*
X119818757Y-63853500D01*
X119821330Y-63853288D01*
X119821341Y-63853288D01*
X119988779Y-63839522D01*
X119988785Y-63839521D01*
X119993930Y-63839098D01*
X120222551Y-63781673D01*
X120438723Y-63687678D01*
X120636641Y-63559640D01*
X120660581Y-63537857D01*
X120807167Y-63404473D01*
X120807168Y-63404471D01*
X120810989Y-63400995D01*
X120814188Y-63396944D01*
X120814192Y-63396940D01*
X120953883Y-63220061D01*
X120953885Y-63220057D01*
X120957085Y-63216006D01*
X121071005Y-63009639D01*
X121077840Y-62990339D01*
X121147965Y-62792311D01*
X121147966Y-62792307D01*
X121149691Y-62787436D01*
X121150599Y-62782340D01*
X121190123Y-62560456D01*
X121190124Y-62560450D01*
X121191029Y-62555367D01*
X121191457Y-62520339D01*
X129626091Y-62520339D01*
X129661747Y-62753349D01*
X129734980Y-62977407D01*
X129843825Y-63186496D01*
X129846928Y-63190629D01*
X129846930Y-63190632D01*
X129979997Y-63367860D01*
X129985358Y-63375000D01*
X130155777Y-63537857D01*
X130350508Y-63670693D01*
X130355192Y-63672867D01*
X130355195Y-63672869D01*
X130559628Y-63767764D01*
X130559633Y-63767766D01*
X130564319Y-63769941D01*
X130791468Y-63832935D01*
X130796605Y-63833484D01*
X130980563Y-63853144D01*
X130980571Y-63853144D01*
X130983898Y-63853500D01*
X132318757Y-63853500D01*
X132321330Y-63853288D01*
X132321341Y-63853288D01*
X132488779Y-63839522D01*
X132488785Y-63839521D01*
X132493930Y-63839098D01*
X132722551Y-63781673D01*
X132938723Y-63687678D01*
X133136641Y-63559640D01*
X133160581Y-63537857D01*
X133307167Y-63404473D01*
X133307168Y-63404471D01*
X133310989Y-63400995D01*
X133314188Y-63396944D01*
X133314192Y-63396940D01*
X133453883Y-63220061D01*
X133453885Y-63220057D01*
X133457085Y-63216006D01*
X133571005Y-63009639D01*
X133577840Y-62990339D01*
X133647965Y-62792311D01*
X133647966Y-62792307D01*
X133649691Y-62787436D01*
X133650599Y-62782340D01*
X133690123Y-62560456D01*
X133690124Y-62560450D01*
X133691029Y-62555367D01*
X133691457Y-62520339D01*
X139386091Y-62520339D01*
X139421747Y-62753349D01*
X139494980Y-62977407D01*
X139603825Y-63186496D01*
X139606928Y-63190629D01*
X139606930Y-63190632D01*
X139739997Y-63367860D01*
X139745358Y-63375000D01*
X139915777Y-63537857D01*
X140110508Y-63670693D01*
X140115192Y-63672867D01*
X140115195Y-63672869D01*
X140319628Y-63767764D01*
X140319633Y-63767766D01*
X140324319Y-63769941D01*
X140551468Y-63832935D01*
X140556605Y-63833484D01*
X140740563Y-63853144D01*
X140740571Y-63853144D01*
X140743898Y-63853500D01*
X142078757Y-63853500D01*
X142081330Y-63853288D01*
X142081341Y-63853288D01*
X142248779Y-63839522D01*
X142248785Y-63839521D01*
X142253930Y-63839098D01*
X142482551Y-63781673D01*
X142698723Y-63687678D01*
X142896641Y-63559640D01*
X142920581Y-63537857D01*
X143067167Y-63404473D01*
X143067168Y-63404471D01*
X143070989Y-63400995D01*
X143074188Y-63396944D01*
X143074192Y-63396940D01*
X143213883Y-63220061D01*
X143213885Y-63220057D01*
X143217085Y-63216006D01*
X143331005Y-63009639D01*
X143337840Y-62990339D01*
X143407965Y-62792311D01*
X143407966Y-62792307D01*
X143409691Y-62787436D01*
X143410599Y-62782340D01*
X143450123Y-62560456D01*
X143450124Y-62560450D01*
X143451029Y-62555367D01*
X143453909Y-62319661D01*
X143418253Y-62086651D01*
X143345020Y-61862593D01*
X143236175Y-61653504D01*
X143227603Y-61642086D01*
X143097747Y-61469135D01*
X143097745Y-61469132D01*
X143094642Y-61465000D01*
X143021022Y-61394647D01*
X142927960Y-61305714D01*
X142927959Y-61305713D01*
X142924223Y-61302143D01*
X142729492Y-61169307D01*
X142724808Y-61167133D01*
X142724805Y-61167131D01*
X142520372Y-61072236D01*
X142520367Y-61072234D01*
X142515681Y-61070059D01*
X142288532Y-61007065D01*
X142283395Y-61006516D01*
X142099437Y-60986856D01*
X142099429Y-60986856D01*
X142096102Y-60986500D01*
X140761243Y-60986500D01*
X140758670Y-60986712D01*
X140758659Y-60986712D01*
X140591221Y-61000478D01*
X140591215Y-61000479D01*
X140586070Y-61000902D01*
X140357449Y-61058327D01*
X140141277Y-61152322D01*
X139943359Y-61280360D01*
X139939536Y-61283839D01*
X139939533Y-61283841D01*
X139772833Y-61435527D01*
X139769011Y-61439005D01*
X139765812Y-61443056D01*
X139765808Y-61443060D01*
X139633800Y-61610211D01*
X139622915Y-61623994D01*
X139508995Y-61830361D01*
X139507271Y-61835230D01*
X139507269Y-61835234D01*
X139446774Y-62006067D01*
X139430309Y-62052564D01*
X139429402Y-62057657D01*
X139429401Y-62057660D01*
X139410670Y-62162818D01*
X139388971Y-62284633D01*
X139388543Y-62319661D01*
X139386884Y-62455475D01*
X139386091Y-62520339D01*
X133691457Y-62520339D01*
X133693909Y-62319661D01*
X133658253Y-62086651D01*
X133585020Y-61862593D01*
X133476175Y-61653504D01*
X133467603Y-61642086D01*
X133337747Y-61469135D01*
X133337745Y-61469132D01*
X133334642Y-61465000D01*
X133261022Y-61394647D01*
X133167960Y-61305714D01*
X133167959Y-61305713D01*
X133164223Y-61302143D01*
X132969492Y-61169307D01*
X132964808Y-61167133D01*
X132964805Y-61167131D01*
X132760372Y-61072236D01*
X132760367Y-61072234D01*
X132755681Y-61070059D01*
X132528532Y-61007065D01*
X132523395Y-61006516D01*
X132339437Y-60986856D01*
X132339429Y-60986856D01*
X132336102Y-60986500D01*
X131001243Y-60986500D01*
X130998670Y-60986712D01*
X130998659Y-60986712D01*
X130831221Y-61000478D01*
X130831215Y-61000479D01*
X130826070Y-61000902D01*
X130597449Y-61058327D01*
X130381277Y-61152322D01*
X130183359Y-61280360D01*
X130179536Y-61283839D01*
X130179533Y-61283841D01*
X130012833Y-61435527D01*
X130009011Y-61439005D01*
X130005812Y-61443056D01*
X130005808Y-61443060D01*
X129873800Y-61610211D01*
X129862915Y-61623994D01*
X129748995Y-61830361D01*
X129747271Y-61835230D01*
X129747269Y-61835234D01*
X129686774Y-62006067D01*
X129670309Y-62052564D01*
X129669402Y-62057657D01*
X129669401Y-62057660D01*
X129650670Y-62162818D01*
X129628971Y-62284633D01*
X129628543Y-62319661D01*
X129626884Y-62455475D01*
X129626091Y-62520339D01*
X121191457Y-62520339D01*
X121193909Y-62319661D01*
X121158253Y-62086651D01*
X121085020Y-61862593D01*
X120976175Y-61653504D01*
X120967603Y-61642086D01*
X120837747Y-61469135D01*
X120837745Y-61469132D01*
X120834642Y-61465000D01*
X120761022Y-61394647D01*
X120667960Y-61305714D01*
X120667959Y-61305713D01*
X120664223Y-61302143D01*
X120469492Y-61169307D01*
X120464808Y-61167133D01*
X120464805Y-61167131D01*
X120260372Y-61072236D01*
X120260367Y-61072234D01*
X120255681Y-61070059D01*
X120028532Y-61007065D01*
X120023395Y-61006516D01*
X119839437Y-60986856D01*
X119839429Y-60986856D01*
X119836102Y-60986500D01*
X118501243Y-60986500D01*
X118498670Y-60986712D01*
X118498659Y-60986712D01*
X118331221Y-61000478D01*
X118331215Y-61000479D01*
X118326070Y-61000902D01*
X118097449Y-61058327D01*
X117881277Y-61152322D01*
X117683359Y-61280360D01*
X117679536Y-61283839D01*
X117679533Y-61283841D01*
X117512833Y-61435527D01*
X117509011Y-61439005D01*
X117505812Y-61443056D01*
X117505808Y-61443060D01*
X117373800Y-61610211D01*
X117362915Y-61623994D01*
X117248995Y-61830361D01*
X117247271Y-61835230D01*
X117247269Y-61835234D01*
X117186774Y-62006067D01*
X117170309Y-62052564D01*
X117169402Y-62057657D01*
X117169401Y-62057660D01*
X117150670Y-62162818D01*
X117128971Y-62284633D01*
X117128543Y-62319661D01*
X117126884Y-62455475D01*
X117126091Y-62520339D01*
X112497344Y-62520339D01*
X112503498Y-62450000D01*
X112483543Y-62221913D01*
X112482119Y-62216598D01*
X112425707Y-62006067D01*
X112425706Y-62006065D01*
X112424284Y-62000757D01*
X112403877Y-61956994D01*
X112329849Y-61798238D01*
X112329846Y-61798233D01*
X112327523Y-61793251D01*
X112254098Y-61688389D01*
X112199357Y-61610211D01*
X112199355Y-61610208D01*
X112196198Y-61605700D01*
X112034300Y-61443802D01*
X112029792Y-61440645D01*
X112029789Y-61440643D01*
X111951611Y-61385902D01*
X111846749Y-61312477D01*
X111841767Y-61310154D01*
X111841762Y-61310151D01*
X111644225Y-61218039D01*
X111644224Y-61218039D01*
X111639243Y-61215716D01*
X111633935Y-61214294D01*
X111633933Y-61214293D01*
X111423402Y-61157881D01*
X111423400Y-61157881D01*
X111418087Y-61156457D01*
X111190000Y-61136502D01*
X110961913Y-61156457D01*
X110956600Y-61157881D01*
X110956598Y-61157881D01*
X110746067Y-61214293D01*
X110746065Y-61214294D01*
X110740757Y-61215716D01*
X110735776Y-61218039D01*
X110735775Y-61218039D01*
X110538238Y-61310151D01*
X110538233Y-61310154D01*
X110533251Y-61312477D01*
X110428389Y-61385902D01*
X110350211Y-61440643D01*
X110350208Y-61440645D01*
X110345700Y-61443802D01*
X110183802Y-61605700D01*
X110180645Y-61610208D01*
X110180643Y-61610211D01*
X110125902Y-61688389D01*
X110052477Y-61793251D01*
X110050154Y-61798233D01*
X110050151Y-61798238D01*
X109976123Y-61956994D01*
X109955716Y-62000757D01*
X109954294Y-62006065D01*
X109954293Y-62006067D01*
X109897881Y-62216598D01*
X109896457Y-62221913D01*
X109876502Y-62450000D01*
X108883498Y-62450000D01*
X108863543Y-62221913D01*
X108862119Y-62216598D01*
X108805707Y-62006067D01*
X108805706Y-62006065D01*
X108804284Y-62000757D01*
X108783877Y-61956994D01*
X108709849Y-61798238D01*
X108709846Y-61798233D01*
X108707523Y-61793251D01*
X108634098Y-61688389D01*
X108579357Y-61610211D01*
X108579355Y-61610208D01*
X108576198Y-61605700D01*
X108414300Y-61443802D01*
X108409792Y-61440645D01*
X108409789Y-61440643D01*
X108331611Y-61385902D01*
X108226749Y-61312477D01*
X108221767Y-61310154D01*
X108221762Y-61310151D01*
X108024225Y-61218039D01*
X108024224Y-61218039D01*
X108019243Y-61215716D01*
X108013935Y-61214294D01*
X108013933Y-61214293D01*
X107803402Y-61157881D01*
X107803400Y-61157881D01*
X107798087Y-61156457D01*
X107570000Y-61136502D01*
X107341913Y-61156457D01*
X107336600Y-61157881D01*
X107336598Y-61157881D01*
X107126067Y-61214293D01*
X107126065Y-61214294D01*
X107120757Y-61215716D01*
X107115776Y-61218039D01*
X107115775Y-61218039D01*
X106918238Y-61310151D01*
X106918233Y-61310154D01*
X106913251Y-61312477D01*
X106808389Y-61385902D01*
X106730211Y-61440643D01*
X106730208Y-61440645D01*
X106725700Y-61443802D01*
X106563802Y-61605700D01*
X106560645Y-61610208D01*
X106560643Y-61610211D01*
X106505902Y-61688389D01*
X106432477Y-61793251D01*
X106430154Y-61798233D01*
X106430151Y-61798238D01*
X106356123Y-61956994D01*
X106335716Y-62000757D01*
X106334294Y-62006065D01*
X106334293Y-62006067D01*
X106277881Y-62216598D01*
X106276457Y-62221913D01*
X106256502Y-62450000D01*
X104883498Y-62450000D01*
X104863543Y-62221913D01*
X104862119Y-62216598D01*
X104805707Y-62006067D01*
X104805706Y-62006065D01*
X104804284Y-62000757D01*
X104783877Y-61956994D01*
X104709849Y-61798238D01*
X104709846Y-61798233D01*
X104707523Y-61793251D01*
X104634098Y-61688389D01*
X104579357Y-61610211D01*
X104579355Y-61610208D01*
X104576198Y-61605700D01*
X104414300Y-61443802D01*
X104409792Y-61440645D01*
X104409789Y-61440643D01*
X104331611Y-61385902D01*
X104226749Y-61312477D01*
X104221767Y-61310154D01*
X104221762Y-61310151D01*
X104024225Y-61218039D01*
X104024224Y-61218039D01*
X104019243Y-61215716D01*
X104013935Y-61214294D01*
X104013933Y-61214293D01*
X103803402Y-61157881D01*
X103803400Y-61157881D01*
X103798087Y-61156457D01*
X103570000Y-61136502D01*
X103341913Y-61156457D01*
X103336600Y-61157881D01*
X103336598Y-61157881D01*
X103126067Y-61214293D01*
X103126065Y-61214294D01*
X103120757Y-61215716D01*
X103115776Y-61218039D01*
X103115775Y-61218039D01*
X102918238Y-61310151D01*
X102918233Y-61310154D01*
X102913251Y-61312477D01*
X102808389Y-61385902D01*
X102730211Y-61440643D01*
X102730208Y-61440645D01*
X102725700Y-61443802D01*
X102563802Y-61605700D01*
X102560645Y-61610208D01*
X102560643Y-61610211D01*
X102505902Y-61688389D01*
X102432477Y-61793251D01*
X102430154Y-61798233D01*
X102430151Y-61798238D01*
X102356123Y-61956994D01*
X102335716Y-62000757D01*
X102334294Y-62006065D01*
X102334293Y-62006067D01*
X102277881Y-62216598D01*
X102276457Y-62221913D01*
X102256502Y-62450000D01*
X100508500Y-62450000D01*
X100508500Y-54830000D01*
X102256502Y-54830000D01*
X102276457Y-55058087D01*
X102335716Y-55279243D01*
X102338039Y-55284224D01*
X102338039Y-55284225D01*
X102430151Y-55481762D01*
X102430154Y-55481767D01*
X102432477Y-55486749D01*
X102563802Y-55674300D01*
X102725700Y-55836198D01*
X102730208Y-55839355D01*
X102730211Y-55839357D01*
X102808389Y-55894098D01*
X102913251Y-55967523D01*
X102918233Y-55969846D01*
X102918238Y-55969849D01*
X103115775Y-56061961D01*
X103120757Y-56064284D01*
X103126065Y-56065706D01*
X103126067Y-56065707D01*
X103336598Y-56122119D01*
X103336600Y-56122119D01*
X103341913Y-56123543D01*
X103570000Y-56143498D01*
X103798087Y-56123543D01*
X103803400Y-56122119D01*
X103803402Y-56122119D01*
X104013933Y-56065707D01*
X104013935Y-56065706D01*
X104019243Y-56064284D01*
X104024225Y-56061961D01*
X104221762Y-55969849D01*
X104221767Y-55969846D01*
X104226749Y-55967523D01*
X104331611Y-55894098D01*
X104409789Y-55839357D01*
X104409792Y-55839355D01*
X104414300Y-55836198D01*
X104576198Y-55674300D01*
X104707523Y-55486749D01*
X104709846Y-55481767D01*
X104709849Y-55481762D01*
X104801961Y-55284225D01*
X104801961Y-55284224D01*
X104804284Y-55279243D01*
X104863543Y-55058087D01*
X104883498Y-54830000D01*
X106256502Y-54830000D01*
X106276457Y-55058087D01*
X106335716Y-55279243D01*
X106338039Y-55284224D01*
X106338039Y-55284225D01*
X106430151Y-55481762D01*
X106430154Y-55481767D01*
X106432477Y-55486749D01*
X106563802Y-55674300D01*
X106725700Y-55836198D01*
X106730208Y-55839355D01*
X106730211Y-55839357D01*
X106808389Y-55894098D01*
X106913251Y-55967523D01*
X106918233Y-55969846D01*
X106918238Y-55969849D01*
X107115775Y-56061961D01*
X107120757Y-56064284D01*
X107126065Y-56065706D01*
X107126067Y-56065707D01*
X107336598Y-56122119D01*
X107336600Y-56122119D01*
X107341913Y-56123543D01*
X107570000Y-56143498D01*
X107798087Y-56123543D01*
X107803400Y-56122119D01*
X107803402Y-56122119D01*
X108013933Y-56065707D01*
X108013935Y-56065706D01*
X108019243Y-56064284D01*
X108024225Y-56061961D01*
X108221762Y-55969849D01*
X108221767Y-55969846D01*
X108226749Y-55967523D01*
X108331611Y-55894098D01*
X108409789Y-55839357D01*
X108409792Y-55839355D01*
X108414300Y-55836198D01*
X108576198Y-55674300D01*
X108707523Y-55486749D01*
X108709846Y-55481767D01*
X108709849Y-55481762D01*
X108801961Y-55284225D01*
X108801961Y-55284224D01*
X108804284Y-55279243D01*
X108863543Y-55058087D01*
X108883498Y-54830000D01*
X109876502Y-54830000D01*
X109896457Y-55058087D01*
X109955716Y-55279243D01*
X109958039Y-55284224D01*
X109958039Y-55284225D01*
X110050151Y-55481762D01*
X110050154Y-55481767D01*
X110052477Y-55486749D01*
X110183802Y-55674300D01*
X110345700Y-55836198D01*
X110350208Y-55839355D01*
X110350211Y-55839357D01*
X110428389Y-55894098D01*
X110533251Y-55967523D01*
X110538233Y-55969846D01*
X110538238Y-55969849D01*
X110735775Y-56061961D01*
X110740757Y-56064284D01*
X110746065Y-56065706D01*
X110746067Y-56065707D01*
X110956598Y-56122119D01*
X110956600Y-56122119D01*
X110961913Y-56123543D01*
X111190000Y-56143498D01*
X111418087Y-56123543D01*
X111423400Y-56122119D01*
X111423402Y-56122119D01*
X111633933Y-56065707D01*
X111633935Y-56065706D01*
X111639243Y-56064284D01*
X111644225Y-56061961D01*
X111841762Y-55969849D01*
X111841767Y-55969846D01*
X111846749Y-55967523D01*
X111951611Y-55894098D01*
X112029789Y-55839357D01*
X112029792Y-55839355D01*
X112034300Y-55836198D01*
X112196198Y-55674300D01*
X112327523Y-55486749D01*
X112329846Y-55481767D01*
X112329849Y-55481762D01*
X112421961Y-55284225D01*
X112421961Y-55284224D01*
X112424284Y-55279243D01*
X112483543Y-55058087D01*
X112503498Y-54830000D01*
X112483543Y-54601913D01*
X112424284Y-54380757D01*
X112421961Y-54375775D01*
X112329849Y-54178238D01*
X112329846Y-54178233D01*
X112327523Y-54173251D01*
X112196198Y-53985700D01*
X112034300Y-53823802D01*
X112029792Y-53820645D01*
X112029789Y-53820643D01*
X111951611Y-53765902D01*
X111846749Y-53692477D01*
X111841767Y-53690154D01*
X111841762Y-53690151D01*
X111644225Y-53598039D01*
X111644224Y-53598039D01*
X111639243Y-53595716D01*
X111633935Y-53594294D01*
X111633933Y-53594293D01*
X111423402Y-53537881D01*
X111423400Y-53537881D01*
X111418087Y-53536457D01*
X111190000Y-53516502D01*
X110961913Y-53536457D01*
X110956600Y-53537881D01*
X110956598Y-53537881D01*
X110746067Y-53594293D01*
X110746065Y-53594294D01*
X110740757Y-53595716D01*
X110735776Y-53598039D01*
X110735775Y-53598039D01*
X110538238Y-53690151D01*
X110538233Y-53690154D01*
X110533251Y-53692477D01*
X110428389Y-53765902D01*
X110350211Y-53820643D01*
X110350208Y-53820645D01*
X110345700Y-53823802D01*
X110183802Y-53985700D01*
X110052477Y-54173251D01*
X110050154Y-54178233D01*
X110050151Y-54178238D01*
X109958039Y-54375775D01*
X109955716Y-54380757D01*
X109896457Y-54601913D01*
X109876502Y-54830000D01*
X108883498Y-54830000D01*
X108863543Y-54601913D01*
X108804284Y-54380757D01*
X108801961Y-54375775D01*
X108709849Y-54178238D01*
X108709846Y-54178233D01*
X108707523Y-54173251D01*
X108576198Y-53985700D01*
X108414300Y-53823802D01*
X108409792Y-53820645D01*
X108409789Y-53820643D01*
X108331611Y-53765902D01*
X108226749Y-53692477D01*
X108221767Y-53690154D01*
X108221762Y-53690151D01*
X108024225Y-53598039D01*
X108024224Y-53598039D01*
X108019243Y-53595716D01*
X108013935Y-53594294D01*
X108013933Y-53594293D01*
X107803402Y-53537881D01*
X107803400Y-53537881D01*
X107798087Y-53536457D01*
X107570000Y-53516502D01*
X107341913Y-53536457D01*
X107336600Y-53537881D01*
X107336598Y-53537881D01*
X107126067Y-53594293D01*
X107126065Y-53594294D01*
X107120757Y-53595716D01*
X107115776Y-53598039D01*
X107115775Y-53598039D01*
X106918238Y-53690151D01*
X106918233Y-53690154D01*
X106913251Y-53692477D01*
X106808389Y-53765902D01*
X106730211Y-53820643D01*
X106730208Y-53820645D01*
X106725700Y-53823802D01*
X106563802Y-53985700D01*
X106432477Y-54173251D01*
X106430154Y-54178233D01*
X106430151Y-54178238D01*
X106338039Y-54375775D01*
X106335716Y-54380757D01*
X106276457Y-54601913D01*
X106256502Y-54830000D01*
X104883498Y-54830000D01*
X104863543Y-54601913D01*
X104804284Y-54380757D01*
X104801961Y-54375775D01*
X104709849Y-54178238D01*
X104709846Y-54178233D01*
X104707523Y-54173251D01*
X104576198Y-53985700D01*
X104414300Y-53823802D01*
X104409792Y-53820645D01*
X104409789Y-53820643D01*
X104331611Y-53765902D01*
X104226749Y-53692477D01*
X104221767Y-53690154D01*
X104221762Y-53690151D01*
X104024225Y-53598039D01*
X104024224Y-53598039D01*
X104019243Y-53595716D01*
X104013935Y-53594294D01*
X104013933Y-53594293D01*
X103803402Y-53537881D01*
X103803400Y-53537881D01*
X103798087Y-53536457D01*
X103570000Y-53516502D01*
X103341913Y-53536457D01*
X103336600Y-53537881D01*
X103336598Y-53537881D01*
X103126067Y-53594293D01*
X103126065Y-53594294D01*
X103120757Y-53595716D01*
X103115776Y-53598039D01*
X103115775Y-53598039D01*
X102918238Y-53690151D01*
X102918233Y-53690154D01*
X102913251Y-53692477D01*
X102808389Y-53765902D01*
X102730211Y-53820643D01*
X102730208Y-53820645D01*
X102725700Y-53823802D01*
X102563802Y-53985700D01*
X102432477Y-54173251D01*
X102430154Y-54178233D01*
X102430151Y-54178238D01*
X102338039Y-54375775D01*
X102335716Y-54380757D01*
X102276457Y-54601913D01*
X102256502Y-54830000D01*
X100508500Y-54830000D01*
X100508500Y-51228134D01*
X104067400Y-51228134D01*
X104074155Y-51290316D01*
X104125285Y-51426705D01*
X104212639Y-51543261D01*
X104329195Y-51630615D01*
X104465584Y-51681745D01*
X104527766Y-51688500D01*
X105694034Y-51688500D01*
X105756216Y-51681745D01*
X105869142Y-51639411D01*
X105884203Y-51633765D01*
X105884204Y-51633764D01*
X105892605Y-51630615D01*
X105897745Y-51626763D01*
X105965848Y-51611867D01*
X105994260Y-51617191D01*
X106109592Y-51652892D01*
X106123695Y-51653098D01*
X106126900Y-51646343D01*
X106126900Y-51368495D01*
X106134918Y-51324265D01*
X106144871Y-51297715D01*
X106147645Y-51290316D01*
X106154400Y-51228134D01*
X106154400Y-50696495D01*
X106607400Y-50696495D01*
X106622320Y-50848664D01*
X106624102Y-50854566D01*
X106629522Y-50872518D01*
X106634900Y-50908936D01*
X106634900Y-51639411D01*
X106638873Y-51652942D01*
X106646668Y-51654062D01*
X106767586Y-51618474D01*
X106778970Y-51613875D01*
X106954772Y-51521968D01*
X106955616Y-51523583D01*
X107015360Y-51505497D01*
X107076339Y-51520657D01*
X107244571Y-51611619D01*
X107440060Y-51672133D01*
X107446182Y-51672776D01*
X107446185Y-51672777D01*
X107637451Y-51692879D01*
X107637453Y-51692879D01*
X107643580Y-51693523D01*
X107728966Y-51685752D01*
X107841239Y-51675535D01*
X107841242Y-51675534D01*
X107847378Y-51674976D01*
X107853284Y-51673238D01*
X107853288Y-51673237D01*
X107968219Y-51639411D01*
X108043693Y-51617198D01*
X108049151Y-51614345D01*
X108049155Y-51614343D01*
X108225047Y-51522388D01*
X108225855Y-51523934D01*
X108285860Y-51505769D01*
X108346843Y-51520929D01*
X108351752Y-51523583D01*
X108514571Y-51611619D01*
X108710060Y-51672133D01*
X108716182Y-51672776D01*
X108716185Y-51672777D01*
X108907451Y-51692879D01*
X108907453Y-51692879D01*
X108913580Y-51693523D01*
X108998966Y-51685752D01*
X109111239Y-51675535D01*
X109111242Y-51675534D01*
X109117378Y-51674976D01*
X109123284Y-51673238D01*
X109123288Y-51673237D01*
X109238219Y-51639411D01*
X109313693Y-51617198D01*
X109319151Y-51614345D01*
X109319155Y-51614343D01*
X109444828Y-51548642D01*
X109495047Y-51522388D01*
X109516056Y-51505497D01*
X109649724Y-51398025D01*
X109654531Y-51394160D01*
X109786072Y-51237396D01*
X109884658Y-51058067D01*
X109899997Y-51009715D01*
X109931966Y-50908936D01*
X109946536Y-50863006D01*
X109964400Y-50703744D01*
X109964400Y-49863505D01*
X109949480Y-49711336D01*
X109890332Y-49515429D01*
X109794259Y-49334742D01*
X109790369Y-49329972D01*
X109790366Y-49329968D01*
X109668815Y-49180932D01*
X109668812Y-49180929D01*
X109664920Y-49176157D01*
X109653483Y-49166695D01*
X109556250Y-49086257D01*
X109507241Y-49045713D01*
X109327229Y-48948381D01*
X109131740Y-48887867D01*
X109125618Y-48887224D01*
X109125615Y-48887223D01*
X108934349Y-48867121D01*
X108934347Y-48867121D01*
X108928220Y-48866477D01*
X108868972Y-48871869D01*
X108730561Y-48884465D01*
X108730558Y-48884466D01*
X108724422Y-48885024D01*
X108718516Y-48886762D01*
X108718512Y-48886763D01*
X108627134Y-48913657D01*
X108528107Y-48942802D01*
X108522649Y-48945655D01*
X108522645Y-48945657D01*
X108346753Y-49037612D01*
X108345945Y-49036066D01*
X108285940Y-49054231D01*
X108224957Y-49039071D01*
X108183655Y-49016739D01*
X108057229Y-48948381D01*
X107861740Y-48887867D01*
X107855618Y-48887224D01*
X107855615Y-48887223D01*
X107664349Y-48867121D01*
X107664347Y-48867121D01*
X107658220Y-48866477D01*
X107598972Y-48871869D01*
X107460561Y-48884465D01*
X107460558Y-48884466D01*
X107454422Y-48885024D01*
X107448516Y-48886762D01*
X107448512Y-48886763D01*
X107357134Y-48913657D01*
X107258107Y-48942802D01*
X107252649Y-48945655D01*
X107252645Y-48945657D01*
X107076753Y-49037612D01*
X107076020Y-49036211D01*
X107015458Y-49054543D01*
X106954480Y-49039382D01*
X106792460Y-48951777D01*
X106781145Y-48947021D01*
X106652208Y-48907108D01*
X106638105Y-48906902D01*
X106634900Y-48913657D01*
X106634900Y-49647112D01*
X106629001Y-49685213D01*
X106627126Y-49691122D01*
X106627125Y-49691129D01*
X106625264Y-49696994D01*
X106607400Y-49856256D01*
X106607400Y-50696495D01*
X106154400Y-50696495D01*
X106154400Y-49331866D01*
X106147645Y-49269684D01*
X106134918Y-49235735D01*
X106126900Y-49191505D01*
X106126900Y-48920589D01*
X106122927Y-48907058D01*
X106115133Y-48905938D01*
X105991022Y-48942466D01*
X105920025Y-48942512D01*
X105897862Y-48933325D01*
X105892605Y-48929385D01*
X105756216Y-48878255D01*
X105694034Y-48871500D01*
X104527766Y-48871500D01*
X104465584Y-48878255D01*
X104329195Y-48929385D01*
X104212639Y-49016739D01*
X104125285Y-49133295D01*
X104074155Y-49269684D01*
X104067400Y-49331866D01*
X104067400Y-51228134D01*
X100508500Y-51228134D01*
X100508500Y-47475250D01*
X100510246Y-47454345D01*
X100512770Y-47439344D01*
X100512770Y-47439341D01*
X100513576Y-47434552D01*
X100513729Y-47422000D01*
X100513039Y-47417179D01*
X100512852Y-47414318D01*
X100514137Y-47386411D01*
X100517786Y-47363374D01*
X100529967Y-47325884D01*
X100547855Y-47290776D01*
X100571027Y-47258883D01*
X100598883Y-47231027D01*
X100630775Y-47207855D01*
X100665884Y-47189966D01*
X100703373Y-47177786D01*
X100728026Y-47173881D01*
X100747750Y-47172449D01*
X100755724Y-47173691D01*
X100787286Y-47169564D01*
X100803621Y-47168500D01*
X114065143Y-47168500D01*
X114133264Y-47188502D01*
G37*
%TD.AperFunction*%
%TA.AperFunction,Conductor*%
G36*
X152152026Y-49875144D02*
G01*
X152179875Y-49906994D01*
X152239987Y-50005088D01*
X152386250Y-50173938D01*
X152558126Y-50316632D01*
X152751000Y-50429338D01*
X152755825Y-50431180D01*
X152755826Y-50431181D01*
X152828612Y-50458975D01*
X152959692Y-50509030D01*
X152964760Y-50510061D01*
X152964763Y-50510062D01*
X153059862Y-50529410D01*
X153178597Y-50553567D01*
X153183772Y-50553757D01*
X153183774Y-50553757D01*
X153396673Y-50561564D01*
X153396677Y-50561564D01*
X153401837Y-50561753D01*
X153406957Y-50561097D01*
X153406959Y-50561097D01*
X153479961Y-50551745D01*
X153623416Y-50533368D01*
X153628370Y-50531882D01*
X153628378Y-50531880D01*
X153697023Y-50511285D01*
X153768018Y-50510867D01*
X153822326Y-50542875D01*
X155234595Y-51955144D01*
X155268621Y-52017456D01*
X155271500Y-52044239D01*
X155271500Y-60991407D01*
X155251498Y-61059528D01*
X155197842Y-61106021D01*
X155127568Y-61116125D01*
X155092451Y-61105695D01*
X155015681Y-61070059D01*
X154788532Y-61007065D01*
X154783395Y-61006516D01*
X154599437Y-60986856D01*
X154599429Y-60986856D01*
X154596102Y-60986500D01*
X153261243Y-60986500D01*
X153258670Y-60986712D01*
X153258659Y-60986712D01*
X153091221Y-61000478D01*
X153091215Y-61000479D01*
X153086070Y-61000902D01*
X152857449Y-61058327D01*
X152641277Y-61152322D01*
X152443359Y-61280360D01*
X152439536Y-61283839D01*
X152439533Y-61283841D01*
X152272833Y-61435527D01*
X152269011Y-61439005D01*
X152265812Y-61443056D01*
X152265808Y-61443060D01*
X152133800Y-61610211D01*
X152122915Y-61623994D01*
X152008995Y-61830361D01*
X152007271Y-61835230D01*
X152007269Y-61835234D01*
X151946774Y-62006067D01*
X151930309Y-62052564D01*
X151929402Y-62057657D01*
X151929401Y-62057660D01*
X151910670Y-62162818D01*
X151888971Y-62284633D01*
X151888543Y-62319661D01*
X151886884Y-62455475D01*
X151886091Y-62520339D01*
X151921747Y-62753349D01*
X151994980Y-62977407D01*
X152103825Y-63186496D01*
X152106928Y-63190629D01*
X152106930Y-63190632D01*
X152239997Y-63367860D01*
X152245358Y-63375000D01*
X152415777Y-63537857D01*
X152610508Y-63670693D01*
X152615192Y-63672867D01*
X152615195Y-63672869D01*
X152819628Y-63767764D01*
X152819633Y-63767766D01*
X152824319Y-63769941D01*
X153051468Y-63832935D01*
X153056605Y-63833484D01*
X153240563Y-63853144D01*
X153240571Y-63853144D01*
X153243898Y-63853500D01*
X154578757Y-63853500D01*
X154581330Y-63853288D01*
X154581341Y-63853288D01*
X154748779Y-63839522D01*
X154748785Y-63839521D01*
X154753930Y-63839098D01*
X154982551Y-63781673D01*
X155095259Y-63732666D01*
X155165704Y-63723846D01*
X155229736Y-63754513D01*
X155267024Y-63814929D01*
X155271500Y-63848216D01*
X155271500Y-65991958D01*
X155251498Y-66060079D01*
X155197842Y-66106572D01*
X155127568Y-66116676D01*
X155092449Y-66106245D01*
X155020203Y-66072709D01*
X155010525Y-66069149D01*
X154793420Y-66008940D01*
X154783301Y-66007009D01*
X154599405Y-65987356D01*
X154592713Y-65987000D01*
X154192115Y-65987000D01*
X154176876Y-65991475D01*
X154175671Y-65992865D01*
X154174000Y-66000548D01*
X154174000Y-68834885D01*
X154178475Y-68850124D01*
X154179865Y-68851329D01*
X154187548Y-68853000D01*
X154576145Y-68853000D01*
X154581318Y-68852788D01*
X154748687Y-68839027D01*
X154758867Y-68837342D01*
X154977377Y-68782456D01*
X154987128Y-68779136D01*
X155095258Y-68732121D01*
X155165705Y-68723302D01*
X155229737Y-68753968D01*
X155267024Y-68814385D01*
X155271500Y-68847671D01*
X155271500Y-78291407D01*
X155251498Y-78359528D01*
X155197842Y-78406021D01*
X155127568Y-78416125D01*
X155092451Y-78405695D01*
X155015681Y-78370059D01*
X154788532Y-78307065D01*
X154783395Y-78306516D01*
X154599437Y-78286856D01*
X154599429Y-78286856D01*
X154596102Y-78286500D01*
X153261243Y-78286500D01*
X153258670Y-78286712D01*
X153258659Y-78286712D01*
X153091221Y-78300478D01*
X153091215Y-78300479D01*
X153086070Y-78300902D01*
X152857449Y-78358327D01*
X152641277Y-78452322D01*
X152443359Y-78580360D01*
X152439536Y-78583839D01*
X152439533Y-78583841D01*
X152272833Y-78735527D01*
X152269011Y-78739005D01*
X152265812Y-78743056D01*
X152265808Y-78743060D01*
X152126117Y-78919939D01*
X152122915Y-78923994D01*
X152008995Y-79130361D01*
X152007271Y-79135230D01*
X152007269Y-79135234D01*
X151932035Y-79347689D01*
X151930309Y-79352564D01*
X151929402Y-79357657D01*
X151929401Y-79357660D01*
X151908310Y-79476067D01*
X151888971Y-79584633D01*
X151886091Y-79820339D01*
X151921747Y-80053349D01*
X151994980Y-80277407D01*
X152103825Y-80486496D01*
X152106928Y-80490629D01*
X152106930Y-80490632D01*
X152242253Y-80670865D01*
X152245358Y-80675000D01*
X152249096Y-80678572D01*
X152338805Y-80764300D01*
X152415777Y-80837857D01*
X152610508Y-80970693D01*
X152615192Y-80972867D01*
X152615195Y-80972869D01*
X152819628Y-81067764D01*
X152819633Y-81067766D01*
X152824319Y-81069941D01*
X153051468Y-81132935D01*
X153056605Y-81133484D01*
X153240563Y-81153144D01*
X153240571Y-81153144D01*
X153243898Y-81153500D01*
X154578757Y-81153500D01*
X154581330Y-81153288D01*
X154581341Y-81153288D01*
X154748779Y-81139522D01*
X154748785Y-81139521D01*
X154753930Y-81139098D01*
X154982551Y-81081673D01*
X155198723Y-80987678D01*
X155396641Y-80859640D01*
X155420581Y-80837857D01*
X155567167Y-80704473D01*
X155567168Y-80704471D01*
X155570989Y-80700995D01*
X155574188Y-80696944D01*
X155574192Y-80696940D01*
X155713883Y-80520061D01*
X155713885Y-80520057D01*
X155717085Y-80516006D01*
X155831005Y-80309639D01*
X155840794Y-80281998D01*
X155907965Y-80092311D01*
X155907966Y-80092307D01*
X155909691Y-80087436D01*
X155910599Y-80082340D01*
X155950123Y-79860456D01*
X155950124Y-79860450D01*
X155951029Y-79855367D01*
X155953909Y-79619661D01*
X155918253Y-79386651D01*
X155882681Y-79277818D01*
X155880530Y-79206854D01*
X155917086Y-79145992D01*
X155980744Y-79114556D01*
X155996036Y-79113229D01*
X156000000Y-79113751D01*
X156031699Y-79109578D01*
X156048144Y-79108500D01*
X157283858Y-79108500D01*
X157351979Y-79128502D01*
X157398472Y-79182158D01*
X157408576Y-79252432D01*
X157398053Y-79287750D01*
X157312716Y-79470757D01*
X157253457Y-79691913D01*
X157233502Y-79920000D01*
X157253457Y-80148087D01*
X157254881Y-80153400D01*
X157254881Y-80153402D01*
X157277931Y-80239426D01*
X157276241Y-80310403D01*
X157245319Y-80361132D01*
X156031856Y-81574595D01*
X155969544Y-81608621D01*
X155942761Y-81611500D01*
X151534500Y-81611500D01*
X151466379Y-81591498D01*
X151419886Y-81537842D01*
X151408500Y-81485500D01*
X151408500Y-67692194D01*
X151912895Y-67692194D01*
X151921453Y-67748121D01*
X151923841Y-67758146D01*
X151993836Y-67972295D01*
X151997833Y-67981804D01*
X152101861Y-68181640D01*
X152107355Y-68190365D01*
X152242628Y-68370532D01*
X152249471Y-68378239D01*
X152412356Y-68533896D01*
X152420362Y-68540379D01*
X152606485Y-68667343D01*
X152615444Y-68672432D01*
X152819807Y-68767294D01*
X152829475Y-68770851D01*
X153046580Y-68831060D01*
X153056699Y-68832991D01*
X153240595Y-68852644D01*
X153247287Y-68853000D01*
X153647885Y-68853000D01*
X153663124Y-68848525D01*
X153664329Y-68847135D01*
X153666000Y-68839452D01*
X153666000Y-67692115D01*
X153661525Y-67676876D01*
X153660135Y-67675671D01*
X153652452Y-67674000D01*
X151928226Y-67674000D01*
X151914882Y-67677918D01*
X151912895Y-67692194D01*
X151408500Y-67692194D01*
X151408500Y-67148163D01*
X151913788Y-67148163D01*
X151915248Y-67161460D01*
X151929803Y-67166000D01*
X153647885Y-67166000D01*
X153663124Y-67161525D01*
X153664329Y-67160135D01*
X153666000Y-67152452D01*
X153666000Y-66005115D01*
X153661525Y-65989876D01*
X153660135Y-65988671D01*
X153652452Y-65987000D01*
X153263855Y-65987000D01*
X153258682Y-65987212D01*
X153091313Y-66000973D01*
X153081133Y-66002658D01*
X152862623Y-66057544D01*
X152852872Y-66060864D01*
X152646251Y-66150704D01*
X152637176Y-66155570D01*
X152448010Y-66277948D01*
X152439839Y-66284240D01*
X152273200Y-66435869D01*
X152266175Y-66443402D01*
X152126534Y-66620218D01*
X152120838Y-66628791D01*
X152011948Y-66826045D01*
X152007727Y-66835440D01*
X151932519Y-67047820D01*
X151929887Y-67057783D01*
X151913788Y-67148163D01*
X151408500Y-67148163D01*
X151408500Y-50493319D01*
X151428502Y-50425198D01*
X151479068Y-50380168D01*
X151485754Y-50376893D01*
X151493353Y-50373170D01*
X151493357Y-50373168D01*
X151497994Y-50370896D01*
X151502198Y-50367898D01*
X151502202Y-50367895D01*
X151591932Y-50303891D01*
X151679860Y-50241173D01*
X151838096Y-50083489D01*
X151968453Y-49902077D01*
X151969776Y-49903028D01*
X152016645Y-49859857D01*
X152086580Y-49847625D01*
X152152026Y-49875144D01*
G37*
%TD.AperFunction*%
%TD*%
M02*
