%TF.GenerationSoftware,KiCad,Pcbnew,(6.0.10-0)*%
%TF.CreationDate,2023-01-28T21:33:07-05:00*%
%TF.ProjectId,AWB-0412_HeroShield,4157422d-3034-4313-925f-4865726f5368,rev?*%
%TF.SameCoordinates,Original*%
%TF.FileFunction,Soldermask,Bot*%
%TF.FilePolarity,Negative*%
%FSLAX46Y46*%
G04 Gerber Fmt 4.6, Leading zero omitted, Abs format (unit mm)*
G04 Created by KiCad (PCBNEW (6.0.10-0)) date 2023-01-28 21:33:07*
%MOMM*%
%LPD*%
G01*
G04 APERTURE LIST*
G04 Aperture macros list*
%AMRoundRect*
0 Rectangle with rounded corners*
0 $1 Rounding radius*
0 $2 $3 $4 $5 $6 $7 $8 $9 X,Y pos of 4 corners*
0 Add a 4 corners polygon primitive as box body*
4,1,4,$2,$3,$4,$5,$6,$7,$8,$9,$2,$3,0*
0 Add four circle primitives for the rounded corners*
1,1,$1+$1,$2,$3*
1,1,$1+$1,$4,$5*
1,1,$1+$1,$6,$7*
1,1,$1+$1,$8,$9*
0 Add four rect primitives between the rounded corners*
20,1,$1+$1,$2,$3,$4,$5,0*
20,1,$1+$1,$4,$5,$6,$7,0*
20,1,$1+$1,$6,$7,$8,$9,0*
20,1,$1+$1,$8,$9,$2,$3,0*%
G04 Aperture macros list end*
%ADD10RoundRect,0.250000X0.625000X-0.350000X0.625000X0.350000X-0.625000X0.350000X-0.625000X-0.350000X0*%
%ADD11O,1.750000X1.200000*%
%ADD12O,3.048000X1.850000*%
%ADD13C,1.600000*%
%ADD14O,1.600000X1.600000*%
%ADD15C,3.200000*%
%ADD16R,1.600000X1.600000*%
%ADD17R,1.070000X1.800000*%
%ADD18O,1.070000X1.800000*%
%ADD19R,1.727200X1.727200*%
%ADD20O,1.727200X1.727200*%
%ADD21R,1.700000X1.700000*%
%ADD22O,1.700000X1.700000*%
G04 APERTURE END LIST*
D10*
%TO.C,PWR*%
X161100000Y-87450000D03*
D11*
X161100000Y-85450000D03*
%TD*%
D12*
%TO.C,Btn1*%
X119160000Y-62420000D03*
X131660000Y-62420000D03*
X119160000Y-67420000D03*
X131660000Y-67420000D03*
%TD*%
D13*
%TO.C,220ohm*%
X107570000Y-62450000D03*
D14*
X107570000Y-54830000D03*
%TD*%
D13*
%TO.C,220ohm*%
X103570000Y-62450000D03*
D14*
X103570000Y-54830000D03*
%TD*%
D12*
%TO.C,Btn3*%
X131660000Y-79720000D03*
X119160000Y-79720000D03*
X119160000Y-84720000D03*
X131660000Y-84720000D03*
%TD*%
D15*
%TO.C,MH1*%
X115240000Y-49200000D03*
%TD*%
D16*
%TO.C,PrgmMode | RST*%
X102000000Y-94000000D03*
D14*
X102000000Y-96540000D03*
X109620000Y-96540000D03*
X109620000Y-94000000D03*
%TD*%
D13*
%TO.C,10ohm*%
X158590000Y-80450000D03*
D14*
X166210000Y-80450000D03*
%TD*%
D13*
%TO.C,Hero Passthrough*%
X123500000Y-98120000D03*
X121000000Y-98120000D03*
X118500000Y-98120000D03*
X123500000Y-94920000D03*
X121000000Y-94920000D03*
D16*
X118500000Y-94920000D03*
%TD*%
D13*
%TO.C,220ohm*%
X111190000Y-62450000D03*
D14*
X111190000Y-54830000D03*
%TD*%
D12*
%TO.C,Btn2*%
X141420000Y-62420000D03*
X153920000Y-62420000D03*
X153920000Y-67420000D03*
X141420000Y-67420000D03*
%TD*%
%TO.C,Btn4*%
X153920000Y-79720000D03*
X141420000Y-79720000D03*
X153920000Y-84720000D03*
X141420000Y-84720000D03*
%TD*%
D15*
%TO.C,MH2*%
X113970000Y-97460000D03*
%TD*%
D13*
%TO.C,10ohm*%
X158590000Y-68300000D03*
D14*
X166210000Y-68300000D03*
%TD*%
D17*
%TO.C,LED*%
X105110900Y-50280000D03*
D18*
X106380900Y-50280000D03*
X107650900Y-50280000D03*
X108920900Y-50280000D03*
%TD*%
D15*
%TO.C,MH3*%
X166040000Y-64440000D03*
%TD*%
%TO.C,MH4*%
X166040000Y-92380000D03*
%TD*%
D13*
%TO.C,10ohm*%
X158590000Y-72350000D03*
D14*
X166210000Y-72350000D03*
%TD*%
D19*
%TO.C,ESP8266 ESP-01*%
X103810000Y-86411000D03*
D20*
X103810000Y-83871000D03*
X106350000Y-86411000D03*
X106350000Y-83871000D03*
X108890000Y-86411000D03*
X108890000Y-83871000D03*
X111430000Y-86411000D03*
X111430000Y-83871000D03*
%TD*%
D13*
%TO.C,10ohm*%
X158590000Y-76400000D03*
D14*
X166210000Y-76400000D03*
%TD*%
D21*
%TO.C,J1*%
X127940000Y-97460000D03*
D22*
X130480000Y-97460000D03*
X133020000Y-97460000D03*
X135560000Y-97460000D03*
X138100000Y-97460000D03*
X140640000Y-97460000D03*
X143180000Y-97460000D03*
X145720000Y-97460000D03*
%TD*%
D21*
%TO.C,J3*%
X150800000Y-97460000D03*
D22*
X153340000Y-97460000D03*
X155880000Y-97460000D03*
X158420000Y-97460000D03*
X160960000Y-97460000D03*
X163500000Y-97460000D03*
%TD*%
D21*
%TO.C,J2*%
X118796000Y-49200000D03*
D22*
X121336000Y-49200000D03*
X123876000Y-49200000D03*
X126416000Y-49200000D03*
X128956000Y-49200000D03*
X131496000Y-49200000D03*
X134036000Y-49200000D03*
X136576000Y-49200000D03*
X139116000Y-49200000D03*
X141656000Y-49200000D03*
%TD*%
D21*
%TO.C,J4*%
X145720000Y-49200000D03*
D22*
X148260000Y-49200000D03*
X150800000Y-49200000D03*
X153340000Y-49200000D03*
X155880000Y-49200000D03*
X158420000Y-49200000D03*
X160960000Y-49200000D03*
X163500000Y-49200000D03*
%TD*%
M02*
